<svg width="1854" height="832" viewBox="0 0 1854 832" version="1.1" xmlns="http://www.w3.org/2000/svg" xmlns:xlink="http://www.w3.org/1999/xlink">
<g id="Canvas" fill="none">
<g id="Group">
<path id="Vector" d="M 1.55123e-05 24.5258L 48.6703 134.32L 144.486 105.473L 92.3846 1.55123e-05L 1.55123e-05 24.5258Z" transform="translate(506.422 685.738)" stroke="#FF5012" stroke-width="5" stroke-miterlimit="10"/>
<path id="Vector_2" d="M -7.75613e-06 25.9236L 52.1013 131.397L 152.873 98.7384L 94.4178 -1.55123e-05L -7.75613e-06 25.9236Z" transform="translate(598.797 659.816)" stroke="#FF5012" stroke-width="5" stroke-miterlimit="10"/>
<path id="Vector_3" d="M 1.55123e-05 24.0174L 58.4552 122.756L 159.227 92.2575L 94.2908 -7.75613e-06L 1.55123e-05 24.0174Z" transform="translate(693.227 635.797)" stroke="#FF5012" stroke-width="5" stroke-miterlimit="10"/>
<path id="Vector_4" d="M 3.10245e-05 26.559L 64.9361 118.816L 162.912 92.2575L 96.5781 0L 3.10245e-05 26.559Z" transform="translate(787.508 609.242)" stroke="#FF5012" stroke-width="5" stroke-miterlimit="10"/>
<path id="Vector_5" d="M 3.10245e-05 24.5258L 91.4951 1.55123e-05L 158.846 89.3348L 66.3339 116.783L 3.10245e-05 24.5258Z" transform="translate(884.086 584.715)" stroke="#FF5012" stroke-width="5" stroke-miterlimit="10"/>
<path id="Vector_6" d="M 0 22.8738L 41.9352 121.993L 144.867 94.0366L 99.6279 -7.75613e-06L 0 22.8738Z" transform="translate(374.641 593.863)" stroke="#FF5012" stroke-width="5" stroke-miterlimit="10"/>
<path id="Vector_7" d="M -7.75613e-06 23.3821L 45.2392 117.419L 145.63 89.3347L 99.1196 0L -7.75613e-06 23.3821Z" transform="translate(474.266 570.48)" stroke="#FF5012" stroke-width="5" stroke-miterlimit="10"/>
<path id="Vector_8" d="M -7.75613e-06 22.3655L 46.51 111.7L 141.69 85.5225L 85.7766 -7.75613e-06L -7.75613e-06 22.3655Z" transform="translate(573.383 548.113)" stroke="#FF5012" stroke-width="5" stroke-miterlimit="10"/>
<path id="Vector_9" d="M 32.1503 105.855L 1.55123e-05 16.3929L 86.9203 7.75613e-06L 131.778 82.9809L 32.1503 105.855Z" transform="translate(342.484 510.887)" stroke="#FF5012" stroke-width="5" stroke-miterlimit="10"/>
<path id="Vector_10" d="M 7.75613e-06 20.2052L 104.584 1.55123e-05L 143.978 79.804L 44.858 103.186L 7.75613e-06 20.2052Z" transform="translate(429.414 490.676)" stroke="#FF5012" stroke-width="5" stroke-miterlimit="10"/>
<path id="Vector_11" d="M 0 21.9842L 55.7866 54.897L 104.203 36.598L 50.3222 -3.87807e-06L 0 21.9842Z" transform="translate(878.5 221.91)" stroke="#FF5012" stroke-width="5" stroke-miterlimit="10"/>
<path id="Vector_12" d="M -1.55123e-05 29.4817L 65.3173 0L 114.496 44.0955L 53.8804 66.0798L -1.55123e-05 29.4817Z" transform="translate(928.445 192.43)" stroke="#FF5012" stroke-width="5" stroke-miterlimit="10" stroke-linejoin="round"/>
<path id="Vector_13" d="M 49.5598 60.9967L 104.457 41.9352L 49.5598 -3.87807e-06L 13.5972 10.8015L 1.55123e-05 16.9012L 49.5598 60.9967Z" transform="translate(993.758 175.527)" stroke="#FF5012" stroke-width="5" stroke-miterlimit="10"/>
<path id="Vector_14" d="M 3.10245e-05 22.8738L 41.6811 48.0349L 94.5449 26.3048L 57.8198 -3.87807e-06L 3.10245e-05 22.8738Z" transform="translate(952.07 261.305)" stroke="#FF5012" stroke-width="5" stroke-miterlimit="10"/>
<path id="Vector_15" d="M 3.10245e-05 18.5532L 36.7251 44.858L 88.3182 23.5092L 50.1952 7.75613e-06L 3.10245e-05 18.5532Z" transform="translate(1009.89 242.754)" stroke="#FF5012" stroke-width="5" stroke-miterlimit="10"/>
<path id="Vector_16" d="M 138.513 28.211L 35.8355 70.7816L 3.10245e-05 44.0955L 91.4951 0L 138.513 28.211Z" transform="translate(959.695 361.441)" stroke="#FF5012" stroke-width="5" stroke-miterlimit="10"/>
<path id="Vector_17" d="M 38.6313 69.8921L 0 47.3995L 88.8265 1.55123e-05L 130.126 25.7965L 38.6313 69.8921Z" transform="translate(921.07 335.645)" stroke="#FF5012" stroke-width="5" stroke-miterlimit="10"/>
<path id="Vector_18" d="M 148.171 29.2276L 99.2467 -3.87807e-06L -1.55123e-05 38.3771L 59.3447 76.6271L 148.171 29.2276Z" transform="translate(861.719 306.418)" stroke="#FF5012" stroke-width="5" stroke-miterlimit="10"/>
<path id="Vector_19" d="M 1.55123e-05 15.2492L 44.0956 -3.87807e-06L 104.584 40.0291L 54.8971 57.1844L 1.55123e-05 15.2492Z" transform="translate(1043.32 160.277)" stroke="#FF5012" stroke-width="5" stroke-miterlimit="10"/>
<path id="Vector_20" d="M 3.10245e-05 12.3264L 60.4884 52.3555L 99.6279 37.7417L 36.4709 0L 3.10245e-05 12.3264Z" transform="translate(1087.41 147.953)" stroke="#FF5012" stroke-width="5" stroke-miterlimit="10"/>
<path id="Vector_21" d="M 101.026 1.55123e-05L -3.10245e-05 44.858L 59.5989 84.76L 160.498 37.1063L 101.026 1.55123e-05Z" transform="translate(1015.23 399.816)" stroke="#FF5012" stroke-width="5" stroke-miterlimit="10"/>
<path id="Vector_22" d="M 0 41.9352L 59.3447 80.0582L 162.912 35.5814L 98.7384 1.55123e-05L 0 41.9352Z" transform="translate(1194.28 387.109)" stroke="#FF5012" stroke-width="5" stroke-miterlimit="10"/>
<path id="Vector_23" d="M 1.55123e-05 44.4768L 66.9693 85.1412L 169.266 38.7583L 103.567 1.55123e-05L 1.55123e-05 44.4768Z" transform="translate(1253.63 422.691)" stroke="#FF5012" stroke-width="5" stroke-miterlimit="10"/>
<path id="Vector_24" d="M 67.3506 114.115L 154.779 89.8431L 80.1852 1.55123e-05L 3.10245e-05 24.7799L 67.3506 114.115Z" transform="translate(975.578 559.934)" stroke="#FF5012" stroke-width="5" stroke-miterlimit="10"/>
<path id="Vector_25" d="M 0 27.5756L 90.8597 0L 191.885 76.8813L 188.963 157.575L 74.5939 117.419L 0 27.5756Z" transform="translate(1055.77 532.359)" stroke="#FF5012" stroke-width="5" stroke-miterlimit="10"/>
<path id="Vector_26" d="M 0 47.6537L 57.9468 85.2683L 159.481 36.3439L 100.899 -7.75613e-06L 0 47.6537Z" transform="translate(1074.83 436.922)" stroke="#FF5012" stroke-width="5" stroke-miterlimit="10"/>
<path id="Vector_27" d="M 101.534 0L 163.675 39.3937L 51.9743 88.064L -3.10245e-05 48.9244L 101.534 0Z" transform="translate(1132.78 473.27)" stroke="#FF5012" stroke-width="5" stroke-miterlimit="10"/>
<path id="Vector_28" d="M 111.7 0L 176.763 42.1894L 62.9028 96.5781L 0 48.6703L 111.7 0Z" transform="translate(1184.75 512.664)" stroke="#FF5012" stroke-width="5" stroke-miterlimit="10"/>
<path id="Vector_29" d="M 116.783 1.55123e-05L 188.327 45.3663L 1.55123e-05 135.082L 2.92276 54.3887L 116.783 1.55123e-05Z" transform="translate(1244.73 554.852)" stroke="#FF5012" stroke-width="5" stroke-miterlimit="10"/>
<path id="Vector_30" d="M 1.55123e-05 89.716L 106.363 128.093L 264.573 49.0515L 188.327 -7.75613e-06L 1.55123e-05 89.716Z" transform="translate(1244.73 600.215)" stroke="#FF5012" stroke-width="5" stroke-miterlimit="10"/>
<path id="Vector_31" d="M 3.10245e-05 79.0416L 158.21 0L 239.158 51.0848L 112.463 118.816L 3.10245e-05 79.0416Z" transform="translate(1351.09 649.27)" stroke="#FF5012" stroke-width="5" stroke-miterlimit="10"/>
<path id="Vector_32" d="M 3.10245e-05 67.7318L 126.695 1.55123e-05L 232.296 67.7318L 174.095 127.966L 3.10245e-05 67.7318Z" transform="translate(1463.55 700.352)" stroke="#FF5012" stroke-width="5" stroke-miterlimit="10"/>
<path id="Vector_33" d="M 3.10245e-05 22.4925L 55.9137 108.015L 148.807 83.6163L 85.5225 1.55123e-05L 3.10245e-05 22.4925Z" transform="translate(659.164 525.625)" stroke="#FF5012" stroke-width="5" stroke-miterlimit="10"/>
<path id="Vector_34" d="M 1.55123e-05 21.603L 87.4286 1.55123e-05L 152.619 80.6936L 63.2841 105.219L 1.55123e-05 21.603Z" transform="translate(744.688 504.02)" stroke="#FF5012" stroke-width="5" stroke-miterlimit="10"/>
<path id="Vector_35" d="M 0 21.4759L 81.9643 -1.55123e-05L 152.111 79.5499L 65.1902 102.169L 0 21.4759Z" transform="translate(832.117 482.547)" stroke="#FF5012" stroke-width="5" stroke-miterlimit="10"/>
<path id="Vector_36" d="M 0 27.7027L 70.1462 107.253L 179.94 78.7874L 184.134 67.4776L 85.2683 0L 0 27.7027Z" transform="translate(914.078 454.844)" stroke="#FF5012" stroke-width="5" stroke-miterlimit="10"/>
<path id="Vector_37" d="M -7.75613e-06 21.9842L 57.5656 75.3564L 162.277 52.8638L 107.507 -7.75613e-06L -7.75613e-06 21.9842Z" transform="translate(267.133 366.395)" stroke="#FF5012" stroke-width="5" stroke-miterlimit="10"/>
<path id="Vector_38" d="M 0 19.951L 54.77 72.8148L 137.751 54.6429L 102.932 1.55123e-05L 0 19.951Z" transform="translate(374.641 346.445)" stroke="#FF5012" stroke-width="5" stroke-miterlimit="10"/>
<path id="Vector_39" d="M 104.711 0L 149.569 73.4502L 59.3447 91.6221L -3.87807e-06 22.4925L 104.711 0Z" transform="translate(324.695 419.262)" stroke="#FF5012" stroke-width="5" stroke-miterlimit="10"/>
<path id="Vector_40" d="M -7.75613e-06 18.6803L 39.3937 98.4843L 125.17 76.1188L 82.5997 0L -7.75613e-06 18.6803Z" transform="translate(533.992 472)" stroke="#FF5012" stroke-width="5" stroke-miterlimit="10"/>
<path id="Vector_41" d="M 0 16.1387L 34.8189 70.7816L 114.496 54.2617L 76.373 0L 0 16.1387Z" transform="translate(477.57 330.309)" stroke="#FF5012" stroke-width="5" stroke-miterlimit="10"/>
<path id="Vector_42" d="M 7.75613e-06 16.2658L 38.1229 70.5274L 117.546 52.3555L 75.9917 -3.87807e-06L 7.75613e-06 16.2658Z" transform="translate(553.945 314.043)" stroke="#FF5012" stroke-width="5" stroke-miterlimit="10"/>
<path id="Vector_43" d="M 7.75613e-06 18.1719L 82.9809 1.55123e-05L 132.541 70.9087L 44.858 91.6221L 7.75613e-06 18.1719Z" transform="translate(429.414 401.09)" stroke="#FF5012" stroke-width="5" stroke-miterlimit="10"/>
<path id="Vector_44" d="M -7.75613e-06 16.52L 49.5598 87.4286L 133.43 67.3505L 79.6769 1.55123e-05L -7.75613e-06 16.52Z" transform="translate(512.391 384.57)" stroke="#FF5012" stroke-width="5" stroke-miterlimit="10"/>
<path id="Vector_45" d="M 53.7533 85.5225L 134.193 66.7151L 79.4228 -7.75613e-06L 7.75613e-06 18.1719L 53.7533 85.5225Z" transform="translate(592.07 366.395)" stroke="#FF5012" stroke-width="5" stroke-miterlimit="10"/>
<path id="Vector_46" d="M 47.3995 59.853C 45.4934 59.853 7.75613e-06 13.0889 7.75613e-06 13.0889L 58.8364 -7.75613e-06L 123.391 36.7251L 118.308 45.2392L 47.3995 59.853Z" transform="translate(605.414 239.953)" stroke="#FF5012" stroke-width="5" stroke-miterlimit="10"/>
<path id="Vector_47" d="M 56.8032 -3.87807e-06L -7.75613e-06 10.1661L 46.6371 58.8364L 104.203 46.7641L 56.8032 -3.87807e-06Z" transform="translate(548.602 253.043)" stroke="#FF5012" stroke-width="5" stroke-miterlimit="10"/>
<path id="Vector_48" d="M 103.059 48.6703L 56.4219 -3.87807e-06L 0 10.8015L 42.6977 61.2508L 103.059 48.6703Z" transform="translate(492.188 263.211)" stroke="#FF5012" stroke-width="5" stroke-miterlimit="10"/>
<path id="Vector_49" d="M 29.4817 9.69516e-07L -7.75613e-06 38.5042L 67.4776 38.5042L 90.4784 1.90615L 29.4817 9.69516e-07Z" transform="translate(317.961 64.9727)" stroke="#FF5012" stroke-width="5" stroke-miterlimit="10"/>
<path id="Vector_50" d="M 0 36.598L 56.8032 39.0125L 84.1246 2.28738L 23.0008 9.69516e-07L 0 36.598Z" transform="translate(385.438 66.8789)" stroke="#FF5012" stroke-width="5" stroke-miterlimit="10"/>
<path id="Vector_51" d="M 1.55123e-05 36.7251L 56.9303 44.0955L 107.888 6.35382L 27.3215 0L 1.55123e-05 36.7251Z" transform="translate(442.234 69.1641)" stroke="#FF5012" stroke-width="5" stroke-miterlimit="10"/>
<path id="Vector_52" d="M -3.10245e-05 15.5033L 74.3397 1.55123e-05L 133.812 63.9195L 54.77 82.2185L -3.10245e-05 15.5033Z" transform="translate(671.492 350.895)" stroke="#FF5012" stroke-width="5" stroke-miterlimit="10"/>
<path id="Vector_53" d="M -7.75613e-06 14.2326L 72.4336 0L 115.894 51.0848L 41.554 66.5881L -7.75613e-06 14.2326Z" transform="translate(629.93 299.809)" stroke="#FF5012" stroke-width="5" stroke-miterlimit="10"/>
<path id="Vector_54" d="M 42.5706 93.2741L -7.75613e-06 17.1553L 76.8813 0L 128.093 70.7816L 42.5706 93.2741Z" transform="translate(616.594 454.844)" stroke="#FF5012" stroke-width="5" stroke-miterlimit="10"/>
<path id="Vector_55" d="M 3.10245e-05 19.6969L 80.0582 0L 138.64 68.8755L 51.2118 90.4785L 3.10245e-05 19.6969Z" transform="translate(693.469 435.145)" stroke="#FF5012" stroke-width="5" stroke-miterlimit="10"/>
<path id="Vector_56" d="M 3.10245e-05 19.6969L 81.583 0L 140.547 67.0964L 58.5822 88.5723L 3.10245e-05 19.6969Z" transform="translate(773.531 415.449)" stroke="#FF5012" stroke-width="5" stroke-miterlimit="10"/>
<path id="Vector_57" d="M 59.4718 84.8871L 175.238 53.118L 92.5117 1.55123e-05L -3.10245e-05 20.9676L 59.4718 84.8871Z" transform="translate(745.828 329.926)" stroke="#FF5012" stroke-width="5" stroke-miterlimit="10"/>
<path id="Vector_58" d="M 58.9635 82.7268L -3.10245e-05 15.6304L 63.2841 1.55123e-05L 144.232 55.0241L 58.9635 82.7268Z" transform="translate(855.117 399.816)" stroke="#FF5012" stroke-width="5" stroke-miterlimit="10"/>
<path id="Vector_59" d="M 3.10245e-05 18.0449L 52.9909 -7.75613e-06L 92.7658 20.8405L 38.123 41.554L 3.10245e-05 18.0449Z" transform="translate(1060.09 224.707)" stroke="#FF5012" stroke-width="5" stroke-miterlimit="10"/>
<path id="Vector_60" d="M 63.157 55.5324L -3.10245e-05 17.7907L 57.5657 0L 120.723 36.8522L 63.157 55.5324Z" transform="translate(1123.88 130.164)" stroke="#FF5012" stroke-width="5" stroke-miterlimit="10"/>
<path id="Vector_61" d="M 3.10245e-05 13.7243L 35.2001 -3.87807e-06L 105.092 36.598L 63.157 50.5764L 3.10245e-05 13.7243Z" transform="translate(1181.45 116.438)" stroke="#FF5012" stroke-width="5" stroke-miterlimit="10"/>
<path id="Vector_62" d="M 60.8696 81.5831L -3.10245e-05 43.7143L 101.026 0L 159.608 39.6479L 60.8696 81.5831Z" transform="translate(1133.41 347.465)" stroke="#FF5012" stroke-width="5" stroke-miterlimit="10"/>
<path id="Vector_63" d="M 82.2184 73.9585L 3.10245e-05 24.1445L 55.5324 -3.87807e-06L 134.193 51.466L 82.2184 73.9585Z" transform="translate(1051.2 317.219)" stroke="#FF5012" stroke-width="5" stroke-miterlimit="10"/>
<path id="Vector_64" d="M -3.10245e-05 22.8738L 56.549 -3.87807e-06L 137.878 48.2891L 127.712 53.118L 78.6603 74.3397L -3.10245e-05 22.8738Z" transform="translate(1106.73 294.344)" stroke="#FF5012" stroke-width="5" stroke-miterlimit="10"/>
<path id="Vector_65" d="M -3.10245e-05 18.0448L 50.8306 -3.87807e-06L 91.7492 18.6802L 39.775 38.8854L -3.10245e-05 18.0448Z" transform="translate(1113.09 206.66)" stroke="#FF5012" stroke-width="5" stroke-miterlimit="10"/>
<path id="Vector_66" d="M -3.10245e-05 17.7907L 52.7367 -3.87807e-06L 90.7326 19.4427L 40.4103 36.7251L -3.10245e-05 17.7907Z" transform="translate(1163.91 188.871)" stroke="#FF5012" stroke-width="5" stroke-miterlimit="10"/>
<path id="Vector_67" d="M -3.10245e-05 16.7741L 48.289 0L 88.9535 18.8073L 36.8521 36.2168L -3.10245e-05 16.7741Z" transform="translate(1216.65 172.098)" stroke="#FF5012" stroke-width="5" stroke-miterlimit="10"/>
<path id="Vector_68" d="M 40.6644 35.0731L -3.10245e-05 16.2658L 47.1453 -3.87807e-06L 84.8871 19.8239L 40.6644 35.0731Z" transform="translate(1264.94 155.832)" stroke="#FF5012" stroke-width="5" stroke-miterlimit="10"/>
<path id="Vector_69" d="M -3.10245e-05 20.5864L 49.9411 0L 133.812 43.4601L 81.3289 68.8755L -3.10245e-05 20.5864Z" transform="translate(1163.28 273.758)" stroke="#FF5012" stroke-width="5" stroke-miterlimit="10"/>
<path id="Vector_70" d="M 3.10245e-05 20.3322L 55.2783 0L 136.607 40.9186L 83.8705 63.7924L 3.10245e-05 20.3322Z" transform="translate(1213.21 253.426)" stroke="#FF5012" stroke-width="5" stroke-miterlimit="10"/>
<path id="Vector_71" d="M 3.10245e-05 20.8405L 55.7866 7.75613e-06L 134.32 41.1728L 81.329 61.7592L 3.10245e-05 20.8405Z" transform="translate(1268.49 232.59)" stroke="#FF5012" stroke-width="5" stroke-miterlimit="10"/>
<path id="Vector_72" d="M -6.20491e-05 16.5199L 43.4602 -3.87807e-06L 80.6935 20.5864L 37.7417 36.3439L -6.20491e-05 16.5199Z" transform="translate(1312.09 139.312)" stroke="#FF5012" stroke-width="5" stroke-miterlimit="10"/>
<path id="Vector_73" d="M 3.10245e-05 16.1387L 42.5706 0L 83.2351 20.2052L 37.2333 36.7251L 3.10245e-05 16.1387Z" transform="translate(1355.54 123.172)" stroke="#FF5012" stroke-width="5" stroke-miterlimit="10"/>
<path id="Vector_74" d="M 0 35.2002L 102.17 50.8306L 119.325 12.0723L 85.2683 -3.87807e-06L 0 35.2002Z" transform="translate(1477.02 127.238)" stroke="#FF5012" stroke-width="5" stroke-miterlimit="10"/>
<path id="Vector_75" d="M 3.10245e-05 15.6304L 45.7476 -3.87807e-06L 122.756 36.8522L 79.2958 54.77L 3.10245e-05 15.6304Z" transform="translate(1398.11 107.543)" stroke="#FF5012" stroke-width="5" stroke-miterlimit="10"/>
<path id="Vector_76" d="M 6.20491e-05 17.0283L 44.2226 -3.87807e-06L 135.209 44.4768L 78.5332 58.201L 6.20491e-05 17.0283Z" transform="translate(1324.28 215.559)" stroke="#FF5012" stroke-width="5" stroke-miterlimit="10"/>
<path id="Vector_77" d="M -3.10245e-05 20.0781L 48.7974 -7.75613e-06L 140.419 50.0681L 90.9867 64.5548L -3.10245e-05 20.0781Z" transform="translate(1368.51 195.477)" stroke="#FF5012" stroke-width="5" stroke-miterlimit="10"/>
<path id="Vector_78" d="M 0 16.5199L 43.0789 -7.75613e-06L 158.083 47.3995L 158.083 59.4718L 91.6221 66.5881L 0 16.5199Z" transform="translate(1417.3 178.957)" stroke="#FF5012" stroke-width="5" stroke-miterlimit="10"/>
<path id="Vector_79" d="M -3.10245e-05 31.2608L 34.946 53.8804L 125.552 17.4095L 95.8157 7.75613e-06L -3.10245e-05 31.2608Z" transform="translate(698.18 212.254)" stroke="#FF5012" stroke-width="5" stroke-miterlimit="10"/>
<path id="Vector_80" d="M 139.149 22.2384L 132.795 27.7027L 43.8414 52.9909L 30.1171 48.9244L -7.75613e-06 31.3879L 88.5723 0L 139.149 22.2384Z" transform="translate(642.641 181.629)" stroke="#FF5012" stroke-width="5" stroke-miterlimit="10"/>
<path id="Vector_81" d="M 42.0623 68.3671L 3.10245e-05 46.3829L 100.517 -3.87807e-06L 170.918 10.8015L 42.0623 68.3671Z" transform="translate(836.43 175.527)" stroke="#FF5012" stroke-width="5" stroke-miterlimit="10"/>
<path id="Vector_82" d="M 51.7201 67.9859L 3.10245e-05 34.1836L 94.4178 -7.75613e-06L 151.221 29.6088L 51.7201 67.9859Z" transform="translate(809.75 276.805)" stroke="#FF5012" stroke-width="5" stroke-miterlimit="10"/>
<path id="Vector_83" d="M 3.10245e-05 15.2492L 66.588 0L 135.972 45.3663L 43.4601 66.3339L 3.10245e-05 15.2492Z" transform="translate(702.367 284.559)" stroke="#FF5012" stroke-width="5" stroke-miterlimit="10"/>
<path id="Vector_84" d="M 135.209 23.7633L 97.0864 -3.87807e-06L -1.55123e-05 31.515L 40.7916 57.9469L 135.209 23.7633Z" transform="translate(768.953 253.043)" stroke="#FF5012" stroke-width="5" stroke-miterlimit="10"/>
<path id="Vector_85" d="M 35.8355 54.897L -3.10245e-05 36.4709L 90.6055 3.87807e-06L 132.922 23.3821L 35.8355 54.897Z" transform="translate(733.125 229.664)" stroke="#FF5012" stroke-width="5" stroke-miterlimit="10"/>
<path id="Vector_86" d="M -3.87807e-06 20.3322L 59.3447 69.5108L 137.243 52.9909L 104.203 0L -3.87807e-06 20.3322Z" transform="translate(200.156 309.977)" stroke="#FF5012" stroke-width="5" stroke-miterlimit="10"/>
<path id="Vector_87" d="M -3.87807e-06 13.9784L 33.0399 66.9693L 110.429 50.4494L 72.3065 0L -3.87807e-06 13.9784Z" transform="translate(304.359 295.996)" stroke="#FF5012" stroke-width="5" stroke-miterlimit="10"/>
<path id="Vector_88" d="M 7.75613e-06 12.1993L 61.3779 -7.75613e-06L 99.5009 51.2118L 38.1229 62.6487L 7.75613e-06 12.1993Z" transform="translate(376.672 283.797)" stroke="#FF5012" stroke-width="5" stroke-miterlimit="10"/>
<path id="Vector_89" d="M -7.75613e-06 9.78488L 54.1346 -3.87807e-06L 96.8323 50.4493L 38.1229 60.9967L -7.75613e-06 9.78488Z" transform="translate(438.047 274.012)" stroke="#FF5012" stroke-width="5" stroke-miterlimit="10"/>
<path id="Vector_90" d="M 48.7974 57.1844L 119.452 43.206L 87.3015 -3.87807e-06L 0 14.8679L 48.7974 57.1844Z" transform="translate(84.9062 216.828)" stroke="#FF5012" stroke-width="5" stroke-miterlimit="10"/>
<path id="Vector_91" d="M -3.87807e-06 12.7076L 32.1503 55.9136L 102.297 42.8248L 67.7317 -3.87807e-06L -3.87807e-06 12.7076Z" transform="translate(172.211 204.121)" stroke="#FF5012" stroke-width="5" stroke-miterlimit="10"/>
<path id="Vector_92" d="M 0 10.5473L 70.4003 -7.75613e-06L 102.169 43.206L 34.5648 53.3721L 0 10.5473Z" transform="translate(239.938 193.57)" stroke="#FF5012" stroke-width="5" stroke-miterlimit="10"/>
<path id="Vector_93" d="M -7.75613e-06 11.4369L 68.6213 -7.75613e-06L 95.6886 43.5872L 31.7691 54.6429L -7.75613e-06 11.4369Z" transform="translate(310.336 182.133)" stroke="#FF5012" stroke-width="5" stroke-miterlimit="10"/>
<path id="Vector_94" d="M 41.8082 59.5989L -1.93903e-06 21.4759L 100.136 0L 129.11 44.7309L 41.8082 59.5989Z" transform="translate(43.1016 172.098)" stroke="#FF5012" stroke-width="5" stroke-miterlimit="10"/>
<path id="Vector_95" d="M 1.93903e-06 11.1827L 67.6047 -3.87807e-06L 96.7052 43.206L 28.9734 55.9136L 1.93903e-06 11.1827Z" transform="translate(143.234 160.914)" stroke="#FF5012" stroke-width="5" stroke-miterlimit="10"/>
<path id="Vector_96" d="M 53.3721 71.544L -3.87807e-06 25.0341L 127.712 -3.87807e-06L 157.575 51.2118L 53.3721 71.544Z" transform="translate(146.797 258.762)" stroke="#FF5012" stroke-width="5" stroke-miterlimit="10"/>
<path id="Vector_97" d="M -3.87807e-06 11.8181L 67.6047 -7.75613e-06L 102.169 49.0515L 29.863 63.0299L -3.87807e-06 11.8181Z" transform="translate(274.508 246.945)" stroke="#FF5012" stroke-width="5" stroke-miterlimit="10"/>
<path id="Vector_98" d="M 124.281 2.1603L 16.9012 24.5258L -7.75613e-06 -3.87807e-06L 124.281 2.1603Z" transform="translate(317.961 111.355)" stroke="#FF5012" stroke-width="5" stroke-miterlimit="10"/>
<path id="Vector_99" d="M 7.75613e-06 10.1661L 63.6653 -3.87807e-06L 99.5009 42.8248L 29.1005 53.3721L 7.75613e-06 10.1661Z" transform="translate(210.836 150.746)" stroke="#FF5012" stroke-width="5" stroke-miterlimit="10"/>
<path id="Vector_100" d="M 66.5881 38.5042L 0 36.2168L 33.294 9.69516e-07L 96.0698 9.69516e-07L 66.5881 38.5042Z" transform="translate(251.375 64.9727)" stroke="#FF5012" stroke-width="5" stroke-miterlimit="10"/>
<path id="Vector_101" d="M 51.2118 36.2168L -3.87807e-06 36.2168L 30.1171 9.69516e-07L 84.5058 9.69516e-07L 51.2118 36.2168Z" transform="translate(200.164 64.9727)" stroke="#FF5012" stroke-width="5" stroke-miterlimit="10"/>
<path id="Vector_102" d="M 60.8696 36.2168L 3.87807e-06 36.2168L 29.4817 9.69516e-07L 90.9867 9.69516e-07L 60.8696 36.2168Z" transform="translate(139.289 64.9727)" stroke="#FF5012" stroke-width="5" stroke-miterlimit="10"/>
<path id="Vector_103" d="M -3.87807e-06 11.4369L 75.6105 -3.87807e-06L 104.457 42.8248L 35.8356 54.2616L -3.87807e-06 11.4369Z" transform="translate(274.508 139.312)" stroke="#FF5012" stroke-width="5" stroke-miterlimit="10"/>
<path id="Vector_104" d="M 27.0673 55.9136L 89.2077 44.4768L 63.2841 -3.87807e-06L -7.75613e-06 12.3264L 27.0673 55.9136Z" transform="translate(378.961 169.809)" stroke="#FF5012" stroke-width="5" stroke-miterlimit="10"/>
<path id="Vector_105" d="M 1.55123e-05 10.4203L 58.3281 0L 92.1305 40.9186L 28.8463 53.245L 1.55123e-05 10.4203Z" transform="translate(350.109 128.891)" stroke="#FF5012" stroke-width="5" stroke-miterlimit="10"/>
<path id="Vector_106" d="M 7.75613e-06 10.8015L 61.1238 0L 106.109 41.9352L 33.8024 51.7201L 7.75613e-06 10.8015Z" transform="translate(408.445 118.09)" stroke="#FF5012" stroke-width="5" stroke-miterlimit="10"/>
<path id="Vector_107" d="M 1.55123e-05 0L 96.8323 13.343L 44.9851 41.9352L 1.55123e-05 0Z" transform="translate(469.562 118.09)" stroke="#FF5012" stroke-width="5" stroke-miterlimit="10"/>
<path id="Vector_108" d="M 25.9236 54.2616L 134.955 33.5482L 72.3065 0L 1.55123e-05 9.78488L 25.9236 54.2616Z" transform="translate(442.234 160.023)" stroke="#FF5012" stroke-width="5" stroke-miterlimit="10"/>
<path id="Vector_109" d="M -7.75613e-06 9.27657L 50.9577 7.75613e-06L 95.9427 46.1287L 34.5648 58.3281L -7.75613e-06 9.27657Z" transform="translate(342.102 237.672)" stroke="#FF5012" stroke-width="5" stroke-miterlimit="10"/>
<path id="Vector_110" d="M 0 10.8015L 56.6761 7.75613e-06L 99.1196 47.1454L 44.9851 56.9302L 0 10.8015Z" transform="translate(393.062 226.871)" stroke="#FF5012" stroke-width="5" stroke-miterlimit="10"/>
<path id="Vector_111" d="M 7.75613e-06 10.6744L 52.1014 -3.87807e-06L 98.8655 47.0183L 42.4435 57.8198L 7.75613e-06 10.6744Z" transform="translate(449.742 216.191)" stroke="#FF5012" stroke-width="5" stroke-miterlimit="10"/>
<path id="Vector_112" d="M 7.75613e-06 11.0556L 55.1512 0L 103.567 47.9078L 46.7641 58.0739L 7.75613e-06 11.0556Z" transform="translate(501.844 205.137)" stroke="#FF5012" stroke-width="5" stroke-miterlimit="10"/>
<path id="Vector_113" d="M 107.253 40.2832L 34.8189 3.87807e-06L 0 5.33721L 48.4161 53.245L 107.253 40.2832Z" transform="translate(556.992 199.801)" stroke="#FF5012" stroke-width="5" stroke-miterlimit="10"/>
<path id="Vector_114" d="M 7.75613e-06 28.5922L 51.8472 0L 114.115 14.4867L 46.0017 53.118L 7.75613e-06 28.5922Z" transform="translate(514.555 131.434)" stroke="#FF5012" stroke-width="5" stroke-miterlimit="10"/>
<path id="Vector_115" d="M 68.113 1.93903e-06L 114.242 15.6304L 49.4328 53.8804L 16.647 47.6537L -1.55123e-05 38.6312L 68.113 1.93903e-06Z" transform="translate(560.547 145.918)" stroke="#FF5012" stroke-width="5" stroke-miterlimit="10"/>
<path id="Vector_116" d="M 65.4444 -3.87807e-06L 121.866 20.0781L 33.294 51.466L 1.55123e-05 38.25L 65.4444 -3.87807e-06Z" transform="translate(609.352 161.551)" stroke="#FF5012" stroke-width="5" stroke-miterlimit="10"/>
<path id="Vector_117" d="M 64.4278 73.9585L 1.55123e-05 36.598L 79.2957 0L 164.945 27.5756L 64.4278 73.9585Z" transform="translate(772 147.953)" stroke="#FF5012" stroke-width="5" stroke-miterlimit="10"/>
<path id="Vector_118" d="M 66.2069 59.4718L -3.10245e-05 34.946L 74.0856 0L 145.503 22.8738L 66.2069 59.4718Z" transform="translate(705.805 125.078)" stroke="#FF5012" stroke-width="5" stroke-miterlimit="10"/>
<path id="Vector_119" d="M 48.9244 52.1013L -3.10245e-05 35.9626L 62.9028 0L 123.01 17.1553L 48.9244 52.1013Z" transform="translate(656.875 107.926)" stroke="#FF5012" stroke-width="5" stroke-miterlimit="10"/>
<path id="Vector_120" d="M 41.554 49.0515L -7.75613e-06 39.1395L 59.4718 -3.87807e-06L 104.457 13.0889L 41.554 49.0515Z" transform="translate(615.32 94.8359)" stroke="#FF5012" stroke-width="5" stroke-miterlimit="10"/>
<path id="Vector_121" d="M 50.8306 49.814L -7.75613e-06 39.5208L 49.5598 3.87807e-06L 110.302 10.6744L 50.8306 49.814Z" transform="translate(564.492 84.1602)" stroke="#FF5012" stroke-width="5" stroke-miterlimit="10"/>
<path id="Vector_122" d="M 65.3173 48.162L 0 37.7417L 50.9577 0L 114.877 8.6412L 65.3173 48.162Z" transform="translate(499.172 75.5195)" stroke="#FF5012" stroke-width="5" stroke-miterlimit="10"/>
<path id="Vector_123" d="M 0 14.1055L 32.2774 44.9851L 101.534 29.4817L 89.4618 3.87807e-06L 0 14.1055Z" transform="translate(6.11719 143.887)" stroke="#FF5012" stroke-width="5" stroke-miterlimit="10"/>
<path id="Vector_124" d="M 1.93903e-06 10.039L 12.0723 39.5208L 68.113 29.2276L 56.6761 1.93903e-06L 1.93903e-06 10.039Z" transform="translate(95.5781 133.844)" stroke="#FF5012" stroke-width="5" stroke-miterlimit="10"/>
<path id="Vector_125" d="M 0 15.7575L 83.108 0L 92.0033 30.7525L 11.4369 44.9851L 0 15.7575Z" transform="translate(152.258 118.09)" stroke="#FF5012" stroke-width="5" stroke-miterlimit="10"/>
<path id="Vector_126" d="M -7.75613e-06 6.73505L 8.89534 37.4876L 99.5009 24.5258L 82.5997 -3.87807e-06L -7.75613e-06 6.73505Z" transform="translate(235.359 111.355)" stroke="#FF5012" stroke-width="5" stroke-miterlimit="10"/>
<path id="Vector_127" d="M 3.10245e-05 46.3829L 64.1736 85.1412L 167.741 37.4876L 102.297 1.55123e-05L 3.10245e-05 46.3829Z" transform="translate(1320.59 461.449)" stroke="#FF5012" stroke-width="5" stroke-miterlimit="10"/>
<path id="Vector_128" d="M 3.10245e-05 47.6537L 71.2899 94.4178L 176.001 41.0457L 103.567 1.55123e-05L 3.10245e-05 47.6537Z" transform="translate(1384.77 498.938)" stroke="#FF5012" stroke-width="5" stroke-miterlimit="10"/>
<path id="Vector_129" d="M 70.4004 100.39L 182.99 45.7475L 104.711 0L 0 53.3721L 70.4004 100.39Z" transform="translate(1456.06 539.984)" stroke="#FF5012" stroke-width="5" stroke-miterlimit="10"/>
<path id="Vector_130" d="M 85.1413 104.203L 3.10245e-05 54.6429L 112.59 0L 187.184 41.554L 85.1413 104.203Z" transform="translate(1526.46 585.73)" stroke="#FF5012" stroke-width="5" stroke-miterlimit="10"/>
<path id="Vector_131" d="M 3.10245e-05 62.6487L 102.042 1.55123e-05L 175.366 36.9792L 97.8489 125.552L 3.10245e-05 62.6487Z" transform="translate(1611.6 627.285)" stroke="#FF5012" stroke-width="5" stroke-miterlimit="10"/>
<path id="Vector_132" d="M 69.892 62.0133L 120.723 43.8414L 42.0623 -3.87807e-06L -3.10245e-05 25.4153L 69.892 62.0133Z" transform="translate(1216.65 91.0234)" stroke="#FF5012" stroke-width="5" stroke-miterlimit="10"/>
<path id="Vector_133" d="M 1.55123e-05 26.0507L 78.6603 69.892L 118.689 55.0241L 50.8305 9.69516e-07L 1.55123e-05 26.0507Z" transform="translate(1258.71 64.9727)" stroke="#FF5012" stroke-width="5" stroke-miterlimit="10"/>
<path id="Vector_134" d="M 67.8588 72.5607L 112.081 56.9302L 24.3987 1.93903e-06L -6.20491e-05 17.5366L 67.8588 72.5607Z" transform="translate(1309.55 47.4336)" stroke="#FF5012" stroke-width="5" stroke-miterlimit="10"/>
<path id="Vector_135" d="M 87.6828 72.4336L 125.551 59.0905L 43.4601 9.69516e-07L 3.10245e-05 15.5033L 87.6828 72.4336Z" transform="translate(1333.94 31.9297)" stroke="#FF5012" stroke-width="5" stroke-miterlimit="10"/>
<path id="Vector_136" d="M -3.10245e-05 13.7243L 35.5814 -4.84758e-07L 124.281 60.4884L 82.0913 72.8148L -3.10245e-05 13.7243Z" transform="translate(1377.4 18.207)" stroke="#FF5012" stroke-width="5" stroke-miterlimit="10"/>
<path id="Vector_137" d="M 123.772 49.1786L 35.5814 0L -3.10245e-05 3.68522L 88.6994 64.1736L 123.772 49.1786Z" transform="translate(1412.98 14.5234)" stroke="#FF5012" stroke-width="5" stroke-miterlimit="10"/>
<path id="Vector_138" d="M 3.10245e-05 13.9784L 44.0955 -3.87807e-06L 118.435 33.6753L 77.0083 50.8306L 3.10245e-05 13.9784Z" transform="translate(1443.86 93.5625)" stroke="#FF5012" stroke-width="5" stroke-miterlimit="10"/>
<path id="Vector_139" d="M -3.10245e-05 11.4369L 35.5814 9.69516e-07L 116.021 29.2276L 74.3397 45.1121L -3.10245e-05 11.4369Z" transform="translate(1487.96 82.125)" stroke="#FF5012" stroke-width="5" stroke-miterlimit="10"/>
<path id="Vector_140" d="M -3.10245e-05 12.3264L 37.2334 0L 123.137 27.3214L 145.63 43.8414L 80.4394 41.554L -3.10245e-05 12.3264Z" transform="translate(1523.54 69.8008)" stroke="#FF5012" stroke-width="5" stroke-miterlimit="10" stroke-linecap="round" stroke-linejoin="round"/>
<path id="Vector_141" d="M 106.871 1.90615L 119.833 32.6586L 34.0565 27.5756L -3.10245e-05 15.5033L 40.7915 0L 106.871 1.90615Z" transform="translate(1562.3 111.734)" stroke="#FF5012" stroke-width="5" stroke-miterlimit="10"/>
<path id="Vector_142" d="M 6.20491e-05 21.7301L 109.413 30.8796L 95.4344 5.08305L 9.65784 -3.87807e-06L 6.20491e-05 21.7301Z" transform="translate(1586.7 139.312)" stroke="#FF5012" stroke-width="5" stroke-miterlimit="10"/>
<path id="Vector_143" d="M 3.10245e-05 17.0282L 132.16 40.5374L 116.91 9.1495L 7.49757 3.87807e-06L 3.10245e-05 17.0282Z" transform="translate(1579.2 161.043)" stroke="#FF5012" stroke-width="5" stroke-miterlimit="10"/>
<path id="Vector_144" d="M 88.1911 51.0847L 120.596 41.1728L 59.4718 0L -3.10245e-05 1.90615L 88.1911 51.0847Z" transform="translate(1448.56 12.6172)" stroke="#FF5012" stroke-width="5" stroke-miterlimit="10"/>
<path id="Vector_145" d="M 61.1238 41.1728L 101.026 26.559L 43.206 0L 3.10245e-05 0L 61.1238 41.1728Z" transform="translate(1508.03 12.6172)" stroke="#FF5012" stroke-width="5" stroke-miterlimit="10"/>
<path id="Vector_146" d="M 3.10245e-05 15.2492L 5.46423 28.7193L 89.9701 20.3322L 72.3066 0L 3.10245e-05 15.2492Z" transform="translate(1649.09 22.7812)" stroke="#FF5012" stroke-width="5" stroke-miterlimit="10"/>
<path id="Vector_147" d="M 3.10245e-05 1.52491L 16.7741 34.946L 119.452 34.946L 99.1197 0L 3.10245e-05 1.52491Z" transform="translate(1697.38 133.34)" stroke="#FF5012" stroke-width="5" stroke-miterlimit="10"/>
<path id="Vector_148" d="M 11.8181 25.0341L -3.10245e-05 1.52491L 97.2135 0L 110.938 23.5091L 11.8181 25.0341Z" transform="translate(1685.56 109.832)" stroke="#FF5012" stroke-width="5" stroke-miterlimit="10"/>
<path id="Vector_149" d="M 3.10245e-05 8.76827L 22.8738 0L 115.004 18.0449L 115.004 68.2401L 115.004 56.1678L 3.10245e-05 8.76827Z" transform="translate(1460.38 170.191)" stroke="#FF5012" stroke-width="5" stroke-miterlimit="10"/>
<path id="Vector_150" d="M 3.10245e-05 -3.87807e-06L 81.5831 14.995L 65.9527 67.9859L 3.10245e-05 50.1952L 3.10245e-05 -3.87807e-06Z" transform="translate(1575.38 188.234)" stroke="#FF5012" stroke-width="5" stroke-miterlimit="10"/>
<path id="Vector_151" d="M 15.6304 0L 95.0532 12.3264L 88.0639 70.5274L 6.20491e-05 52.9909L 15.6304 0Z" transform="translate(1641.34 203.23)" stroke="#FF5012" stroke-width="5" stroke-miterlimit="10"/>
<path id="Vector_152" d="M -3.10245e-05 0L 22.2383 47.2724L 119.833 42.1894L 102.678 0L -3.10245e-05 0Z" transform="translate(1714.15 168.285)" stroke="#FF5012" stroke-width="5" stroke-miterlimit="10"/>
<path id="Vector_153" d="M 6.98917 5.08305L -3.10245e-05 63.2841L 120.469 77.5166L 104.584 -3.87807e-06L 6.98917 5.08305Z" transform="translate(1729.4 210.473)" stroke="#FF5012" stroke-width="5" stroke-miterlimit="10"/>
<path id="Vector_154" d="M 57.8198 36.0897L 112.717 17.1553L 51.0847 0L 3.10245e-05 9.53073L 57.8198 36.0897Z" transform="translate(1551.23 3.08594)" stroke="#FF5012" stroke-width="5" stroke-miterlimit="10"/>
<path id="Vector_155" d="M 10.4202 24.6528L 3.10245e-05 6.86212L 93.2742 3.87807e-06L 107.634 23.1279L 10.4202 24.6528Z" transform="translate(1675.14 86.7031)" stroke="#FF5012" stroke-width="5" stroke-miterlimit="10"/>
<path id="Vector_156" d="M 12.7077 34.946L 3.10245e-05 8.89535L 87.0474 9.69516e-07L 105.982 28.0839L 12.7077 34.946Z" transform="translate(1662.43 58.6172)" stroke="#FF5012" stroke-width="5" stroke-miterlimit="10"/>
<path id="Vector_157" d="M 7.8788 24.7799L -3.10245e-05 8.6412L 84.6329 0L 95.0532 15.5033L 7.8788 24.7799Z" transform="translate(1654.43 43.1133)" stroke="#FF5012" stroke-width="5" stroke-miterlimit="10"/>
<path id="Vector_158" d="M 1.55123e-05 21.7301L 28.211 40.4103L 41.554 43.8414L 88.3182 23.1279L 52.8638 -7.75613e-06L 1.55123e-05 21.7301Z" transform="translate(993.758 287.609)" stroke="#FF5012" stroke-width="5" stroke-miterlimit="10"/>
<path id="Vector_159" d="M 91.8762 20.4593L 51.5931 7.75613e-06L -1.55123e-05 21.3488L 35.4543 44.4768L 91.8762 20.4593Z" transform="translate(1046.62 266.262)" stroke="#FF5012" stroke-width="5" stroke-miterlimit="10"/>
<path id="Vector_160" d="M 91.1139 19.5698L 53.6263 3.87807e-06L 1.55123e-05 20.7135L 39.2666 41.1728L 91.1139 19.5698Z" transform="translate(1099.23 245.547)" stroke="#FF5012" stroke-width="5" stroke-miterlimit="10"/>
<path id="Vector_161" d="M 96.7052 19.951L 51.466 7.75613e-06L 3.10245e-05 19.951L 37.4876 39.5208L 96.7052 19.951Z" transform="translate(1152.85 225.598)" stroke="#FF5012" stroke-width="5" stroke-miterlimit="10"/>
<path id="Vector_162" d="M 94.0366 19.4427L 45.2392 37.2334L 3.10245e-05 17.2824L 49.1786 0L 94.0366 19.4427Z" transform="translate(1204.32 208.312)" stroke="#FF5012" stroke-width="5" stroke-miterlimit="10"/>
<path id="Vector_163" d="M 89.9702 19.1885L 44.858 36.8522L -3.10245e-05 17.4095L 52.1013 3.87807e-06L 89.9702 19.1885Z" transform="translate(1253.5 190.906)" stroke="#FF5012" stroke-width="5" stroke-miterlimit="10"/>
<path id="Vector_164" d="M 83.6163 18.5532L 37.8688 34.4377L -3.10245e-05 15.2492L 44.2226 3.87807e-06L 83.6163 18.5532Z" transform="translate(1305.6 175.656)" stroke="#FF5012" stroke-width="5" stroke-miterlimit="10"/>
<path id="Vector_165" d="M 83.6162 18.1719L 39.3937 34.3106L 3.10245e-05 15.7575L 42.9518 1.93903e-06L 83.6162 18.1719Z" transform="translate(1349.82 159.895)" stroke="#FF5012" stroke-width="5" stroke-miterlimit="10"/>
<path id="Vector_166" d="M 40.6644 34.8189L -6.20491e-05 16.647L 46.0017 3.87807e-06L 84.633 19.0615L 40.6644 34.8189Z" transform="translate(1392.77 143.254)" stroke="#FF5012" stroke-width="5" stroke-miterlimit="10"/>
</g>
</g>
</svg>
