<svg width="28" height="25" viewBox="0 0 28 25" fill="none" xmlns="http://www.w3.org/2000/svg">
<path d="M-5.33153e-08 -4.0549e-07H18.0574V12.5962H-5.33153e-08V-4.0549e-07Z" transform="translate(1.58594 9.68359)" stroke="#0EB4C4" stroke-width="2" stroke-miterlimit="10"/>
<path d="M8.83301 4.19872C8.83301 6.51761 6.85567 8.39745 4.4165 8.39745C1.97734 8.39745 -1.33288e-08 6.51761 -1.33288e-08 4.19872C-1.33288e-08 1.87983 1.97734 -1.26716e-08 4.4165 -1.26716e-08C6.85567 -1.26716e-08 8.83301 1.87983 8.83301 4.19872Z" transform="translate(1.19531 1.23438)" stroke="#0EB4C4" stroke-width="2" stroke-miterlimit="10"/>
<path d="M8.83301 4.19872C8.83301 6.51761 6.85567 8.39745 4.4165 8.39745C1.97734 8.39745 -4.26522e-07 6.51761 -4.26522e-07 4.19872C-4.26522e-07 1.87983 1.97734 -1.26716e-08 4.4165 -1.26716e-08C6.85567 -1.26716e-08 8.83301 1.87983 8.83301 4.19872Z" transform="translate(10.0859 1.23438)" stroke="#0EB4C4" stroke-width="2" stroke-miterlimit="10"/>
<path d="M8.53044e-07 3.87983H2.51573L6.93223 0V14.2969L2.51573 11.108H8.53044e-07" transform="translate(19.6406 8.46484)" stroke="#0EB4C4" stroke-width="2" stroke-miterlimit="10"/>
</svg>
