<svg width="139" height="143" viewBox="0 0 139 143" version="1.1" xmlns="http://www.w3.org/2000/svg" xmlns:xlink="http://www.w3.org/1999/xlink">
<g id="Canvas" fill="none">
<g id="&#208;&#145;&#208;&#181;&#208;&#183;&#209;&#139;&#208;&#188;&#209;&#143;&#208;&#189;&#208;&#189;&#209;&#139;&#208;&#185;-1">
<g id="Group">
<path id="Vector" d="M 84 42C 84 65.196 65.196 84 42 84C 18.804 84 -9.58811e-08 65.196 -9.58811e-08 42C -9.58811e-08 18.804 18.804 6.71168e-07 42 6.71168e-07C 65.196 6.71168e-07 84 18.804 84 42Z" transform="translate(29.8008 28.6406)" stroke="#063B46" stroke-width="3" stroke-miterlimit="10"/>
<path id="Vector_2" d="M 0 2.32678e-06L 19.0038 18.5146L 18.9652 7.23048L 27.0014 2.32678e-06L 0 2.32678e-06Z" transform="translate(59.2383 65.3555)" stroke="#063B46" stroke-width="3" stroke-linejoin="round"/>
<g id="Group_2">
<path id="Vector_3" d="M 2.67442 5.28625C 4.15146 5.28625 5.34884 4.10289 5.34884 2.64313C 5.34884 1.18337 4.15146 0 2.67442 0C 1.19738 0 0 1.18337 0 2.64313C 0 4.10289 1.19738 5.28625 2.67442 5.28625Z" transform="matrix(0.949513 -0.313727 0.313727 0.949513 38.1914 68.6914)" fill="#043A44"/>
<path id="Vector_4" d="M 2.67442 5.28626C 4.15146 5.28626 5.34884 4.10289 5.34884 2.64313C 5.34884 1.18337 4.15146 1.93899e-06 2.67442 1.93899e-06C 1.19738 1.93899e-06 0 1.18337 0 2.64313C 0 4.10289 1.19738 5.28626 2.67442 5.28626Z" transform="matrix(0.949513 -0.313727 0.313727 0.949513 68.5859 37.7305)" fill="#043A44"/>
<path id="Vector_5" d="M 2.67442 5.28626C 4.15146 5.28626 5.34885 4.10289 5.34885 2.64313C 5.34885 1.18337 4.15146 0 2.67442 0C 1.19738 0 0 1.18337 0 2.64313C 0 4.10289 1.19738 5.28626 2.67442 5.28626Z" transform="matrix(0.949513 -0.313727 0.313727 0.949513 100.27 69.5938)" fill="#043A44"/>
<path id="Vector_6" d="M 2.67442 5.28626C 4.15146 5.28626 5.34884 4.10289 5.34884 2.64313C 5.34884 1.18337 4.15146 0 2.67442 0C 1.19738 0 -2.35433e-06 1.18337 -2.35433e-06 2.64313C -2.35433e-06 4.10289 1.19738 5.28626 2.67442 5.28626Z" transform="matrix(0.949513 -0.313727 0.313727 0.949513 67.9453 100.012)" fill="#043A44"/>
</g>
</g>
<path id="N" d="M 14.2441 20L 10.4951 20L 4.95215 10.2676L 4.95215 20L 1.18164 20L 1.18164 4.35938L 4.95215 4.35938L 10.4844 14.0918L 10.4844 4.35938L 14.2441 4.35938L 14.2441 20Z" transform="translate(63.7539 -4.19922) scale(0.98 1)" fill="#043A44"/>
<path id="E" d="M 10.8066 13.2217L 4.61914 13.2217L 4.61914 17.4111L 11.8809 17.4111L 11.8809 20L 1.39648 20L 1.39648 4.35938L 11.8594 4.35938L 11.8594 6.96973L 4.61914 6.96973L 4.61914 10.6973L 10.8066 10.6973L 10.8066 13.2217Z" transform="translate(127.066 57.1641) scale(0.98 1)" fill="#043A44"/>
<path id="S" d="M 9.50684 15.8965C 9.50684 15.2878 9.29199 14.8223 8.8623 14.5C 8.43262 14.1706 7.65918 13.8268 6.54199 13.4688C 5.4248 13.1035 4.54036 12.7454 3.88867 12.3945C 2.11263 11.4349 1.22461 10.1423 1.22461 8.5166C 1.22461 7.67155 1.46094 6.9196 1.93359 6.26074C 2.41341 5.59473 3.09733 5.07552 3.98535 4.70312C 4.88053 4.33073 5.88314 4.14453 6.99316 4.14453C 8.11035 4.14453 9.10579 4.34863 9.97949 4.75684C 10.8532 5.15788 11.5299 5.72721 12.0098 6.46484C 12.4967 7.20247 12.7402 8.04036 12.7402 8.97852L 9.51758 8.97852C 9.51758 8.26237 9.29199 7.70736 8.84082 7.31348C 8.38965 6.91243 7.75586 6.71191 6.93945 6.71191C 6.15169 6.71191 5.53939 6.88021 5.10254 7.2168C 4.66569 7.54622 4.44727 7.98307 4.44727 8.52734C 4.44727 9.03581 4.7015 9.46191 5.20996 9.80566C 5.72559 10.1494 6.48112 10.4717 7.47656 10.7725C 9.3099 11.3239 10.6455 12.0078 11.4834 12.8242C 12.3213 13.6406 12.7402 14.6576 12.7402 15.875C 12.7402 17.2285 12.2282 18.292 11.2041 19.0654C 10.18 19.8317 8.80143 20.2148 7.06836 20.2148C 5.86523 20.2148 4.76953 19.9964 3.78125 19.5596C 2.79297 19.1156 2.03743 18.5104 1.51465 17.7441C 0.999023 16.9779 0.741211 16.0898 0.741211 15.0801L 3.97461 15.0801C 3.97461 16.806 5.00586 17.6689 7.06836 17.6689C 7.83464 17.6689 8.43262 17.515 8.8623 17.207C 9.29199 16.8919 9.50684 16.4551 9.50684 15.8965Z" transform="translate(65.6523 122.031) scale(0.98 1)" fill="#043A44"/>
<path id="W" d="M 13.5781 15.4883L 15.6836 4.35938L 18.8955 4.35938L 15.4258 20L 12.1816 20L 9.63574 9.53711L 7.08984 20L 3.8457 20L 0.375977 4.35938L 3.58789 4.35938L 5.7041 15.4668L 8.28223 4.35938L 11.0107 4.35938L 13.5781 15.4883Z" transform="translate(0 57.1602) scale(0.98 1)" fill="#043A44"/>
</g>
</g>
</svg>
