<svg width="175" height="161" viewBox="0 0 175 161" fill="none" xmlns="http://www.w3.org/2000/svg">
<g opacity="0.05">
<path d="M70.925 186.91C50.7189 186.91 37.8457 179.658 37.1939 179.163C36.5421 178.834 36.2162 178.174 36.0532 177.515C35.7273 175.702 35.8903 173.724 36.3791 172.076C36.0532 171.746 35.8903 171.252 35.8903 170.757C35.8903 170.757 35.7273 169.438 34.9125 168.779C34.0978 168.12 32.6312 168.12 30.8387 168.614C30.6758 168.614 30.3499 168.779 30.1869 168.614C29.5351 169.768 28.5574 170.922 27.5797 172.076C27.0908 172.57 26.2761 172.9 25.4613 172.735C24.8095 172.57 9.98083 169.933 1.18141 163.999C0.366644 163.505 0.0407387 162.516 0.203691 161.692C0.366643 160.703 1.01845 160.043 1.99617 159.878C3.78864 159.549 7.21064 158.889 9.81788 158.395C8.67721 156.582 6.88474 153.78 5.25521 151.472C4.76636 150.648 4.76636 149.659 5.25521 148.835C5.74407 148.011 6.72179 147.681 7.6995 148.011L24.8095 152.791C24.4836 151.472 24.4836 149.989 25.4613 148.835C27.5797 146.198 31.8164 147.516 35.7273 149.165L46.4822 153.78C46.4822 153.78 46.6451 153.78 46.6451 153.945C46.971 154.109 49.7412 155.758 50.2301 158.725C50.393 159.714 50.393 161.362 49.2523 163.01C69.9473 169.274 86.8943 166.142 95.2049 163.505C93.7383 161.527 93.5754 159.878 93.7383 158.56C94.2272 155.593 96.9974 153.945 97.3233 153.78C97.3233 153.78 97.4862 153.78 97.4862 153.615L108.241 149C112.152 147.351 116.389 146.198 118.507 148.67C119.322 149.824 119.485 150.978 119.159 152.296L136.432 147.351C137.41 147.022 138.387 147.516 138.876 148.176C139.365 149 139.365 149.989 138.876 150.813C137.247 153.12 135.454 155.923 134.313 157.736C136.921 158.23 140.343 158.889 142.135 159.219C143.113 159.384 143.765 160.043 143.928 161.032C144.091 162.021 143.765 162.845 142.95 163.34C134.151 169.274 119.322 171.911 118.67 172.076C117.855 172.241 117.203 171.911 116.552 171.416C115.411 170.263 114.596 169.109 113.944 167.955C113.944 167.955 113.944 167.955 113.781 167.955C112.478 167.625 110.685 167.296 109.708 168.12C108.893 168.779 108.73 169.933 108.73 169.933C108.73 170.427 108.404 171.087 108.078 171.416C108.567 174.054 108.73 176.361 108.73 176.856C108.73 177.845 108.241 178.669 107.263 178.998C93.7383 184.932 81.354 186.91 70.925 186.91ZM40.4529 175.702C45.6674 178.339 70.7621 188.888 104.167 175.702C103.841 172.57 103.027 168.449 101.234 166.307C95.5308 168.614 73.3693 176.196 44.5267 166.307C42.8972 168.449 40.4529 172.241 40.4529 175.702ZM9.16607 163.34C15.1953 165.977 22.2023 167.625 24.9724 168.12C28.3944 163.834 28.3944 160.373 28.0685 158.725L12.4251 154.274C16.0101 159.714 15.5212 160.538 15.0324 161.527C14.5435 162.351 13.7287 162.845 12.914 162.845C12.5881 162.68 11.1215 163.01 9.16607 163.34ZM116.063 158.23C115.737 159.878 115.737 163.34 119.159 167.625C121.929 167.131 128.936 165.483 134.965 162.845C133.01 162.516 131.543 162.186 131.217 162.186C130.403 162.186 129.425 161.692 129.099 160.867C128.61 159.878 128.284 159.054 131.706 153.615L116.063 158.23ZM33.1201 163.669C34.9125 163.669 36.3791 164.164 37.6827 164.988C38.1716 165.318 38.6604 165.812 38.9863 166.307C40.4529 163.834 41.9195 162.186 42.0824 162.021C42.7342 161.362 43.712 161.032 44.5267 161.362C44.5267 161.197 44.6897 161.197 44.6897 161.032C45.0156 160.703 45.6674 159.878 45.6674 159.219C45.5044 158.725 44.8526 158.065 44.5267 157.736L33.9348 153.285C31.4905 152.296 30.1869 151.967 29.3722 151.967C29.5351 152.296 29.6981 152.791 30.024 153.285C30.1869 153.615 30.3499 153.945 30.3499 154.439L30.6758 154.604C31.3276 154.769 31.8164 155.263 32.1423 155.923C32.3053 156.087 33.6089 159.219 32.4683 163.834C32.6312 163.669 32.7942 163.669 33.1201 163.669ZM101.56 161.362C102.049 161.362 102.375 161.527 102.864 161.692C104.167 162.68 105.308 163.999 106.123 165.483C106.449 165.153 106.775 164.823 107.1 164.658C108.404 163.669 110.034 163.175 111.826 163.34C110.685 158.889 111.989 155.593 112.152 155.428C112.478 154.769 112.967 154.439 113.619 154.109C113.619 153.78 113.781 153.615 113.944 153.285C114.107 152.956 114.433 152.461 114.596 151.967C113.781 152.131 112.478 152.296 110.034 153.285L99.4417 157.736C99.1158 157.9 98.301 158.56 98.301 159.219C98.138 159.878 98.7899 160.538 99.2787 161.032C99.4417 161.197 99.6046 161.527 99.7676 161.856C100.419 161.527 100.745 161.362 100.908 161.362C100.908 161.362 101.234 161.362 101.56 161.362ZM72.2286 159.219C71.2509 159.219 70.4361 158.56 70.1102 157.736C70.1102 157.571 66.1994 148.011 51.2078 141.253C50.0671 140.758 49.0894 140.264 47.9487 139.769C32.7942 133.176 18.2914 127.078 31.4905 76.3104C30.8387 74.9918 27.7426 71.0359 16.9878 68.7283C16.336 68.5635 15.6842 68.069 15.3583 67.4097C15.0324 66.7504 15.1953 65.9262 15.5212 65.2669C15.6842 65.1021 26.2761 47.3006 29.3722 41.5316C29.861 40.7075 30.5128 40.213 31.4905 40.3778C32.3053 40.3778 33.1201 41.0371 33.446 41.8613C33.6089 42.1909 37.6827 51.0917 55.6075 44.4985C57.0741 43.8392 70.1102 37.9054 86.8943 44.4985C87.0573 44.4985 87.0573 44.4985 87.2202 44.6633C87.872 44.993 102.864 52.9048 111.011 41.3668C111.5 40.7075 112.152 40.3778 112.967 40.3778C113.781 40.3778 114.433 40.8723 114.759 41.5316L128.121 64.9372C128.447 65.5966 128.447 66.4207 128.284 67.08C127.958 67.7393 127.307 68.2338 126.655 68.3986C123.559 68.8931 114.922 71.3656 112.967 76.6401C112.641 77.629 113.781 82.2442 114.922 85.8705C119.159 101.199 127.144 129.55 93.2495 141.253C88.5238 143.725 76.1395 151.307 74.5099 157.406C74.184 158.395 73.3693 159.054 72.2286 159.219C72.3916 159.219 72.3916 159.219 72.2286 159.219ZM21.0616 65.1021C34.0978 68.7283 36.0532 74.9918 36.2162 75.6511C36.3791 75.9807 36.3791 76.4752 36.2162 76.8049C23.8318 124.44 35.2384 129.385 49.9041 135.649C51.0448 136.143 52.0225 136.638 53.1632 137.132C63.9181 141.912 69.4584 148.176 72.2286 152.131C77.4431 144.549 89.8275 138.121 91.457 137.297C91.6199 137.297 91.62 137.132 91.7829 137.132C121.603 126.748 114.922 102.848 110.522 87.0242C108.893 81.2553 107.752 77.2994 108.73 74.8269C111.011 68.5635 118.507 65.7614 122.744 64.4428L112.478 46.4765C104.004 55.0475 91.294 51.751 85.1019 48.4544C69.6214 42.5206 57.5629 48.2896 57.4 48.4544C57.4 48.4544 57.237 48.4544 57.237 48.6192C42.2454 54.0586 34.9125 50.1027 31.4905 46.8061C28.5574 52.4103 23.6688 60.8165 21.0616 65.1021ZM114.759 39.5537C112.804 39.5537 110.359 38.7295 108.078 37.7406L97.3233 33.1254C97.3233 33.1254 97.1603 33.1254 97.1603 32.9605C96.8344 32.7957 94.0642 31.1474 93.5754 28.1805C93.4124 27.0267 93.5754 25.2136 95.042 23.2357C86.7314 20.7632 69.7843 17.6315 49.0894 23.7301C50.2301 25.3784 50.2301 27.0267 50.0671 28.0157C49.5782 30.9826 46.8081 32.6309 46.4822 32.7957C46.4822 32.7957 46.3192 32.7957 46.3192 32.9605L35.5643 37.5757C31.6535 39.224 27.4167 40.3778 25.2983 37.9054C24.3206 36.7516 24.3206 35.2681 24.6465 33.9495L7.53655 38.7295C6.55883 39.0592 5.58112 38.5647 5.09226 37.9054C4.6034 37.0812 4.6034 36.0923 5.09226 35.2681C6.72178 32.9605 8.51426 30.1585 9.65493 28.3453C7.04769 27.8509 3.62569 27.1915 1.83321 26.8619C0.8555 26.6971 0.20369 26.0377 0.0407381 25.0488C-0.122214 24.0598 0.203691 23.2357 1.01845 22.7412C9.81788 16.8074 24.6465 14.1701 25.2983 14.0053C26.1131 13.8404 26.7649 14.1701 27.4167 14.6646C28.5574 15.8184 29.3722 16.9722 30.024 18.126C30.1869 18.126 30.5128 18.126 30.6758 18.126C31.9794 18.4556 33.7719 18.7853 34.7496 17.9611C35.5643 17.3018 35.7273 16.148 35.7273 16.148C35.7273 15.6536 35.8903 15.1591 36.2162 14.8294C35.7273 13.0163 35.5643 11.2032 35.8903 9.39007C36.0532 8.73076 36.3791 8.07145 37.0309 7.74179C38.1716 7.08248 66.6882 -9.23554 107.263 7.57696C108.078 7.90662 108.73 8.73076 108.73 9.71973C108.73 10.2142 108.567 12.5218 108.078 15.1591C108.404 15.4887 108.73 15.9832 108.73 16.6425C108.73 16.6425 108.893 17.9611 109.708 18.6205C110.522 19.2798 111.989 19.2798 113.781 18.7853C113.781 18.7853 113.781 18.7853 113.944 18.7853C114.596 17.6315 115.574 16.4777 116.552 15.3239C117.041 14.8294 117.855 14.4998 118.67 14.6646C119.322 14.8294 134.151 17.4667 142.95 23.4005C143.765 23.895 144.091 24.8839 143.928 25.7081C143.765 26.6971 143.113 27.3564 142.135 27.5212C140.343 27.8509 136.921 28.5102 134.313 29.0047C135.454 30.8178 137.247 33.6199 138.876 35.9274C139.365 36.7516 139.365 37.7406 138.876 38.5647C138.387 39.3888 137.41 39.7185 136.432 39.3888L119.159 34.444C119.485 35.5978 119.322 36.9164 118.507 38.0702C117.366 39.224 116.226 39.5537 114.759 39.5537ZM99.1158 29.0047L109.708 33.455C112.152 34.444 113.456 34.7736 114.27 34.7736C114.107 34.2792 113.781 33.7847 113.619 33.455C113.456 33.2902 113.293 32.9605 113.293 32.6309C112.641 32.466 112.152 31.9716 111.826 31.3123C111.663 31.1474 110.359 28.0157 111.5 23.4005C109.545 23.4005 108.078 22.906 106.775 22.0819C106.449 21.7522 106.123 21.5874 105.797 21.2577C104.982 22.7412 104.004 24.0598 102.538 25.0488C101.886 25.5433 101.071 25.5433 100.256 25.2136C100.256 25.2136 99.9305 25.0488 99.1158 24.7191C98.9528 25.0488 98.7899 25.2136 98.6269 25.5433C98.301 25.8729 97.6492 26.6971 97.6492 27.3564C97.9751 28.1805 98.7899 28.8398 99.1158 29.0047ZM29.6981 33.6198C29.5351 33.9495 29.2092 34.444 29.0463 34.9385C29.861 34.7736 31.1646 34.6088 33.6089 33.6198L44.2008 29.1695C44.5267 29.0047 45.3415 28.3453 45.3415 27.686C45.5044 27.0267 44.8526 26.3674 44.3638 25.8729C44.2008 25.7081 44.2008 25.7081 44.2008 25.5433C43.3861 25.8729 42.4083 25.5433 41.7565 24.8839C41.5936 24.7191 40.127 23.0708 38.6604 20.5984C38.3345 21.0929 37.8457 21.4225 37.3568 21.917C35.8903 22.906 34.0978 23.4005 31.9794 23.2357C33.1201 27.686 31.8164 30.9826 31.6535 31.1474C31.3276 31.8067 30.8387 32.3012 30.1869 32.466L29.861 32.6309C30.024 32.9605 29.861 33.2902 29.6981 33.6198ZM115.9 28.8398L131.543 33.2902C127.958 27.8509 128.447 27.0267 128.936 26.0377C129.425 25.2136 130.24 24.7191 131.054 24.7191C131.38 24.7191 132.847 24.3895 134.802 24.0598C128.773 21.4225 121.766 19.7743 118.996 19.2798C115.574 23.7301 115.574 27.1915 115.9 28.8398ZM12.751 24.3895C13.5658 24.3895 14.3805 24.8839 14.8694 25.7081C15.3583 26.6971 15.6842 27.5212 12.2622 32.9605L27.9056 28.5102C28.2315 26.8619 28.2315 23.4005 24.8095 19.1149C22.0393 19.6094 15.0324 21.2577 9.00312 23.895C10.9585 24.2246 12.4251 24.3895 12.751 24.3895ZM73.3693 15.8184C87.3832 15.8184 97.4862 19.2798 101.071 20.7632C102.864 18.7853 103.678 14.4998 104.004 11.368C70.5991 -1.98309 45.6674 8.73076 40.29 11.368C40.29 14.8294 42.5713 18.6205 44.2008 20.7632C55.1186 16.9722 64.8958 15.8184 73.3693 15.8184Z" transform="translate(36.4492)" fill="#0EB4C4"/>
<path d="M50.1745 110.847C43.6564 110.847 36.6495 109.528 30.4573 105.902C21.6579 100.628 16.2804 91.2325 14.325 78.0462C14.325 77.8814 14.325 77.8814 14.325 77.7166C14.325 77.2221 14.1621 67.0027 17.5841 57.6075C13.0214 57.9372 6.01445 57.113 2.1036 50.3551C-0.829544 45.2454 -0.177735 40.4654 0.962931 37.3336C2.75541 32.3888 6.66626 28.5977 9.5994 27.6088C10.2512 27.2791 14.488 25.6308 18.7247 27.4439C20.0284 20.0266 24.591 4.20312 40.5603 0.741728C41.3751 0.5769 46.9155 -0.741728 51.967 2.06035C55.389 4.03829 57.8333 7.49969 58.974 12.2797V12.4445C58.974 12.7742 60.4405 20.686 56.3667 26.2901C54.4113 29.0922 51.3152 30.9053 47.5673 31.3998C46.9155 31.5646 41.0492 32.3888 37.4643 30.0812C37.9531 31.7295 38.7679 33.3777 39.5826 35.1909C40.0715 35.8502 42.5158 39.4764 45.6119 43.2675C55.2261 35.1909 69.077 38.9819 69.5658 39.1467C70.7065 39.4764 71.5213 40.795 71.1954 41.9488C70.8695 43.1026 69.5658 43.9268 68.4252 43.5971C68.2622 43.5971 56.3667 40.3005 48.545 46.7288L48.708 46.8937C49.0339 47.2233 50.0116 48.2123 51.4781 50.0254C57.5074 45.2454 67.4475 47.3882 67.9363 47.553C69.2399 47.8826 69.8918 49.0364 69.7288 50.3551C69.4029 51.6737 68.2622 52.333 66.9586 52.1682C64.5143 51.6737 57.8333 51.0144 54.2483 53.9813C57.6703 59.091 61.4182 66.5082 60.9294 74.7497C60.9294 75.0793 60.7664 76.0683 60.6035 77.3869C62.07 77.2221 63.5366 77.3869 64.8402 77.8814C68.0993 79.3649 69.2399 82.8263 69.2399 83.1559V83.3207C69.2399 83.6504 70.3806 89.4194 66.4698 94.3642C63.0478 98.485 57.3444 100.463 49.1968 100.463C27.6871 99.8036 22.6356 79.8593 22.3097 78.2111C22.1467 77.2221 20.1913 68.9807 26.2205 55.4647C25.2428 53.8165 24.591 52.0034 24.4281 50.1902C23.4504 44.2564 22.1467 41.2895 16.9323 40.4654C16.4434 40.4654 14.9768 40.4654 14.325 40.9599C14.1621 41.1247 13.8362 41.2895 13.8362 42.4433C13.8362 43.5971 13.9991 43.9268 13.9991 43.9268C14.1621 43.9268 14.488 43.9268 14.6509 43.9268C15.7916 43.5971 17.0952 44.2564 17.4211 45.4102C17.747 46.564 17.0952 47.8826 15.9545 48.2123C15.6286 48.3771 13.1844 49.0364 11.066 47.553C10.0883 46.8937 8.94759 45.2454 8.94759 42.2785C8.94759 39.8061 10.0883 38.3226 11.066 37.4985C13.5103 35.5205 16.9323 35.8502 17.2582 36.015C25.8946 37.3336 27.5242 43.5971 28.5019 49.5309C29.3166 54.1461 33.5534 58.7613 37.3013 60.5744C41.701 62.7172 44.6342 66.1786 45.286 66.8379C51.3152 72.7717 53.2706 79.3649 53.7595 84.4745C55.389 80.6835 56.0408 76.2331 56.2038 74.2552C56.8556 61.3986 45.4489 50.3551 45.286 50.1902C45.286 50.1902 45.286 50.1902 45.123 50.0254C40.0715 44.5861 35.5088 37.9929 35.3459 37.6633L35.1829 37.4985C31.2721 30.4108 30.4573 23.3232 32.9016 17.8839C34.5311 14.0928 37.4642 11.2907 41.2122 10.3018C44.4712 9.47763 47.2414 10.4666 48.708 13.1039C50.1745 15.0818 50.3375 17.8839 48.708 19.5322C47.7302 20.5211 46.2637 20.686 44.9601 19.8618C44.6342 19.697 43.1676 19.5322 41.5381 20.3563C40.3974 21.0156 39.0938 22.1694 39.0938 24.6418C39.0938 25.466 39.4197 25.7956 39.7456 26.1253C41.2122 27.4439 45.123 27.2791 46.7525 26.9494C49.3598 26.6198 51.3152 25.466 52.6188 23.6529C55.2261 19.8618 54.5742 14.0928 54.4113 13.4335C53.4336 9.97212 51.8041 7.49969 49.5227 6.18106C45.9378 4.03829 41.5381 5.19209 41.5381 5.19209H41.3751C24.2651 8.98314 22.6356 31.235 22.6356 31.5646C22.6356 32.3888 21.9838 33.2129 21.169 33.5426C20.3543 33.8722 19.3765 33.7074 18.7247 33.0481C15.4657 30.0812 11.3919 31.8943 11.2289 31.8943H11.066C9.43645 32.3888 6.50331 35.026 5.03674 38.9819C4.22198 41.1247 3.73312 44.5861 5.8515 48.0475C10.0883 55.2999 20.1913 52.4978 20.5172 52.4978C21.332 52.333 22.3097 52.4978 22.7985 53.322C23.2874 53.9813 23.4504 54.9703 23.1244 55.7944C18.8877 64.2007 18.7247 76.0683 18.7247 77.3869C20.5172 88.9249 25.2428 97.1663 32.7386 101.782C43.6564 108.375 59.2999 106.397 70.2177 102.441C85.3722 97.0015 92.868 100.793 93.1939 100.957C94.3346 101.617 94.6605 102.935 94.1717 104.089C93.5198 105.243 92.2162 105.573 91.0756 105.078C90.9126 105.078 84.7204 102.111 71.8472 106.726C68.4252 108.21 59.7887 110.847 50.1745 110.847ZM44.7971 95.0236C46.2637 95.3532 47.7302 95.3532 49.3598 95.518C56.0408 95.6829 60.6035 94.1994 63.0478 91.2325C65.492 88.4304 65.0032 84.8042 65.0032 84.1449C64.8402 83.8152 64.3514 82.4966 63.0478 81.8373C62.233 81.5076 60.9294 81.5076 59.6258 82.1669C58.4851 86.2877 56.3667 91.2325 52.7818 93.7049C51.967 94.1994 50.9893 94.1994 50.1745 93.7049C49.3598 93.2104 49.0339 92.2215 49.1968 91.2325C49.3598 90.738 51.6411 79.2 42.1899 69.9696L42.0269 69.8048C42.0269 69.8048 39.4197 66.5082 35.6718 64.6951C34.3682 64.0358 33.0645 63.2117 31.9239 62.2227C32.7386 64.6951 34.857 68.4862 40.5603 74.9145C48.2191 83.4856 47.0784 91.2325 44.7971 95.0236ZM27.6871 64.2006C25.4058 72.4421 26.5464 76.8924 26.5464 77.0573V77.2221C26.7094 77.8814 29.3166 89.2546 40.0715 93.7049C40.0715 93.5401 40.2344 93.3753 40.3974 93.2104C40.5603 92.8808 44.9601 86.7821 36.9754 77.8814C31.598 71.6179 28.9907 67.4972 27.6871 64.2006ZM43.6564 14.5873C43.3305 14.5873 43.0046 14.5873 42.6787 14.7521C41.864 14.917 41.0492 15.4115 40.3974 15.9059C41.864 15.2466 43.4935 15.0818 44.9601 15.0818C44.9601 15.0818 44.9601 15.0818 44.7971 14.917C44.6342 14.917 44.3082 14.5873 43.6564 14.5873ZM167.337 110.847C157.723 110.847 149.25 108.21 145.828 106.891C132.791 102.111 126.599 105.243 126.599 105.243C125.459 105.737 124.155 105.408 123.503 104.254C122.851 103.1 123.34 101.782 124.481 101.122C124.807 100.957 132.303 97.0015 147.457 102.606C158.375 106.562 174.018 108.539 184.936 101.946C192.432 97.3312 197.158 89.2546 198.95 77.5517C198.95 76.0683 198.95 64.3655 194.55 55.9592C194.061 55.1351 194.224 54.1461 194.876 53.4868C195.365 52.8275 196.343 52.4978 197.32 52.6627C197.809 52.8275 207.749 55.4648 211.986 48.2123C214.105 44.5861 213.616 41.2895 212.801 39.1467C211.334 35.3557 208.401 32.7184 206.772 32.0591H206.609C206.446 32.0591 202.209 30.246 199.113 33.2129C198.461 33.8722 197.483 34.0371 196.669 33.7074C195.854 33.3777 195.365 32.5536 195.202 31.7295C195.202 31.5646 193.573 9.14797 176.463 5.52175H176.3C176.3 5.52175 171.9 4.36795 168.315 6.51072C166.034 7.82935 164.404 10.3018 163.426 13.7632C163.263 14.4225 162.612 20.3563 165.219 24.1474C166.522 25.9605 168.478 26.9494 170.922 27.2791C172.715 27.6088 176.463 27.7736 177.929 26.455C178.255 26.1253 178.581 25.7956 178.581 24.9715C178.581 22.4991 177.277 21.3453 176.137 20.686C174.507 19.8618 173.041 20.0267 172.715 20.1915C171.411 21.0156 169.944 20.8508 168.967 19.8618C167.337 18.3784 167.663 15.4115 168.641 13.4335C170.107 10.7963 172.878 9.64246 176.137 10.6314C179.722 11.6204 182.818 14.4225 184.447 18.2135C186.729 23.6529 185.914 30.7405 182.166 37.8281C182.166 37.8281 182.166 37.9929 182.003 37.9929C181.84 38.3226 177.277 44.7509 172.226 50.3551C172.226 50.3551 172.226 50.3551 172.063 50.5199C171.9 50.6847 160.656 61.8931 161.145 74.5848C161.308 76.5628 161.96 81.0131 163.589 84.8042C164.078 79.6945 166.034 73.1014 172.063 67.1676C172.715 66.5082 175.648 63.0468 180.048 60.9041C183.795 59.091 188.195 54.4758 188.847 49.8606C189.825 43.9268 191.617 37.6633 200.091 36.3447C200.417 36.3447 203.839 35.8502 206.283 37.8281C207.261 38.6523 208.401 40.1357 208.401 42.6081C208.401 45.575 207.261 47.0585 206.283 47.8826C204.164 49.3661 201.72 48.7068 201.394 48.542C200.254 48.2123 199.602 46.8937 199.928 45.575C200.254 44.4212 201.557 43.7619 202.861 44.0916C203.024 44.0916 203.513 44.0916 203.513 44.0916C203.513 44.0916 203.839 43.7619 203.676 42.6081C203.676 41.6192 203.35 41.2895 203.187 41.1247C202.535 40.6302 201.231 40.4654 200.58 40.6302C195.528 41.4543 194.061 44.4212 193.084 50.3551C192.758 52.1682 192.106 53.9813 191.291 55.6296C197.32 69.3103 195.365 77.5517 195.202 78.3759C194.876 79.8593 189.662 99.8036 168.152 100.133C160.004 100.298 154.301 98.1553 150.879 94.0346C146.968 89.0897 148.109 83.3207 148.109 82.9911V82.8263C148.272 82.4966 149.25 79.0352 152.509 77.5517C153.812 76.8924 155.279 76.7276 156.745 77.0573C156.582 75.7386 156.419 74.9145 156.419 74.5848C156.094 66.1786 159.678 58.7613 163.1 53.6516C159.516 50.6847 152.835 51.344 150.39 51.8385C149.25 52.1682 147.946 51.344 147.62 50.0254C147.294 48.7068 148.109 47.553 149.413 47.2233C149.901 47.0585 159.841 44.9157 165.871 49.8606C167.337 48.2123 168.315 47.0585 168.641 46.7288L168.804 46.564C160.982 40.1357 149.087 43.4323 148.924 43.4323C147.783 43.7619 146.479 43.1026 146.153 41.784C145.828 40.6302 146.479 39.3116 147.783 38.9819C148.435 38.8171 162.286 35.026 171.737 43.1026C174.833 39.3116 177.44 35.6853 177.766 35.026C178.744 33.2129 179.396 31.5646 179.885 29.9163C176.3 32.3888 170.433 31.3998 169.782 31.235C166.034 30.7405 163.1 28.9274 160.982 26.1253C156.908 20.5211 158.375 12.6094 158.375 12.2797V12.1149C159.678 7.33486 161.96 3.87347 165.382 1.89553C170.433 -1.07139 175.974 0.247243 176.788 0.576899C192.758 4.0383 197.32 20.0266 198.624 27.2791C202.861 25.466 206.935 27.1143 207.749 27.4439C210.683 28.5977 214.593 32.2239 216.386 37.1688C217.527 40.3005 218.178 45.0806 215.245 50.1902C211.334 56.9482 204.327 57.6075 199.765 57.4427C203.187 66.6731 203.024 77.0573 203.024 77.5517C203.024 77.7166 203.024 77.7166 203.024 77.8814C201.068 91.0677 195.691 100.298 186.892 105.737C180.862 109.528 173.855 110.847 167.337 110.847ZM152.672 83.9801C152.509 84.6394 152.183 88.2656 154.627 91.0677C157.071 94.0346 161.634 95.518 168.315 95.3532C169.944 95.3532 171.411 95.1884 172.878 94.8587C170.759 91.0677 169.456 83.3207 177.114 74.7497C182.818 68.3214 184.936 64.6951 185.751 62.0579C184.447 63.0469 183.144 63.871 182.003 64.5303C178.255 66.3434 175.648 69.64 175.648 69.64L175.485 69.8048C166.034 79.0352 168.478 90.5732 168.478 91.0677C168.641 92.0566 168.315 92.8808 167.5 93.5401C166.685 94.0346 165.708 94.0346 164.893 93.5401C161.308 91.0677 159.19 86.1228 158.049 82.0021C156.582 81.3428 155.442 81.178 154.627 81.6725C153.323 82.3318 152.672 83.6504 152.672 83.9801ZM189.825 64.2006C188.684 67.3324 186.077 71.6179 180.373 77.8814C172.389 86.7821 176.788 92.8808 176.951 93.2104C177.114 93.3753 177.114 93.5401 177.277 93.7049C188.195 89.2546 190.802 77.8814 190.802 77.2221V77.0573C190.965 77.0573 192.106 72.4421 189.825 64.2006ZM173.529 15.0818C174.67 15.0818 176.137 15.4115 177.277 15.9059C176.626 15.4115 175.811 15.0818 174.996 14.7521C173.529 14.4225 173.041 14.917 172.878 15.0818C172.878 15.0818 172.878 15.0818 172.715 15.2466C173.041 15.0818 173.204 15.0818 173.529 15.0818ZM134.584 24.1474C128.555 24.1474 123.992 22.8287 123.503 22.6639C123.34 22.6639 123.34 22.4991 123.177 22.4991C108.674 15.2466 92.0533 21.6749 91.8903 21.8398C91.7274 21.8398 91.7274 21.8398 91.5644 22.0046C65.9809 28.4329 60.7664 15.0818 60.6035 14.5873C60.1146 13.4335 60.7664 12.1149 61.9071 11.6204C63.0478 11.1259 64.3514 11.7852 64.8402 12.939C65.0032 13.4335 69.077 22.8287 90.4237 17.5542C92.3792 16.8949 109.326 10.6314 125.133 18.3784C126.925 18.8728 144.198 23.1584 152.672 11.7852C153.486 10.7963 154.79 10.6314 155.931 11.2907C156.908 12.1149 157.071 13.4335 156.419 14.5873C150.227 22.3342 141.428 24.1474 134.584 24.1474Z" transform="translate(0 38.3203)" fill="#0EB4C4"/>
<path d="M62.7366 0.494486C62.5737 1.1538 62.4107 1.81311 62.2478 2.14276C64.0403 2.80208 65.018 3.62622 65.018 4.61519C65.018 7.74693 51.9818 10.3842 35.8495 10.3842C19.7172 10.3842 6.68105 7.74693 6.68105 4.61519C6.68105 3.46139 8.63647 2.30759 11.8955 1.31862C11.4067 0.824137 10.9178 0.494488 10.4289 2.51508e-06C4.07381 1.64829 1.24323e-06 3.95588 1.24323e-06 6.59314C1.24323e-06 11.7028 15.9693 15.8235 35.6866 15.8235C55.4038 15.8235 71.3731 11.7028 71.3731 6.59314C71.5361 4.12071 68.1141 1.97794 62.7366 0.494486Z" transform="translate(72.6523 104.66)" fill="#0EB4C4"/>
<path d="M19.3217 36.7979C27.3064 38.2814 47.5124 36.7979 51.7492 35.9738C55.986 35.1497 57.9414 32.8421 56.3119 29.2158C54.6824 25.5896 50.7715 21.7986 47.0236 19.1613C43.2757 16.3592 40.1796 9.43643 44.0905 6.46952C48.0013 3.50261 50.2826 8.61229 51.2604 11.4144C52.0751 13.8868 53.5417 13.8868 54.1935 17.0185C55.0083 21.3041 55.3342 24.4358 55.3342 24.4358C55.3342 24.4358 56.9637 25.4248 56.9637 18.9965C56.9637 14.7109 59.7339 12.4033 59.0821 9.2716C58.4303 5.97503 51.7492 -2.76088 43.4386 0.865349C32.8467 5.48054 36.5946 17.8427 41.3203 22.4579C46.0459 27.0731 43.9275 27.0731 39.2019 23.9413C34.6392 20.8096 29.9136 17.3482 22.0919 17.1834C14.2702 17.0185 15.7367 20.4799 9.7075 20.9744C7.58912 21.1392 5.30779 19.9854 3.67827 19.8206C1.07103 19.6558 -0.395537 20.3151 0.0933201 20.9744C2.04875 23.1172 11.337 35.3145 19.3217 36.7979ZM56.6378 9.93091C57.1266 9.93091 57.6155 10.4254 57.6155 10.9199C57.6155 11.4144 57.1266 11.9089 56.6378 11.9089C56.1489 11.9089 55.6601 11.4144 55.6601 10.9199C55.6601 10.2606 56.1489 9.93091 56.6378 9.93091Z" transform="translate(76.1445 72.6445)" fill="#0EB4C4"/>
</g>
</svg>
