<svg width="28" height="32" viewBox="0 0 28 32" fill="none" xmlns="http://www.w3.org/2000/svg">
<path d="M-1.56159e-08 3.8147e-07H24.7582" transform="translate(0.824219 11.5781)" stroke="#0EB4C4" stroke-width="2" stroke-miterlimit="10"/>
<path d="M-1.24927e-07 2.49854e-07L2.29242 18.4704H17.0294L19.3219 2.49854e-07" transform="translate(3.64453 11.5781)" stroke="#0EB4C4" stroke-width="2" stroke-miterlimit="10"/>
<path d="M-4.99709e-07 2.88191C3.66788 10.0867 19.3219 12.0516 8.58022 2.49854e-07" transform="translate(13.8594 15.832)" stroke="#0EB4C4" stroke-width="2" stroke-miterlimit="10"/>
<path d="M-2.49854e-07 4.06087L2.48892 -2.49854e-07" transform="translate(17.5234 7.51562)" stroke="#0EB4C4" stroke-width="2" stroke-miterlimit="10"/>
<path d="M7.32548 3.34039C6.40851 5.30533 4.05059 6.0913 2.15115 5.17433C0.251711 4.25736 -0.534263 1.89944 0.382707 -1.56159e-08L4.64007 1.96494" transform="translate(18.2578 1.94531)" stroke="#0EB4C4" stroke-width="2" stroke-miterlimit="10"/>
</svg>
