<svg width="30" height="31" viewBox="0 0 30 31" fill="none" xmlns="http://www.w3.org/2000/svg">
<path d="M-1.38846e-08 4.95006L3.72711 -8.88611e-07H20.9067L23.5274 4.95006" transform="translate(1.53125 24.7773)" stroke="#0EB4C4" stroke-width="2" stroke-miterlimit="10"/>
<path d="M3.40274 0L0 16.534" transform="translate(10.5 13.1914)" stroke="#0EB4C4" stroke-width="2" stroke-miterlimit="10"/>
<path d="M24.6921 14.1647C26.2062 8.51577 21.955 2.40098 15.1414 0.53743C8.32775 -1.32612 1.57237 1.81862 1.38846e-08 7.46752L24.6921 14.1647Z" transform="translate(1.64453 1.9375)" stroke="#0EB4C4" stroke-width="2" stroke-miterlimit="10"/>
<path d="M8.26952 2.77691e-08C8.26952 2.77691e-08 1.98003 3.14475 -1.11076e-07 8.79364" transform="translate(8.11328 2.42188)" stroke="#0EB4C4" stroke-width="2" stroke-miterlimit="10"/>
<path d="M4.44306e-07 2.77691e-08C4.44306e-07 2.77691e-08 3.14475 4.07652 1.04825 11.2978" transform="translate(17.4297 2.70703)" stroke="#0EB4C4" stroke-width="2" stroke-miterlimit="10"/>
<path d="M6.98833 2.22153e-07L8.88611e-07 5.53242" transform="translate(22.2031 19.2461)" stroke="#0EB4C4" stroke-width="2" stroke-miterlimit="10"/>
</svg>
