<svg width="130" height="93" viewBox="0 0 130 93" fill="none" xmlns="http://www.w3.org/2000/svg">
<path d="M0 91.9231V52.0528L75.0007 0H129.338L0 91.9231Z" transform="translate(0 0.640625)" fill="#0EB4C4"/>
<path d="M4.12242 5.8125C4.12242 5.11458 4.34898 4.54948 4.80211 4.11719C5.25523 3.67969 5.84898 3.46094 6.58336 3.46094C7.32815 3.46094 7.92711 3.67708 8.38023 4.10938C8.83336 4.53646 9.05992 5.11719 9.05992 5.85156V6.41406C9.05992 7.11719 8.83336 7.68229 8.38023 8.10938C7.92711 8.53646 7.33336 8.75 6.59898 8.75C5.8594 8.75 5.26044 8.53646 4.80211 8.10938C4.34898 7.67708 4.12242 7.09635 4.12242 6.36719V5.8125ZM5.62242 6.41406C5.62242 6.72656 5.71096 6.97917 5.88805 7.17188C6.07034 7.35938 6.30732 7.45312 6.59898 7.45312C6.89065 7.45312 7.12242 7.35677 7.2943 7.16406C7.46617 6.97135 7.55211 6.71354 7.55211 6.39062V5.8125C7.55211 5.5 7.46617 5.2474 7.2943 5.05469C7.12242 4.86198 6.88544 4.76562 6.58336 4.76562C6.2969 4.76562 6.06513 4.86198 5.88805 5.05469C5.71096 5.24219 5.62242 5.50521 5.62242 5.84375V6.41406ZM9.55992 12.2109C9.55992 11.5078 9.78909 10.9427 10.2474 10.5156C10.7058 10.0833 11.2995 9.86719 12.0287 9.86719C12.7683 9.86719 13.3646 10.0807 13.8177 10.5078C14.2761 10.9297 14.5052 11.513 14.5052 12.2578V12.8203C14.5052 13.5182 14.2813 14.0833 13.8334 14.5156C13.3854 14.9427 12.7891 15.1562 12.0443 15.1562C11.2943 15.1562 10.6927 14.9401 10.2396 14.5078C9.78648 14.0755 9.55992 13.5026 9.55992 12.7891V12.2109ZM11.0599 12.8203C11.0599 13.1068 11.1537 13.3516 11.3412 13.5547C11.5287 13.7578 11.763 13.8594 12.0443 13.8594C12.6797 13.8594 12.9974 13.5078 12.9974 12.8047V12.2109C12.9974 11.8984 12.9089 11.6484 12.7318 11.4609C12.5547 11.2682 12.3203 11.1719 12.0287 11.1719C11.737 11.1719 11.5026 11.2682 11.3255 11.4609C11.1485 11.6484 11.0599 11.9062 11.0599 12.2344V12.8203ZM7.0443 14.1484L5.94273 13.5547L11.4974 4.66406L12.599 5.25781L7.0443 14.1484ZM26.6146 12.6562H22.5052L21.724 15H19.2318L23.4662 3.625H25.638L29.8959 15H27.4037L26.6146 12.6562ZM23.138 10.7578H25.9818L24.5521 6.5L23.138 10.7578ZM34.6693 10.3516H33.3177V15H30.974V3.625H33.3177V8.17969H34.388L37.1693 3.625H40.0287L36.5209 9.00781L40.3959 15H37.599L34.6693 10.3516ZM41.2005 3.625H43.5443V13.1172H48.099V3.625H50.4505V13.1172H52.0052L51.849 17.7422H49.6615V15H41.2005V3.625ZM60.263 3.625H62.6146V15H60.263V7.44531L55.7084 15H53.3646V3.625H55.7084V11.1953L60.263 3.625ZM69.9037 15V10.8984H67.9974L65.9427 15H63.4115L65.8412 10.1484C64.6693 9.5026 64.0834 8.5 64.0834 7.14062C64.0834 6.02604 64.4479 5.16406 65.1771 4.55469C65.9063 3.94531 66.9245 3.63542 68.2318 3.625H72.2552V15H69.9037ZM66.4271 7.3125C66.4271 7.94792 66.5808 8.40885 66.888 8.69531C67.2005 8.98177 67.6667 9.125 68.2865 9.125H69.9037V5.52344H68.2865C67.0469 5.52344 66.4271 6.11979 66.4271 7.3125Z" transform="matrix(0.796242 -0.604979 0.604264 0.796784 16.0703 53.8477)" fill="white"/>
</svg>
