<svg width="30" height="33" viewBox="0 0 30 33" fill="none" xmlns="http://www.w3.org/2000/svg">
<path d="M13.3723 -1.0978e-08C13.3723 -1.0978e-08 9.17911 3.3843 0.485636 4.24764C0.485636 4.24764 -1.04371 12.9156 1.32552 18.9014C4.10844 25.9463 13.6418 29.3594 13.6418 29.3594C13.6418 29.3594 23.5826 24.7434 25.8578 18.6539C27.7444 13.5948 26.4282 4.24764 26.4282 4.24764C20.0413 4.34549 13.3723 -1.0978e-08 13.3723 -1.0978e-08Z" transform="translate(1.20312 2.13281)" stroke="#0EB4C4" stroke-width="2" stroke-miterlimit="10"/>
<path d="M5.84788 -3.51295e-07L7.65302 3.35552L11.6895 3.89655L8.76869 6.5096L9.45815 10.2047L5.84788 8.46075L2.23761 10.2047L2.92708 6.5096L-9.56394e-08 3.89655L4.04275 3.35552L5.84788 -3.51295e-07Z" transform="translate(8.78906 10.1445)" stroke="#0EB4C4" stroke-width="2" stroke-miterlimit="10"/>
</svg>
