<svg width="28" height="27" viewBox="0 0 28 27" fill="none" xmlns="http://www.w3.org/2000/svg">
<path d="M0 7.62939e-07H15.7222" transform="translate(6.93359 19.0742)" stroke="#0EB4C4" stroke-width="2" stroke-miterlimit="10"/>
<path d="M0 -1.16881e-08L8.55097 17.5994L18.3389 12.9422C14.7894 0 0 -1.16881e-08 0 -1.16881e-08Z" transform="translate(4.75 1.03516)" stroke="#0EB4C4" stroke-width="2" stroke-miterlimit="10"/>
<path d="M-1.28221e-08 8.20613e-07C1.98985 8.20613e-07 1.98985 1.82851 3.92592 1.82851C5.91576 1.82851 5.91576 8.20613e-07 7.85183 8.20613e-07C9.84168 8.20613e-07 9.84168 1.82851 11.7777 1.82851C13.7676 1.82851 13.7676 8.20613e-07 15.7037 8.20613e-07C17.6935 8.20613e-07 17.6935 1.82851 19.6296 1.82851C21.6194 1.82851 21.6194 8.20613e-07 23.5555 8.20613e-07C25.5453 8.20613e-07 25.5453 1.82851 27.4814 1.82851" transform="translate(0.390625 23.6211)" stroke="#0EB4C4" stroke-width="2" stroke-miterlimit="10"/>
</svg>
