<svg width="131" height="76" viewBox="0 0 131 76" fill="none" xmlns="http://www.w3.org/2000/svg">
<path d="M119.105 75.2976C119.068 75.2607 119.031 75.1867 118.957 75.1497C118.994 75.0757 119.068 75.0018 119.142 74.9648L119.401 73.5225C119.253 73.5225 119.068 73.4485 118.92 73.3745C118.661 73.2266 118.402 72.9677 118.513 72.7828C118.587 72.8198 118.661 72.8568 118.735 72.8937C118.883 72.9677 118.994 73.0417 119.068 73.1526C119.179 73.2266 119.253 73.3006 119.364 73.3745C119.401 73.3745 119.401 73.4115 119.438 73.4115L119.475 73.0787C119.549 72.6718 119.733 72.0431 119.881 71.6733L120.769 69.4543C120.917 69.0845 121.102 68.4558 121.176 68.049L121.546 65.719C121.62 65.3122 121.767 64.6835 121.878 64.2767L122.211 63.1302C122.174 63.1672 122.174 63.2042 122.137 63.2411C122.063 63.2042 121.989 63.1672 121.915 63.1302C121.952 63.0562 121.989 63.0192 122.026 62.9453C122.1 62.9823 122.174 63.0192 122.211 63.0562L122.544 62.0207C122.507 62.0207 122.47 62.0207 122.433 62.0207C122.396 61.9837 122.359 61.9467 122.359 61.8728C122.396 61.8358 122.433 61.8358 122.433 61.8358C122.433 61.8358 122.47 61.8728 122.47 61.9098C122.47 61.9467 122.507 61.9467 122.544 61.9837C122.655 61.5769 122.803 60.9852 122.877 60.6153L123.099 59.3949C123.062 59.3949 123.025 59.3579 123.025 59.3579C123.062 59.2839 123.099 59.247 123.136 59.173C123.136 59.173 123.136 59.173 123.173 59.173L123.321 58.2854C123.358 58.0635 123.432 57.7307 123.469 57.4348C123.432 57.1759 123.469 56.954 123.617 56.8061L124.134 54.5501C124.134 54.4761 124.171 54.4022 124.171 54.3282C124.171 54.2912 124.134 54.2912 124.134 54.2542C124.134 54.2542 124.171 54.2542 124.171 54.2912C124.245 53.9954 124.356 53.6995 124.43 53.4036C124.282 53.5146 124.134 53.6255 124.245 53.7735C124.208 53.7735 124.208 53.7735 124.171 53.7365C123.876 53.5516 123.949 52.7749 123.876 52.4051C123.913 52.4051 123.913 52.4421 123.949 52.4421C124.06 52.516 124.023 52.627 123.986 52.701C124.023 52.701 124.023 52.7379 124.06 52.7379C124.171 52.8119 124.245 52.7749 124.319 52.7749C124.393 52.7749 124.467 52.7379 124.578 52.8119C124.578 52.8119 124.578 52.8119 124.615 52.8119L125.355 50.9627C125.503 50.5929 125.725 49.9642 125.836 49.5574L126.427 47.3014C126.538 46.8946 126.723 46.2659 126.871 45.8961L126.908 45.7481C126.908 45.6742 126.871 45.6002 126.871 45.5632C126.908 45.4892 126.982 45.4523 127.019 45.4523L127.611 43.7141C127.759 43.3442 127.907 42.6785 127.981 42.2717L128.387 39.9418C128.461 39.5719 128.535 39.0542 128.609 38.6474C128.535 38.7583 128.461 38.8323 128.35 38.8323C128.313 38.7953 128.24 38.7953 128.203 38.7583C127.907 38.6104 127.981 38.3885 128.166 38.1296C128.203 38.1666 128.24 38.1666 128.277 38.2036C128.387 38.2775 128.461 38.3145 128.535 38.2406C128.572 38.2775 128.609 38.3145 128.646 38.3515L129.016 36.1695C129.09 35.7627 129.275 35.134 129.423 34.7641L130.348 32.4342C130.459 32.1383 130.348 31.8425 130.126 31.6945C130.052 31.6576 129.978 31.6206 129.904 31.6206L127.426 31.1768C127.13 31.1398 126.723 31.0288 126.39 30.9179C126.39 31.0288 126.353 31.1768 126.353 31.2877C126.575 31.3617 126.723 31.2507 126.982 31.3987C127.019 31.3987 127.056 31.4357 127.093 31.4726C127.167 32.2493 126.76 32.5082 126.131 32.1383C126.021 32.0644 125.91 31.9904 125.762 31.8795C126.279 31.6206 125.836 31.1398 125.799 30.696L123.802 29.8824C123.432 29.7344 122.803 29.5495 122.396 29.4755L121.065 29.2537C121.657 29.8084 121.841 30.4371 121.841 31.0658C121.694 30.9919 121.657 31.1768 121.583 31.2507C121.509 31.2138 121.398 31.1768 121.324 31.1398C120.436 30.622 120.806 29.9193 120.954 29.2167L120.029 29.0687C119.622 28.9948 118.994 28.8468 118.624 28.6989L117.736 28.3661C117.699 28.3661 117.625 28.3661 117.588 28.3291L117.551 28.2921L116.405 27.8483C116.035 27.7004 115.369 27.5154 115 27.4415L112.67 26.9977C112.263 26.9237 111.634 26.7388 111.227 26.6278L108.971 25.8512C108.601 25.7033 107.936 25.5184 107.566 25.4074L106.198 25.0006C106.124 25.0376 106.087 25.0746 106.05 25.0376C106.124 25.1485 106.161 25.2595 106.161 25.3334C106.937 25.7772 106.752 26.295 106.641 26.4429L106.493 26.6648L106.198 26.5539C106.161 26.5169 106.087 26.5169 106.05 26.4799C106.013 26.4429 105.939 26.4059 105.902 26.369C105.865 26.4059 105.791 26.4429 105.717 26.4799C105.606 26.5169 105.458 26.4799 105.31 26.406C105.162 26.332 105.051 26.1841 104.94 25.9622C104.755 25.6293 104.755 25.0746 104.792 24.7787C104.755 24.8896 104.681 25.0006 104.607 25.0006H104.57C104.201 24.7787 104.422 24.6308 104.607 24.4828C104.311 24.4089 104.053 24.3349 103.831 24.2979L101.538 23.7432C101.131 23.6322 100.502 23.4843 100.095 23.4103L97.7654 22.9295C97.3586 22.8556 96.7299 22.6707 96.3231 22.5597L95.8053 22.4118C95.8053 22.4488 95.7683 22.4857 95.7683 22.5227C95.6944 22.4857 95.6204 22.4488 95.5465 22.4118C95.5465 22.4118 95.5464 22.3748 95.5834 22.3748L94.0671 21.931C93.6603 21.82 93.0316 21.6351 92.6248 21.5612L91.4413 21.3023C91.4413 21.3762 91.4043 21.4132 91.3304 21.4872C91.2934 21.4872 91.2564 21.4502 91.2194 21.4502C91.1085 21.3762 91.0715 21.3023 91.0345 21.2283L90.3318 21.0804C89.925 21.0064 89.2963 20.8215 88.8895 20.7475L86.5965 20.1928C86.1897 20.0818 85.561 19.9339 85.1542 19.823L82.8612 19.2312C82.4544 19.1203 81.8257 18.8984 81.4559 18.7504L79.2369 17.8259C78.8671 17.6779 78.2383 17.493 77.8315 17.4191L75.5016 17.0122C75.4646 17.0122 75.4646 17.0122 75.4276 17.0122C75.4276 17.1602 75.3537 17.3451 75.2057 17.53C75.0208 17.3451 74.9469 17.1232 74.9469 16.9013C74.614 16.8273 74.2812 16.7164 74.0593 16.6424L73.1347 16.3096C73.2826 16.6424 73.2456 16.9753 73.2086 17.3451C72.8758 17.0862 72.8018 16.5315 72.8758 16.2356L71.8033 15.8288C71.4335 15.6808 70.7678 15.5699 70.3609 15.5329L69.1775 15.4589C69.2145 15.6069 69.1775 15.7178 69.0295 15.7548C68.9926 15.6439 68.9186 15.5329 68.8076 15.422L67.9201 15.348C67.5132 15.311 66.8845 15.1631 66.5147 15.0151L64.2957 14.0536C63.9259 13.9057 63.2972 13.6838 62.8904 13.6098L62.7054 13.5728C62.7424 13.5728 62.7424 13.6098 62.7794 13.6098C63.0013 13.7207 62.6685 13.9426 62.8164 14.0906C62.6685 14.3864 63.4081 14.4974 63.0753 14.8302C62.7054 14.5344 62.2986 14.2755 62.1877 13.9426C62.2616 13.5358 62.5945 13.8317 62.7054 13.5358L60.5974 13.129C60.1906 13.055 59.5619 12.9071 59.1551 12.7962L56.8621 12.2044C56.4553 12.0935 55.8266 11.9086 55.4198 11.7976L54.939 11.6497C54.865 11.8346 54.6801 12.0195 54.5322 12.0935C54.4582 11.9086 54.4582 11.7237 54.4952 11.5018L53.1638 11.0949C52.757 10.984 52.1283 10.7991 51.7214 10.7251L49.4285 10.2073C49.0217 10.1334 48.393 9.94846 48.0231 9.80053L46.8027 9.39371C46.7657 9.4307 46.3219 9.94846 45.9521 9.76355L45.8041 9.6526L45.9151 9.46768L45.8041 9.24578L45.9521 9.17181C45.9521 9.17181 45.9891 9.13483 46.063 9.09785L45.8411 9.02388C45.4713 8.87595 44.8056 8.72802 44.4358 8.61707L43.5112 8.39517C43.5112 8.43215 43.4742 8.46914 43.4742 8.50612C43.4742 8.50612 43.4372 8.50612 43.4372 8.46914C43.4002 8.46914 43.3633 8.43215 43.3633 8.43215C43.3263 8.39517 43.2893 8.39517 43.2893 8.39517C43.1783 8.3212 43.1044 8.28422 43.0304 8.35819C43.0304 8.3212 42.9934 8.28422 42.9934 8.28422L42.1798 8.0993C41.773 8.02534 41.1443 7.84042 40.7375 7.72947L38.4815 7.06378C38.0747 6.95283 37.446 6.80489 37.0391 6.69395L36.1146 6.50903C36.2255 6.61998 36.2995 6.76791 36.2255 6.98981C36.1146 6.98981 36.0406 6.98981 35.9666 6.95283C35.8927 6.91584 35.8187 6.84188 35.7447 6.76791C35.6708 6.69395 35.5968 6.61998 35.4489 6.54601C35.4119 6.50903 35.3379 6.50903 35.264 6.47205C35.3009 6.43506 35.3009 6.39808 35.3379 6.3611L34.7092 6.21317C34.5613 6.17618 34.3764 6.1392 34.2284 6.10222C34.4133 6.25015 34.4503 6.43506 34.3394 6.61998C34.0805 6.47205 34.0065 6.28713 34.1175 6.06523C33.8216 5.99127 33.5627 5.88032 33.3408 5.80635L32.934 5.58445C32.934 5.62144 32.971 5.62144 33.008 5.65842L33.3408 5.84333L33.1929 6.10222C33.045 6.32411 32.8231 6.39808 32.6751 6.43506C32.5642 6.47205 32.5272 6.47205 32.4902 6.583L32.3423 6.98981L31.8985 6.69395C31.4177 6.32411 31.3437 5.9173 31.3068 5.54747C31.2328 5.17764 31.1958 4.99272 30.9369 4.84479L30.863 4.80781C30.4931 4.91876 30.3452 5.54747 30.2343 5.9173C30.1973 6.10222 30.1603 6.21316 30.0863 6.32411L29.8644 6.80489L29.6795 6.583C29.6425 6.8049 29.9384 6.98981 29.8274 7.24869C29.7905 7.17473 29.7535 7.13774 29.7165 7.10076C29.5686 7.02679 29.4946 7.28568 29.3097 7.17473C28.9398 6.95283 29.2357 6.65696 29.1248 6.583C29.1248 6.583 29.1248 6.583 29.0878 6.583C28.681 6.47205 28.607 6.61998 28.1632 6.98981C28.1632 6.39808 28.3481 5.73238 27.6084 5.28859C27.9043 5.21462 28.2372 5.17764 28.3851 4.69686C28.57 5.2516 28.607 5.95428 29.2357 6.32411C29.3467 6.39808 29.4576 6.43506 29.5686 6.47205L29.4576 6.3611C29.1248 5.95428 29.0878 5.51049 29.0508 5.02971V4.84479L29.2357 4.77082C29.4206 4.69686 29.5316 4.62289 29.6055 4.51194L29.1617 4.43797C29.1617 4.58591 29.1248 4.73384 28.9768 4.80781C28.8289 4.65987 28.681 4.51194 28.607 4.36401L27.3496 4.17909C26.9428 4.10513 26.314 3.95719 25.9072 3.84625L25.6853 3.7353C25.6114 3.99418 25.5744 4.10513 25.2785 4.14211C25.2415 4.14211 25.2415 4.10513 25.2045 4.10513C24.9087 3.92021 24.7238 3.7353 24.5758 3.55038C24.5019 3.47641 24.4279 3.36546 24.317 3.2915L23.7252 3.0696C23.3554 2.95865 22.6897 2.73675 22.3199 2.6258L21.8761 2.51485C21.8761 2.55184 21.8391 2.58882 21.8391 2.58882C21.8021 2.58882 21.8021 2.58882 21.8021 2.55184C21.7281 2.51485 21.6912 2.47787 21.6542 2.4039L20.4707 2.07105C20.3967 2.182 20.2858 2.21899 20.2118 2.25597C20.1748 2.25597 20.1379 2.21899 20.1379 2.21899C20.0269 2.14502 19.9899 2.03407 19.9899 1.96011C19.5831 1.84916 18.9914 1.66424 18.6216 1.55329L16.3286 0.887595C15.9218 0.776646 15.2931 0.628713 14.8863 0.517764L13.5179 0.221899C13.5549 0.443797 13.5179 0.702679 13.4439 0.961561L13.4809 0.924578C13.5918 1.22044 13.4069 1.25743 13.333 1.22044L13.296 1.29441L13.1481 1.33139H13.0741C13.4069 1.47932 13.7768 1.62726 14.0726 1.81217C14.1836 1.88614 14.3315 1.96011 14.4055 2.03407C14.7383 2.32994 14.2945 2.25597 14.2206 2.6258C14.2206 2.44089 14.1096 2.36692 13.9617 2.25597C13.8877 2.25597 13.8137 2.21899 13.7398 2.182C13.6658 2.14502 13.5918 2.10804 13.5179 2.07105C13.4069 1.99709 13.296 1.92312 13.296 1.77519C13.148 1.70122 12.8152 1.84916 13.0741 1.99709C13.0001 1.99709 12.9262 1.96011 12.8152 1.92312C12.4454 1.70122 12.0386 1.22044 11.7057 0.998544C11.9276 1.03553 12.1495 1.07251 12.3714 1.14648C12.2235 1.03553 12.1125 0.887595 12.0755 0.776646L11.9646 0.406814L12.2605 0.332848C12.3344 0.295865 12.4084 0.295865 12.4824 0.295865C12.4084 0.221899 12.3714 0.110949 12.3344 -5.51092e-10C12.0386 0.0369831 11.7797 0.258882 11.7057 0.59173L11.2619 2.92167C11.1879 3.32848 11.003 3.95719 10.8921 4.36401L10.1524 6.583C10.0415 6.95283 9.81957 7.58154 9.67164 7.98836L8.85801 10.2073C8.71007 10.5772 8.56214 11.2429 8.48818 11.6497L8.08136 13.9796C8.0074 14.3864 7.85946 15.0151 7.74851 15.422L7.08282 17.6779C6.97187 18.0847 6.78695 18.7135 6.676 19.0833L6.08427 21.3393C5.97332 21.7461 5.82539 22.3748 5.75142 22.7816L5.34461 25.1115C5.27064 25.5184 5.08573 26.1471 4.90081 26.5169L4.78986 26.8128C4.82685 26.8497 4.86383 26.8867 4.90081 26.8867C4.97478 26.9237 5.04875 26.9607 5.12271 26.9607C5.19668 26.9607 5.27064 26.9607 5.34461 27.0347C5.38159 27.0716 5.41858 27.0716 5.45556 27.1086C5.19668 27.1826 4.90081 27.2566 4.67891 27.4785C4.60495 27.4415 4.56796 27.3675 4.56796 27.3305L3.93925 28.7359C3.79132 29.1057 3.56942 29.7344 3.49545 30.1412L3.27356 31.2877C3.42149 31.1398 3.64339 31.0658 3.90227 31.2507C3.8283 31.4726 3.6064 31.3247 3.53244 31.6206C3.90227 31.9904 4.23512 32.3602 4.45702 32.7301C4.34607 32.804 4.30908 32.841 4.23512 32.804C4.16115 32.767 4.12417 32.5821 4.01322 32.4712C3.79132 32.5821 3.53244 32.6561 3.23657 32.6191C3.16261 32.841 3.19959 33.1739 2.86674 33.2478L2.82976 33.2108C2.75579 33.4697 2.68183 33.6916 2.60786 33.8765L2.49691 34.1724C2.53389 34.1724 2.53389 34.1724 2.53389 34.2094C2.64484 34.2464 2.64484 34.3573 2.57088 34.4313C2.53389 34.5053 2.45993 34.5422 2.34898 34.5053L1.79423 36.0955C1.6463 36.4654 1.46138 37.1311 1.38742 37.5009L1.05457 39.2391C1.05457 39.2391 1.05457 39.2761 1.01758 39.2761L0.906635 39.7569C0.832669 40.1637 0.684737 40.7924 0.573787 41.1992L0.0190403 43.5291C-0.054926 43.862 0.0930065 44.1578 0.351888 44.3058C0.425855 44.3428 0.499821 44.3797 0.573787 44.3797L1.35043 44.5277C1.35043 44.3797 1.35043 44.2688 1.27647 44.1209C1.35043 43.825 1.57233 44.0839 1.68328 43.899C1.79423 43.5661 1.12853 43.0484 1.72026 42.8634C2.34898 43.4182 2.05311 44.2318 2.53389 44.7866L2.97769 44.8975C3.3845 44.9715 4.01322 45.1564 4.38305 45.3043L6.63902 46.081C7.00885 46.2289 7.67455 46.3768 8.04438 46.4878L9.41275 46.7837C9.41275 46.6727 9.44974 46.5987 9.48672 46.4878C9.48672 46.4878 9.48672 46.4878 9.5237 46.4878C9.59767 46.5248 9.63465 46.5987 9.67164 46.6357C9.70862 46.6727 9.7456 46.7467 9.81957 46.7837C9.81957 46.7837 9.85655 46.7837 9.85655 46.8206C9.85655 46.8576 9.85655 46.8576 9.81957 46.8946L10.4113 47.0056C10.3743 46.8206 10.3373 46.6357 10.1154 46.4878C10.2264 46.1919 10.5222 46.4138 10.6702 46.2289C11.04 46.5987 10.5222 46.3768 10.4113 46.6727C10.4483 46.7097 10.4853 46.7467 10.4853 46.7467C10.5592 46.7837 10.5962 46.7467 10.6702 46.7097C10.7072 46.6727 10.7441 46.6357 10.8551 46.6727C10.8921 46.6727 10.9291 46.7097 10.9291 46.7467C10.8921 46.8946 10.8921 47.0056 10.8921 47.1165C11.2249 47.1905 11.5578 47.2644 11.8167 47.3014L12.4084 47.4124C12.6303 47.1535 12.8522 46.8206 12.7043 46.4878C12.8892 46.3029 13.222 46.5248 13.4809 46.5987C13.4069 46.8206 13.185 47.2644 12.8522 47.4863L14.1096 47.7082C14.5164 47.7822 15.1451 47.9301 15.552 48.0411L15.8108 48.115C15.8108 48.0781 15.8478 48.0781 15.8848 48.0411C15.9218 48.0781 15.9588 48.115 15.9957 48.152L16.9573 48.4479C16.7724 47.9671 16.7354 47.4493 16.6245 47.0425C16.6614 47.0425 16.6614 47.0795 16.6984 47.0795C16.8464 47.1535 16.9203 47.2644 16.9943 47.3754C17.0683 47.4863 17.1052 47.5973 17.2902 47.6712C17.3641 47.7082 17.4011 47.7452 17.5121 47.7822C17.549 48.0411 17.4381 48.3369 17.5121 48.5958L17.9189 48.7068C18.3257 48.8177 18.9544 49.0026 19.3242 49.1136L21.6172 49.7053C21.7651 49.7423 21.913 49.7793 22.098 49.8163C22.1349 49.7793 22.1719 49.7793 22.1719 49.7793C22.1719 49.7793 22.2089 49.8163 22.2089 49.8533C22.5048 49.9272 22.8006 50.0382 23.0225 50.0752L25.2785 50.7409C25.6853 50.8518 26.314 51.0367 26.7209 51.1107L27.0907 51.1846C27.0907 51.0737 27.1647 50.9627 27.2016 50.8518C27.2016 50.8518 27.2386 50.8518 27.2386 50.8888C27.4235 50.9997 27.3496 51.1107 27.3126 51.2586L29.0138 51.6654C29.4206 51.7764 30.0493 51.9243 30.4562 52.0353L30.9739 52.1832C31.3807 51.6654 31.0109 51.0367 31.3068 50.7778C31.5287 51.2956 31.8615 51.7764 31.7875 52.3311C31.7136 52.2941 31.5656 52.2572 31.4547 52.2941L32.6751 52.627C33.082 52.7379 33.7107 52.9229 34.1175 52.9968L36.4104 53.5886C36.8172 53.6995 37.446 53.8844 37.8158 54.0323L40.0348 54.883C40.4046 55.0309 41.0703 55.2158 41.4401 55.2528L43.3633 55.5487C43.2523 55.4007 43.2153 55.1788 43.2153 55.0679C43.4002 55.1418 43.5482 55.2158 43.6591 55.2898C43.844 55.4007 43.955 55.5117 43.992 55.6966C44.3988 55.7706 44.8796 55.9185 45.1754 56.0664L47.3574 57.065C47.6533 57.2129 48.1341 57.3238 48.5039 57.3978C48.6149 57.3608 48.7628 57.3978 48.8737 57.4348L51.1667 57.6567C51.5735 57.6937 52.2022 57.8046 52.609 57.9526L53.0159 58.0635C52.9789 58.0265 52.9419 57.9526 52.9419 57.9156C53.0159 57.7676 53.1268 57.6197 53.2008 57.4718C53.4227 57.7307 53.7185 57.9895 53.7925 58.2854L54.902 58.6183C55.2718 58.7292 55.9375 58.9141 56.3443 58.9881L58.4154 59.3949C58.2675 59.284 58.1935 59.136 58.1195 58.9881C58.3784 58.6922 58.6373 58.5073 58.9701 58.6922C59.0441 58.7292 59.1551 58.8402 59.266 58.9511C59.1551 59.136 59.0441 59.3579 58.9332 59.5059C59.303 59.5798 59.8208 59.7277 60.1166 59.8017L62.3726 60.4674C62.7794 60.5784 63.3711 60.8003 63.778 60.9482L65.5162 61.6879C65.5901 61.6509 65.6641 61.6509 65.7381 61.6139C65.775 61.6879 65.812 61.7618 65.812 61.7988L65.9969 61.8728C66.3668 62.0207 66.9955 62.2426 67.4023 62.3535L69.6583 62.9823C70.0651 63.0932 70.6938 63.2411 71.1006 63.3151L73.4305 63.7589C73.8374 63.8329 74.5031 63.9438 74.8729 64.0178L75.7605 64.1657C75.7975 64.1287 75.7975 64.0548 75.8714 64.0178C75.9454 64.0178 76.0194 64.0178 76.0563 64.0548C76.1303 64.0918 76.2043 64.1657 76.2413 64.2397L77.2398 64.3876C77.6466 64.4616 78.2753 64.6465 78.6452 64.8314L80.8272 65.8669C80.9751 65.9409 81.197 66.0149 81.3819 66.0888C81.3449 65.6451 81.4929 65.2012 81.6038 64.7575C82.0106 65.2012 82.0846 65.756 81.8257 66.2368C81.9736 66.2738 82.0846 66.3107 82.2325 66.3477L82.6393 66.4587C82.6393 66.1258 82.7873 65.793 83.0462 65.4601C83.6749 66.0519 83.7488 66.4217 84.2666 66.7545C84.0817 66.6436 83.9707 66.7176 83.8598 66.7915L84.4885 66.9764C84.8953 67.0874 85.524 67.2353 85.9308 67.3093L88.2608 67.7161C88.6676 67.7901 89.2963 67.938 89.7031 68.049L91.9961 68.6407C92.4029 68.7516 93.0316 68.8996 93.4384 68.9735L95.4355 69.3803L95.3985 69.3434C95.4725 69.2324 95.5834 69.2324 95.6944 69.3064C95.7683 69.3434 95.8053 69.4173 95.8423 69.4543C96.2491 69.5283 96.8039 69.7132 97.1737 69.8611L99.3927 70.6748C99.7625 70.8227 100.428 71.0076 100.798 71.0816L102.536 71.4884C102.499 71.3404 102.536 71.1925 102.684 71.0816C102.869 71.2295 102.869 71.4144 102.906 71.5623L103.091 71.5993C103.498 71.6733 104.127 71.8212 104.533 71.9322L106.272 72.339C106.235 72.302 106.235 72.265 106.198 72.228C106.124 72.0801 106.05 71.9322 105.828 71.8212C105.754 71.7842 105.717 71.7473 105.606 71.7103C105.791 71.2665 106.124 71.2295 106.383 71.3774C106.715 71.5623 106.937 72.0431 106.789 72.413H106.826C107.233 72.5239 107.862 72.7088 108.232 72.8568L109.822 73.4485C109.896 73.4115 109.97 73.3745 110.044 73.3006C110.118 73.3745 110.155 73.4855 110.192 73.5594L110.451 73.6704C110.82 73.8183 111.486 73.9662 111.893 74.0032L112.559 74.0772C112.448 73.6334 112.559 73.1526 112.818 72.6349C113.113 73.0047 113.15 73.6704 112.965 74.1142L114.297 74.2621C114.704 74.2991 115.332 74.484 115.702 74.6319L118.18 75.6675C118.55 75.8154 118.92 75.6305 118.994 75.2237L119.105 75.2976ZM12.8522 3.25451C12.7782 3.21753 12.7043 3.18055 12.6303 3.14357C12.6673 2.99563 12.8152 3.03262 12.8892 2.95865C12.9631 2.99563 13.0371 3.03262 13.1111 3.0696C13.0741 3.21753 12.9262 3.14357 12.8522 3.25451ZM121.62 60.0976C121.731 60.1715 121.841 60.2085 121.952 60.2825C121.804 60.5044 121.694 60.8003 121.509 60.8372C121.176 60.6523 121.472 60.3565 121.62 60.0976ZM121.435 60.9482C121.62 61.0591 121.767 61.355 121.62 61.5029C121.583 61.5029 121.583 61.466 121.546 61.466C121.287 61.318 121.435 61.0961 121.25 60.9482C121.324 60.9112 121.361 60.9112 121.435 60.9482ZM118.106 68.3448C118.032 68.3448 117.921 68.3448 117.884 68.3078C117.662 68.1969 117.588 67.864 117.699 67.6421C117.995 67.827 118.291 68.049 118.106 68.3448ZM120.88 63.5C120.843 63.5 120.843 63.463 120.806 63.463C120.769 63.463 120.769 63.4261 120.732 63.4261C120.621 63.3521 120.51 63.3151 120.436 63.3891C120.14 62.9823 121.102 62.8713 120.991 62.4275C121.139 62.3535 121.324 62.2426 121.583 62.3905C121.62 62.4275 121.657 62.4275 121.694 62.4645C121.472 62.8343 121.509 63.1672 121.176 63.574C121.102 63.611 120.991 63.574 120.88 63.5ZM122.951 58.8402C122.951 58.8402 122.988 58.8771 122.988 58.9141C122.988 58.9511 123.025 58.9881 123.062 58.9881C123.025 59.0251 122.951 59.0251 122.914 58.9881C122.877 58.9511 122.84 58.9141 122.84 58.8402C122.914 58.8402 122.951 58.8032 122.951 58.8402ZM122.359 58.8032C122.692 59.247 122.729 59.7277 122.951 60.2085C122.914 60.2085 122.84 60.1715 122.803 60.1715C122.655 60.0976 122.581 59.8757 122.507 59.6538C122.433 59.4319 122.359 59.247 122.174 59.136C122.137 59.099 122.1 59.099 122.026 59.099C122.137 58.8771 122.248 58.8771 122.359 58.8032ZM121.398 59.9866C121.398 59.9866 121.361 59.9496 121.398 59.9866C121.324 59.9127 121.287 59.9866 121.25 60.0236C121.139 59.9496 121.25 59.8017 121.287 59.6908C121.324 59.6908 121.324 59.7277 121.361 59.7277C121.472 59.7647 121.435 59.8757 121.398 59.9866ZM123.025 56.7321C123.062 56.7691 123.062 56.8431 123.025 56.88C122.988 56.954 122.951 56.991 122.914 56.954C122.877 56.917 122.84 56.88 122.84 56.7321C122.914 56.6951 122.988 56.6951 123.025 56.7321ZM120.991 61.1331C120.917 61.2071 120.843 61.2071 120.769 61.1701C120.584 61.0591 120.436 60.6893 120.51 60.5044C120.843 60.6893 120.732 60.9482 120.991 61.1331ZM119.844 62.9083C119.77 62.8713 119.696 62.8343 119.659 62.7973C119.29 62.5754 119.142 62.3535 119.364 62.0207C119.438 62.0207 119.512 62.0577 119.585 62.0947C119.807 62.2796 119.955 62.6494 119.844 62.9083ZM122.951 56.3253C122.877 56.3253 122.84 56.2883 122.803 56.2513C122.581 56.1404 122.655 55.9555 122.507 55.8445C122.581 55.8075 122.655 55.8075 122.729 55.8445C122.914 55.9555 123.099 56.2144 122.951 56.3253ZM123.432 54.5131C123.506 54.5501 123.58 54.6241 123.617 54.698C123.543 54.809 123.432 54.809 123.321 54.735C123.247 54.698 123.173 54.6241 123.136 54.5501C123.21 54.4392 123.321 54.4392 123.432 54.5131ZM122.914 55.1418C122.877 55.1418 122.877 55.1418 122.877 55.1049C122.766 55.0309 122.766 54.9199 122.655 54.846C122.729 54.772 122.803 54.809 122.877 54.735C122.988 54.883 123.025 54.9939 122.914 55.1418ZM122.322 55.4747C122.137 55.3637 122.174 55.1788 122.322 54.9939C122.322 54.9939 122.322 54.9939 122.359 54.9939C122.581 55.1788 122.507 55.4747 122.322 55.4747ZM122.359 54.4761C122.285 54.4392 122.211 54.3652 122.174 54.2542C122.433 53.9584 122.803 53.9954 123.062 53.6995C123.543 54.0693 122.803 54.735 122.359 54.4761ZM123.025 52.516C123.062 52.516 123.062 52.553 123.099 52.553C123.21 52.627 123.173 52.7379 123.136 52.8119C123.136 52.8119 123.099 52.8119 123.099 52.7749C123.025 52.7379 122.988 52.7749 122.988 52.8119C122.877 52.7749 122.988 52.627 123.025 52.516ZM125.688 49.6314C125.688 49.7793 125.318 50.0012 125.54 50.1121C125.466 50.1491 125.429 50.1121 125.392 50.1121C125.207 50.0012 125.096 49.5944 125.281 49.3725C125.392 49.4464 125.54 49.5574 125.688 49.6314ZM126.316 46.5987C126.39 46.6357 126.464 46.6727 126.538 46.7097C126.501 46.7836 126.464 46.8206 126.427 46.8946C126.353 46.8576 126.279 46.8206 126.205 46.7837C126.242 46.7097 126.279 46.6727 126.316 46.5987ZM124.8 46.8206C124.874 46.8576 124.911 46.9686 125.059 47.0425C125.059 46.4508 125.355 46.2659 125.873 46.118C125.947 46.5248 125.207 47.3754 126.058 47.8562C126.095 47.8562 126.095 47.8931 126.131 47.8931C126.058 48.189 125.836 47.9301 125.725 48.115C125.281 47.7082 124.948 47.3014 124.615 46.8946C124.689 46.8206 124.763 46.7837 124.8 46.8206ZM121.804 51.2216C122.322 51.5175 121.915 51.9983 121.841 52.4051C121.546 52.2202 121.62 51.9613 121.361 51.7764C121.509 51.5915 121.694 51.5545 121.804 51.2216ZM121.657 52.4421C121.878 52.701 121.804 52.9968 121.583 53.3297C121.62 53.3297 121.62 53.3666 121.657 53.3666C121.694 53.4036 121.731 53.4036 121.767 53.4406C121.804 53.4776 121.841 53.4776 121.878 53.5146C121.989 53.5886 122.1 53.6255 122.137 53.4036C122.433 53.8104 121.878 54.0323 121.472 53.8474C121.361 53.5516 121.472 53.1078 121.287 52.9968C121.213 52.9598 121.139 52.9598 120.991 52.9598C121.065 52.4421 121.509 52.7749 121.657 52.4421ZM123.765 49.0766C123.802 49.0026 123.839 48.9657 123.876 48.8917C123.986 48.9657 124.097 49.0026 124.208 49.0766C124.171 49.1506 124.134 49.1876 124.097 49.2615C123.949 49.2245 123.839 49.1506 123.765 49.0766ZM125.133 45.933C124.985 45.8591 124.948 46.044 124.874 46.118C124.689 45.8961 124.689 45.6742 124.874 45.4153C124.393 45.1194 124.097 44.8235 124.319 44.4167C124.467 44.1209 123.728 44.0099 124.06 43.6771C124.171 43.7141 124.245 43.751 124.319 43.788C125.096 44.2318 124.874 45.2673 125.133 45.933ZM125.836 40.6075C126.205 40.9033 125.614 41.1622 125.318 41.0143C125.392 40.6814 125.651 40.7184 125.836 40.6075ZM126.982 38.1296C127.093 38.0926 127.204 38.1296 127.315 38.2036C127.463 38.2775 127.574 38.4624 127.426 38.6104C127.315 38.6474 127.204 38.6104 127.093 38.5364C126.945 38.4624 126.834 38.2775 126.982 38.1296ZM124.837 42.2347C125.022 42.3457 125.059 42.4936 124.948 42.6415C124.911 42.6415 124.911 42.6415 124.911 42.6046C124.726 42.4936 124.689 42.3457 124.8 42.1977C124.8 42.2347 124.8 42.2347 124.837 42.2347ZM126.797 41.643C126.797 41.643 126.834 41.643 126.834 41.68C127.056 41.8279 126.945 42.0128 126.908 42.1977C126.871 42.1977 126.871 42.1608 126.834 42.1608C126.612 42.0128 126.649 41.8279 126.797 41.643ZM128.092 39.35C128.24 39.461 128.203 39.5719 128.166 39.6829C128.129 39.7938 128.092 39.9418 128.24 40.0157C128.166 40.0897 128.092 40.0527 128.018 40.0157C127.944 39.9788 127.87 39.9048 127.833 39.8308C127.759 39.7569 127.722 39.6829 127.648 39.6459C127.648 39.6459 127.648 39.6459 127.611 39.6459C127.722 39.35 127.907 39.387 128.092 39.35ZM126.723 41.2362C126.575 41.2732 126.353 41.2362 126.205 41.1622C126.132 41.1252 126.058 41.0513 126.021 40.9773C126.095 40.8664 126.279 40.8664 126.427 40.9773C126.575 41.0513 126.686 41.1622 126.723 41.2362ZM128.498 37.1311C128.609 37.205 128.572 37.316 128.535 37.3899C128.535 37.3899 128.498 37.3899 128.498 37.353C128.424 37.316 128.387 37.353 128.387 37.3899C128.277 37.316 128.387 37.168 128.424 37.0571C128.461 37.0941 128.461 37.1311 128.498 37.1311ZM129.164 35.5408C129.09 35.6887 128.942 35.6517 128.868 35.8366C128.757 35.6887 128.794 35.5408 128.868 35.3559C128.979 35.4298 129.09 35.4668 129.164 35.5408ZM129.867 32.6561C129.941 32.6931 130.015 32.7301 130.089 32.767C130.052 32.841 130.015 32.878 129.978 32.952C129.904 32.915 129.83 32.878 129.756 32.841C129.793 32.804 129.83 32.7301 129.867 32.6561ZM127.278 36.6873C127.389 36.7612 127.5 36.8352 127.574 36.8722C127.685 36.9461 127.796 36.9831 127.907 37.0201C127.426 37.4639 128.313 37.6858 127.833 38.1296C127.611 38.1296 127.352 38.0556 127.167 37.9447C126.982 37.8337 126.797 37.6488 126.686 37.4639C126.76 37.168 126.982 37.316 127.056 37.0941C127.019 36.9831 126.945 36.8352 126.834 36.7242C126.501 36.5763 126.871 37.316 126.427 37.205C126.095 36.9461 126.538 36.5763 126.131 36.3544C126.131 36.3544 126.095 36.3544 126.095 36.3174C126.353 36.1695 126.686 36.3174 126.982 36.5023C127.056 36.5393 127.167 36.6133 127.278 36.6873ZM124.948 39.7569C124.911 39.8308 124.874 39.8678 124.837 39.9418C124.763 39.9048 124.689 39.8678 124.615 39.8308C124.652 39.7569 124.689 39.7199 124.726 39.6459C124.8 39.6459 124.874 39.6829 124.948 39.7569ZM128.277 33.7286C128.535 33.8765 128.424 34.0984 128.313 34.3203C128.313 34.3203 128.314 34.3203 128.277 34.3203C128.018 34.1724 128.129 33.9505 128.277 33.7286ZM128.905 31.8795C129.238 32.1383 128.757 32.5821 128.572 32.7301C128.35 32.5082 128.609 31.9534 128.905 31.8795ZM127.389 33.9135C127.426 33.9505 127.463 33.9875 127.426 34.0615C127.389 34.0984 127.352 34.1354 127.278 34.0984C127.241 34.0615 127.204 34.0245 127.167 33.9505C127.278 33.8765 127.352 33.8765 127.389 33.9135ZM126.353 32.6191C126.501 32.878 126.538 32.952 126.612 33.0259C126.686 33.0629 126.797 33.0629 127.093 33.0629C127.019 33.1369 127.019 33.2478 127.093 33.2848C126.575 33.4697 126.612 33.7656 126.538 34.2464C126.279 34.0245 126.464 33.9135 126.316 33.8026C126.279 33.7656 126.168 33.7286 126.021 33.6916C126.095 33.3588 126.021 33.0259 126.353 32.6191ZM124.763 31.7315C124.8 31.7315 124.8 31.7315 124.763 31.7315C125.281 32.0274 126.39 33.0999 125.54 33.5807C125.503 33.5437 125.466 33.5437 125.429 33.5067C124.689 33.0999 125.022 32.4712 124.615 31.9904C124.689 31.8795 124.726 31.8055 124.763 31.7315ZM123.506 31.3617C123.617 31.4357 123.728 31.5096 123.876 31.6206C123.986 31.7315 124.134 31.8055 124.319 31.9164C124.356 31.9164 124.356 31.9534 124.393 31.9534C123.765 32.1753 123.469 32.6191 123.321 33.0999C122.692 32.6191 123.876 31.8055 123.062 31.3247C123.21 31.2507 123.358 31.2877 123.506 31.3617ZM121.287 31.4357C121.509 31.5836 121.398 31.8055 121.25 31.9904C121.213 31.9904 121.176 31.9534 121.139 31.9534C120.917 31.8425 121.25 31.6206 121.287 31.4357ZM119.918 29.1427C120.325 29.4016 120.214 29.7714 120.362 30.1043C120.14 29.9193 119.881 29.6974 119.733 29.5125C119.807 29.4016 119.881 29.2906 119.918 29.1427ZM117.403 31.1028C117.44 31.1398 117.477 31.1398 117.514 31.1768C117.736 31.2877 117.81 31.4357 117.662 31.6206C117.588 31.6206 117.477 31.6206 117.403 31.5836C117.293 31.4726 117.219 31.2507 117.403 31.1028ZM118.402 28.8468C118.587 29.0318 118.55 29.1057 118.365 29.1797C118.291 29.1427 118.217 29.1057 118.143 29.0687C118.217 28.9208 118.328 28.9578 118.402 28.8468ZM110.673 27.5524C110.82 27.6264 110.931 27.6264 111.005 27.6264C111.116 27.6264 111.227 27.6264 111.338 27.7004C111.375 27.7004 111.412 27.7373 111.449 27.7743C111.375 27.8483 111.375 27.9592 111.449 27.9962C111.301 28.2181 111.079 28.1811 110.894 28.2551C110.525 28.0332 110.525 27.7373 110.525 27.4415C110.562 27.5154 110.636 27.5524 110.673 27.5524ZM110.081 29.3276C110.192 29.4016 110.266 29.5865 110.34 29.6974C110.229 29.8084 110.155 29.8084 110.081 29.7714C109.97 29.6974 109.896 29.5125 109.822 29.4016C109.933 29.2906 110.007 29.2906 110.081 29.3276ZM110.414 28.588C110.562 28.7729 110.673 28.9578 110.488 29.2167C110.451 29.2167 110.377 29.1797 110.34 29.1427C110.044 28.9578 110.155 28.6249 110.414 28.588ZM110.044 27.0716C110.525 27.5894 109.23 27.8483 109.489 28.514C108.786 28.0332 109.674 27.4045 110.044 27.0716ZM109.193 28.7729C109.119 29.1057 108.86 28.9578 108.712 29.1057C108.601 28.9948 108.638 28.8468 108.491 28.7359C108.675 28.6249 108.934 28.6619 109.193 28.7729ZM107.603 26.1101C107.862 26.258 107.492 26.4429 107.418 26.4799C107.307 26.369 107.455 26.221 107.529 26.0731C107.566 26.0731 107.603 26.1101 107.603 26.1101ZM106.641 27.0716C106.678 27.1086 106.678 27.1086 106.641 27.0716C107.048 27.2935 106.604 27.6634 106.715 27.9223C106.937 28.0332 107.048 27.8113 107.233 27.7373C107.27 27.7373 107.27 27.7743 107.307 27.7743C107.566 27.9223 107.418 28.1442 107.603 28.2921C107.27 28.477 106.715 27.9592 106.346 28.0332C106.383 27.7373 106.309 27.4415 105.939 27.2196C105.902 27.2196 105.902 27.1826 105.865 27.1826C105.976 26.7018 106.53 27.4785 106.641 27.0716ZM104.829 26.6278C104.903 26.7018 104.866 26.7758 104.977 26.8497C104.903 26.9237 104.829 26.8867 104.755 26.9607C104.681 26.8867 104.718 26.8128 104.607 26.7388C104.681 26.6648 104.755 26.7018 104.829 26.6278ZM103.683 28.0702C103.757 28.0702 103.794 28.0702 103.831 28.0702C103.831 28.0702 103.794 28.1072 103.72 28.1072C103.646 28.1072 103.572 28.1442 103.572 28.1072C103.572 28.1072 103.609 28.1072 103.683 28.0702ZM102.647 27.2196C102.721 27.2935 102.684 27.3675 102.795 27.4415C102.721 27.5154 102.647 27.4785 102.573 27.5524C102.499 27.4785 102.536 27.4045 102.425 27.3305C102.499 27.2566 102.573 27.2935 102.647 27.2196ZM102.758 25.2965C102.869 25.4444 103.017 25.6293 102.869 25.8142C102.832 25.8142 102.795 25.7772 102.758 25.7772C102.573 25.6663 102.721 25.5184 102.536 25.4074C102.61 25.3704 102.721 25.4074 102.758 25.2965ZM101.205 26.295C101.316 26.369 101.205 26.5169 101.168 26.6278C101.057 26.5539 100.946 26.5169 100.835 26.4429C100.946 26.332 101.131 26.406 101.205 26.295ZM98.4311 24.7047C98.5051 24.7417 98.5791 24.8157 98.5421 24.8527C98.5051 24.9266 98.4681 24.9636 98.4311 25.0376C98.2462 24.9266 98.0613 24.8527 97.9134 24.7417C97.9504 24.5568 98.2462 24.5938 98.4311 24.7047ZM94.6589 22.3748C94.6958 22.3748 94.6958 22.4118 94.7328 22.4118C94.5849 22.7076 94.6589 22.9665 94.4 23.2624C94.363 23.1514 94.2151 23.0405 94.0301 22.9295C93.9562 22.8926 93.8822 22.8556 93.8452 22.8186C93.9192 22.7446 93.9192 22.6337 93.8452 22.5967C94.0301 22.4118 94.252 22.1529 94.6589 22.3748ZM93.2165 22.1159C93.5124 22.3378 93.2535 22.4857 93.1425 22.4118C93.0686 22.3748 93.0686 22.3008 93.2165 22.1159ZM86.8184 22.5227C86.8924 22.5597 86.9664 22.5967 87.0403 22.6337C87.0033 22.7076 86.9664 22.7446 86.9294 22.8186C86.8554 22.7816 86.7815 22.7446 86.7075 22.7076C86.7445 22.6337 86.7815 22.5597 86.8184 22.5227ZM86.3746 22.9665C86.5595 23.1514 86.2637 23.3733 86.0418 23.2624C86.0048 23.2624 86.0048 23.2254 85.9678 23.1884C86.0418 22.9295 86.3007 23.1514 86.3746 22.9665ZM86.0418 21.5981C86.0788 21.5981 86.1158 21.6351 86.1158 21.6351C86.4116 21.82 86.2267 22.1159 86.0048 22.1529C85.7829 22.0419 85.9308 21.82 86.0418 21.5981ZM85.635 21.5981C85.561 21.7831 85.561 22.3378 85.2282 22.3008C84.9323 22.0419 85.1172 21.6721 85.2282 21.3393C85.3391 21.4502 85.487 21.5242 85.635 21.5981ZM82.3805 19.5271C82.6763 19.712 82.7503 20.1558 82.6393 20.4517C82.3805 20.1188 82.1586 19.786 82.0846 19.4531C82.2325 19.4531 82.3065 19.4901 82.3805 19.5271ZM81.0861 18.5285C81.234 18.7135 81.3449 18.8984 81.16 19.1573C81.16 19.1573 81.16 19.1573 81.123 19.1573C80.8272 18.9354 80.8642 18.5655 81.0861 18.5285ZM78.5712 20.7475C78.8301 20.8955 79.052 21.1913 78.7561 21.3762C78.7561 21.1913 78.6082 21.0434 78.3493 20.8955C78.2753 20.8585 78.2014 20.8215 78.0904 20.7845C78.1644 20.5996 78.3863 20.6366 78.5712 20.7475ZM78.6452 17.8998C79.052 18.1587 78.7191 18.8984 78.978 19.0463C79.015 19.0463 79.015 19.0833 79.052 19.0833C78.978 19.2682 78.904 19.3052 78.8301 19.2312C78.6452 19.1203 78.4233 18.4916 78.2383 18.2697C78.3493 18.0478 78.4972 17.9738 78.6452 17.8998ZM78.4603 19.6011C78.4233 19.675 78.3863 19.712 78.3493 19.675C78.3123 19.638 78.2753 19.6011 78.2753 19.4531C78.3493 19.4161 78.3863 19.4161 78.4233 19.4531C78.4972 19.4901 78.4972 19.5641 78.4603 19.6011ZM74.688 18.6765C74.651 18.6395 74.577 18.6395 74.54 18.6025C74.2442 18.4176 74.1332 18.1957 74.2442 17.9738C74.4661 18.1587 74.9099 18.3436 74.688 18.6765ZM74.3181 17.8628C74.0962 17.6779 73.8004 17.493 73.9853 17.1972C74.2072 17.4191 74.4661 17.604 74.3181 17.8628ZM73.3566 17.53C73.4305 17.604 73.3936 17.6779 73.5045 17.7519C73.4305 17.8259 73.3566 17.7889 73.2826 17.8628C73.2086 17.7889 73.2456 17.7149 73.1347 17.6409C73.2086 17.604 73.3196 17.6409 73.3566 17.53ZM72.7279 16.9383C72.7648 16.9383 72.7648 16.9753 72.8018 16.9753C73.0607 17.1232 72.9128 17.3451 73.0977 17.493C73.0237 17.53 72.9498 17.53 72.8758 17.493C72.6909 17.3821 72.5799 17.0862 72.7279 16.9383ZM70.7678 15.4589C70.8417 15.4959 70.8787 15.4959 70.9527 15.5329C71.2485 15.7178 71.1746 15.9397 71.3595 16.1246C71.2855 16.3465 71.0636 16.1986 70.9897 16.4945C70.8417 16.1986 70.4349 15.9027 70.7678 15.4589ZM68.105 15.6439C68.2899 15.4959 68.5488 15.6439 68.6597 15.7178C68.6597 15.7178 68.8446 15.8288 68.8816 15.8288C68.9186 15.8658 69.1035 15.9397 69.2145 15.9767L69.4364 16.0507L69.4734 16.2726C69.5473 16.5315 69.5473 16.7903 69.5103 17.0492C69.5103 17.1232 69.5103 17.1972 69.5103 17.2711C69.5473 17.2341 69.5473 17.1972 69.5843 17.1602C70.25 17.6779 71.0266 18.2327 70.3979 19.1573C69.9541 18.8244 70.0651 18.3806 69.9541 17.9738C69.9541 17.9738 69.9541 17.9738 69.9171 17.9738C69.7692 17.8998 69.6952 17.9368 69.5473 17.8628L69.6213 18.2327L68.9926 17.8998L68.9556 17.8628C68.3639 17.53 68.4008 17.0492 68.4378 16.7534V16.6794C68.1789 16.5315 68.105 16.3465 68.031 16.2356C67.994 16.1986 67.994 16.1616 67.957 16.1246L67.9201 16.0877V16.0507C67.957 15.8658 68.031 15.7178 68.105 15.6439ZM67.6612 16.4575C67.7351 16.5315 67.6982 16.6054 67.8091 16.6794C67.7351 16.7534 67.6612 16.7164 67.5872 16.7903C67.5132 16.7164 67.5502 16.6424 67.4393 16.5684C67.5132 16.5315 67.5872 16.5684 67.6612 16.4575ZM66.3298 15.8288C66.4407 15.9027 66.5517 15.9397 66.6626 16.0137C66.7366 16.2356 66.5147 16.5315 66.3668 16.7903H66.3298C65.923 16.5315 66.1449 15.9027 66.3298 15.8288ZM60.5974 16.4945C60.4865 16.3835 60.4495 16.2726 60.5234 16.1246C60.6714 16.1986 60.7083 16.3465 60.5974 16.4945ZM60.5604 13.203C60.6344 13.24 60.7083 13.2769 60.7823 13.3139C60.7453 13.3879 60.7083 13.4249 60.6714 13.4988C60.5974 13.4619 60.5234 13.4249 60.4495 13.3879C60.4865 13.3139 60.5234 13.24 60.5604 13.203ZM60.1906 13.5728C60.2276 13.5728 60.2276 13.5728 60.2276 13.6098C60.4125 13.7207 60.4495 13.8687 60.3385 14.0166C60.2276 13.9426 60.1166 13.9057 60.0057 13.8317C60.0796 13.7207 60.1536 13.6468 60.1906 13.5728ZM59.7468 13.9426C59.7838 13.9796 59.8208 14.0166 59.8947 14.0906C59.9317 14.1645 60.0057 14.2385 60.0796 14.2755C60.1536 14.3125 60.2276 14.3495 60.3385 14.3125C60.2646 14.5344 60.5974 14.6823 60.4125 14.9412C60.3755 14.9042 60.3385 14.8672 60.3015 14.8302C60.1906 14.7932 60.1536 14.7932 60.0796 14.8302C60.0057 14.8672 59.9687 14.9042 59.8577 14.8302C59.8208 14.8302 59.8208 14.7933 59.7838 14.7933C59.9317 14.4604 59.7838 14.2015 59.5619 13.9796C59.6358 13.9057 59.7098 13.9057 59.7468 13.9426ZM60.1906 15.7548C60.0796 15.9767 59.9687 16.1616 59.8208 16.3835C59.7838 16.3465 59.7468 16.3096 59.7098 16.3096C59.6358 16.2726 59.5619 16.2726 59.4879 16.2726C59.4139 16.2726 59.377 16.2726 59.266 16.2356C59.266 16.2356 59.229 16.1986 59.192 16.1986C59.34 15.8288 59.192 15.5329 59.229 15.1631C59.4139 15.237 59.5619 15.274 59.7098 15.348C59.8947 15.422 60.0427 15.5329 60.1906 15.7548ZM58.3784 15.1261C58.1935 15.0151 58.0825 14.8672 58.2305 14.7563C58.4154 14.8672 58.6003 14.9412 58.7482 15.0521C58.7482 15.237 58.5633 15.2001 58.3784 15.1261ZM58.6743 13.2769C58.8592 13.4249 58.7482 13.6468 58.9332 13.7947C58.8592 13.8687 58.7852 13.8317 58.7113 13.9057C58.5263 13.7577 58.6373 13.5358 58.4524 13.3879C58.5263 13.3139 58.6373 13.3509 58.6743 13.2769ZM55.9375 14.1276C56.1964 14.2755 56.3074 13.9796 56.5662 13.7947C56.7142 14.0906 56.6032 14.4604 56.5293 14.8302C56.3443 14.7932 56.1964 14.7932 56.0115 14.7563C55.7526 14.4974 55.4937 14.2015 55.6786 13.8687C55.7526 13.9796 55.8636 14.0536 55.9375 14.1276ZM54.6431 12.4633C54.791 12.6482 54.902 12.8331 54.7171 13.092C54.6061 12.8701 54.3103 12.5003 54.6431 12.4633ZM54.1993 12.5373C54.2363 12.5373 54.2363 12.5743 54.2733 12.5743C54.2733 12.8331 54.1623 13.2769 53.9774 13.3509C53.9774 13.3509 53.9404 13.3509 53.9404 13.3139C53.8295 13.24 53.7925 13.129 53.7555 13.055C53.7185 12.9441 53.6816 12.8701 53.6446 12.8331C53.6076 12.7962 53.5336 12.8331 53.4227 12.9071C53.2747 12.5743 53.7925 12.3154 54.1993 12.5373ZM52.9049 14.0166C52.8309 14.0536 52.72 14.0536 52.609 13.9796C52.4241 13.8687 52.2762 13.6098 52.4981 13.4249C52.5351 13.4249 52.5351 13.4619 52.5721 13.4619C52.8679 13.6468 52.683 13.8687 52.9049 14.0166ZM53.5336 11.2429C53.6446 11.3168 53.7555 11.3538 53.8665 11.4278C53.8295 11.5018 53.7925 11.5387 53.7555 11.6127C53.6446 11.5387 53.5336 11.5018 53.4227 11.4278C53.4597 11.3538 53.4966 11.2799 53.5336 11.2429ZM53.1638 11.8346C53.2008 11.8346 53.2008 11.8346 53.2008 11.8716C53.3117 11.9455 53.3117 12.0565 53.4227 12.1305C53.2378 12.3154 53.0898 12.5003 52.757 12.3524C52.757 12.3524 52.757 12.3524 52.72 12.3524C52.646 11.9825 52.9789 11.9825 53.1638 11.8346ZM51.6845 13.7947C51.7215 13.7947 51.7584 13.8317 51.7584 13.8317C51.7954 13.8317 51.8324 13.8687 51.8324 13.8687C51.9433 13.9426 52.0173 13.9796 52.0913 13.9057C52.4241 14.1645 52.3871 14.4974 52.2762 14.8302C51.7954 14.5344 51.7215 14.1276 51.6475 13.7577C51.6475 13.7577 51.6845 13.7577 51.6845 13.7947ZM52.0913 11.5387C52.3132 11.7606 52.4981 12.2414 52.2022 12.3154C52.0543 12.0935 51.8324 11.8716 52.0913 11.5387ZM51.0188 13.8687C50.6489 13.5358 50.6859 13.129 50.6859 12.7592C51.1667 13.0181 51.6105 13.6468 51.0188 13.8687ZM51.1667 10.6881C51.2037 10.6881 51.2037 10.7251 51.2407 10.7251C51.2776 10.7621 51.3516 10.7621 51.3886 10.7991C51.4256 10.8361 51.4995 10.8361 51.5365 10.873C51.7584 11.021 51.9433 11.1689 51.7584 11.3538C51.6845 11.3168 51.6475 11.2799 51.6105 11.2429C51.2776 11.058 51.1297 11.3538 50.8708 11.4278C50.538 11.2429 50.9448 10.7251 51.1667 10.6881ZM48.393 11.8716C48.43 11.8716 48.4669 11.9086 48.5039 11.9086C48.7998 12.0935 48.5039 12.6112 48.282 12.6112C48.245 12.6112 48.245 12.5743 48.2081 12.5743C47.8752 12.3893 48.356 12.0935 48.393 11.8716ZM45.4713 12.0565C45.5822 12.1305 45.6932 12.1674 45.8041 12.2414C45.6932 12.4633 45.5822 12.5743 45.3603 12.4633C45.3234 12.4633 45.3234 12.4263 45.2864 12.4263C45.3234 12.2784 45.3973 12.1674 45.4713 12.0565ZM43.992 11.9086C44.0659 11.9455 44.1399 11.9825 44.2139 12.0195C44.1769 12.0935 44.1399 12.1305 44.1029 12.2044C44.029 12.1674 43.955 12.1305 43.881 12.0935C43.918 12.0195 43.955 11.9825 43.992 11.9086ZM44.0659 10.3183C44.1399 10.3553 44.2139 10.3923 44.2878 10.4292C44.2509 10.5032 44.2139 10.5402 44.1769 10.6142C44.1029 10.5772 44.029 10.5402 43.955 10.5032C43.992 10.4292 44.029 10.3923 44.0659 10.3183ZM43.8071 10.7621C44.1399 10.984 44.1399 11.2429 43.918 11.5387C43.844 11.5018 43.8071 11.5018 43.7701 11.4648C43.4742 11.2799 43.6221 11.021 43.8071 10.7621ZM43.4742 9.24578C43.5112 9.24578 43.5112 9.28276 43.5482 9.28276C43.4742 9.39371 43.4002 9.50466 43.3633 9.61561C43.3633 9.61561 43.3633 9.61561 43.3263 9.61561C43.1783 9.54165 43.1414 9.39371 43.1783 9.28276C43.1783 9.2088 43.2893 9.17181 43.4742 9.24578ZM41.3662 9.91148C41.4771 10.0224 41.5141 10.1334 41.4401 10.2813C41.4032 10.2813 41.4032 10.2813 41.4032 10.2443C41.2922 10.1704 41.2922 10.0594 41.1813 9.98544C41.2182 9.98544 41.2922 9.98544 41.3662 9.91148ZM39.4431 10.0964C39.4061 10.0964 39.4061 10.0594 39.4431 10.0964C39.1102 9.91148 39.2211 9.6526 39.2581 9.4307C39.3691 9.61561 39.554 9.83751 39.4431 10.0964ZM38.2966 8.13629C38.4445 8.21025 38.5924 8.28422 38.7034 8.39517C38.7034 8.69103 38.9623 9.17181 38.6294 9.28276C38.1856 9.02388 38.0747 8.72802 37.6309 8.46914C37.5939 8.43215 37.5199 8.39517 37.4829 8.39517C37.8158 8.02534 38.0377 8.72802 38.2966 8.13629ZM36.9282 9.80053C36.8172 9.83751 36.7433 9.83751 36.7063 9.80053C36.4104 9.6526 36.4104 8.87595 36.4104 8.5431C36.6323 8.94992 36.8172 9.39371 36.9282 9.80053ZM38.0747 7.10076C38.1856 7.35964 38.0747 7.35964 37.9637 7.32266C37.8898 7.24869 37.8158 7.13774 38.0747 7.10076ZM36.5953 7.43361C36.7803 7.54456 36.8542 7.76646 36.7433 7.95137C36.4844 7.80344 36.2255 7.61852 36.3734 7.39663C36.4474 7.35964 36.5214 7.39663 36.5953 7.43361ZM33.6367 7.95137C33.7107 7.98835 33.7846 8.06232 33.8216 8.13629C33.6737 8.5431 33.2669 8.28422 32.934 8.21025C33.045 7.84042 33.4148 7.80344 33.6367 7.95137ZM33.2669 7.10076C33.3778 7.21171 33.3408 7.35964 33.4888 7.47059C33.4518 7.54456 33.3778 7.54456 33.3408 7.50757C33.1929 7.43361 33.1189 7.21171 33.2669 7.10076ZM31.5656 7.76646C31.7136 7.84042 31.8245 8.0993 31.6766 8.21025C31.6396 8.21025 31.6026 8.17327 31.5656 8.17327C31.3807 8.06232 31.5287 7.91439 31.3437 7.80344C31.4177 7.69249 31.4917 7.69249 31.5656 7.76646ZM31.3807 6.73093C31.4917 6.80489 31.6026 6.84188 31.7136 6.91584C31.6396 7.13774 31.4917 7.10076 31.4177 7.21171C31.2328 7.06378 31.2328 6.91584 31.3807 6.73093ZM30.0493 7.58154C29.8274 7.87741 29.7535 8.17327 29.7165 8.43215C29.2727 8.17327 29.6425 7.76646 29.7535 7.39663C29.8274 7.47059 29.9384 7.50757 30.0493 7.58154ZM26.8318 6.80489C26.8688 6.80489 26.8688 6.80489 26.8318 6.80489C27.2386 7.02679 27.1277 7.58154 26.9058 7.65551C26.5359 7.43361 26.6099 6.87886 26.8318 6.80489ZM25.9812 5.84333C26.0552 5.9173 26.0182 5.99127 26.1291 6.06523C26.0552 6.1392 25.9812 6.10222 25.9072 6.17618C25.8333 6.10222 25.8702 6.02825 25.7593 5.95428C25.8702 5.88032 25.9442 5.9173 25.9812 5.84333ZM25.5004 5.2516C25.6114 5.32557 25.6853 5.39954 25.7223 5.54747C25.5004 5.62143 25.3155 5.76937 24.9826 5.58445C25.0196 5.51049 24.9087 5.43652 24.8347 5.36255C25.0196 5.17764 25.3155 5.14065 25.5004 5.2516ZM24.169 5.4735C24.206 5.51049 24.243 5.54747 24.317 5.54747C24.132 5.58445 24.0211 5.84333 23.7622 5.6954C23.7252 5.6954 23.7252 5.65842 23.6882 5.65842C23.6882 5.54747 23.6513 5.43652 23.7252 5.32557C23.8732 5.36255 24.0211 5.36255 24.169 5.4735ZM22.9116 2.88468C23.2075 3.0696 23.2814 3.2915 23.0965 3.55038C23.0595 3.5134 22.9856 3.5134 22.9486 3.47641C22.6897 3.32848 22.7267 3.14357 22.9116 2.88468ZM22.5048 3.7353C22.8376 3.92021 23.1705 4.17909 23.4663 4.36401C23.2075 4.58591 22.8746 4.54892 22.5787 4.36401C22.2089 4.17909 21.913 3.80926 21.7281 3.47641C21.95 3.43943 22.2089 3.55038 22.5048 3.7353ZM20.8775 2.29295C20.9885 2.4039 21.0255 2.88468 20.7296 2.77373C20.6556 2.73675 20.5817 2.69977 20.5077 2.66278C20.5817 2.36692 20.8036 2.51485 20.8775 2.29295ZM17.8449 3.18055C18.0668 3.32848 18.1778 3.58736 17.9189 3.95719C17.697 3.92021 17.4381 3.88323 17.2532 3.77228C17.1052 3.69831 16.9943 3.58736 16.9573 3.40245C17.1792 3.10658 17.586 3.03262 17.8449 3.18055ZM17.4751 1.36838C17.5121 1.36838 17.549 1.40536 17.586 1.40536C17.734 1.47932 17.7709 1.59027 17.8449 1.70122C17.623 1.73821 17.5121 1.99709 17.2162 1.81217C17.1792 1.81217 17.1422 1.77519 17.1052 1.73821C17.1792 1.51631 17.3271 1.44234 17.4751 1.36838ZM15.515 3.03262C15.478 3.03262 15.478 2.99563 15.441 2.99563C15.2191 2.8477 15.2561 2.69977 15.404 2.47787C15.6999 2.69977 15.8108 2.99563 15.515 3.03262ZM10.6702 12.1674C10.4853 12.0565 10.5222 11.8716 10.6702 11.6867C10.7072 11.6867 10.7072 11.7237 10.7441 11.7237C11.003 11.8716 10.8921 12.1305 10.6702 12.1674ZM7.5636 19.3052C7.52661 19.3052 7.52661 19.3052 7.5636 19.3052C7.63756 19.2312 7.7855 19.1942 7.93343 19.3052C7.85946 19.4161 7.71153 19.4161 7.5636 19.3052ZM6.23221 27.1826C6.19522 27.1456 6.15824 27.1086 6.15824 27.0347C6.19522 26.9977 6.23221 26.9977 6.23221 26.9977C6.23221 26.9977 6.26919 27.0347 6.26919 27.0716C6.26919 27.1086 6.30617 27.1456 6.34315 27.1456C6.34315 27.2196 6.26919 27.1826 6.23221 27.1826ZM6.93488 25.4814C7.08282 25.4814 7.19377 25.5184 7.26773 25.5553C7.60058 25.7403 7.63756 26.221 7.5636 26.5539C7.04583 26.258 6.82394 25.8882 6.93488 25.4814ZM4.23512 31.2138C4.16115 31.2138 4.08718 31.2507 4.08718 31.2138C4.08718 31.2138 4.08718 31.1768 4.19813 31.1398C4.2721 31.1398 4.30908 31.1398 4.34607 31.1398C4.34607 31.1768 4.30908 31.1768 4.23512 31.2138ZM5.71444 30.5111C5.67746 30.5111 5.60349 30.4741 5.60349 30.4741C5.52953 30.4371 5.49254 30.3631 5.45556 30.3262C5.41858 30.2892 5.38159 30.2152 5.30763 30.1782C5.30763 30.1782 5.27064 30.1412 5.23366 30.1412C5.30763 30.0303 5.45556 30.0303 5.60349 30.1043C5.75142 30.1782 5.86237 30.3631 5.71444 30.5111ZM5.12271 33.4327C5.08573 33.4327 5.08573 33.3958 5.04875 33.3588C4.9378 33.0629 5.23366 33.0999 5.41858 32.9889C5.67746 33.1739 5.41858 33.6177 5.12271 33.4327ZM4.19813 38.2775C3.93925 38.1296 4.0502 37.9077 4.19813 37.6858C4.23512 37.8707 4.38305 38.0926 4.2721 38.3145C4.2721 38.3145 4.23512 38.2775 4.19813 38.2775ZM3.86529 42.9004C3.49545 42.6785 3.19959 42.1238 3.27356 41.7909C3.6064 42.1977 4.01322 42.5676 4.12417 42.9744C4.01322 42.9744 3.93925 42.9744 3.86529 42.9004ZM5.34461 43.825C5.27064 43.788 5.19668 43.751 5.12271 43.7141C5.15969 43.6401 5.19668 43.6031 5.23366 43.5291C5.30763 43.5661 5.38159 43.6031 5.45556 43.6401C5.38159 43.7141 5.38159 43.751 5.34461 43.825ZM5.30763 45.5632C5.15969 45.4892 5.12271 45.3783 5.04875 45.2673C5.12271 45.1564 5.23366 45.1564 5.30763 45.2304C5.41858 45.3043 5.52953 45.4892 5.41858 45.6002C5.38159 45.6002 5.34461 45.6002 5.30763 45.5632ZM7.04583 45.1564C6.93488 45.0824 6.86092 45.0085 6.82393 44.9345C6.93488 44.7866 7.08282 44.8605 7.30472 44.9715C7.3417 45.0085 7.41567 45.0454 7.45265 45.0824C7.37868 45.2304 7.19377 45.2304 7.04583 45.1564ZM8.41421 43.5661C8.30326 43.5291 8.22929 43.5291 7.97041 43.3812C8.11834 43.3442 8.22929 43.2333 8.34024 43.0114C8.56214 43.2333 8.63611 43.4922 8.59912 43.751C8.52516 43.6401 8.45119 43.5661 8.41421 43.5661ZM8.93197 46.118C8.82102 46.044 8.78404 46.007 8.71007 45.933C8.67309 45.8591 8.59912 45.7851 8.48818 45.7481C8.45119 45.7111 8.41421 45.7111 8.34024 45.6742C8.67309 45.4523 8.82102 45.6002 8.96896 45.3413C9.00594 45.3413 9.00594 45.3783 9.04292 45.3783C9.11689 45.4153 9.15387 45.4892 9.19086 45.5262C9.22784 45.5632 9.26482 45.6372 9.33879 45.6742C9.37577 45.7111 9.41275 45.7111 9.44974 45.7111C9.37577 46.118 9.04292 45.8221 8.93197 46.118ZM9.81957 44.5647C9.89353 44.4537 9.9675 44.3428 10.0045 44.2318C10.0785 44.2688 10.1524 44.3058 10.2264 44.3428C10.1524 44.4537 10.0785 44.5647 10.0415 44.6756C9.9675 44.6386 9.89353 44.6016 9.81957 44.5647ZM10.5222 45.4153C10.3373 45.3043 10.3003 45.1564 10.4113 45.0085C10.4113 45.0085 10.4483 45.0085 10.4483 45.0454C10.6332 45.1564 10.6702 45.3043 10.5592 45.4523L10.5222 45.4153ZM13.9617 45.8591C13.3699 45.5262 13.185 46.2659 12.6303 46.044C12.4824 45.1564 13.8137 45.7111 13.7028 44.8975C13.9617 45.2304 14.4055 45.5632 14.1836 46.007C14.1096 45.933 14.0356 45.8961 13.9617 45.8591ZM14.8493 47.3384C14.6274 47.1905 14.7383 46.9686 14.8863 46.7837C14.9232 46.9686 15.1451 47.2644 14.8493 47.3384ZM15.1451 47.8192C15.0712 47.7822 15.0342 47.6712 15.1451 47.5233L15.1821 47.5603C15.2561 47.5973 15.3301 47.5973 15.404 47.5603C15.7369 47.7822 15.3301 47.9301 15.1451 47.8192ZM17.7709 46.118C17.4751 45.8591 17.7709 45.8221 17.9189 45.6372C18.0298 45.7111 18.1408 45.7481 18.2517 45.8221C18.2147 46.2289 17.8449 45.7851 17.7709 46.118ZM18.2887 46.9686C18.2887 46.9686 18.2517 46.9686 18.2517 46.9316C17.8819 46.7097 17.9928 46.2289 18.3257 46.1549C18.3257 46.1549 18.3257 46.1549 18.3627 46.1549C18.6955 46.4138 18.5106 46.8946 18.2887 46.9686ZM18.3627 48.5588C18.3997 48.3369 18.5846 48.4849 18.7695 48.5588C18.6585 48.6328 18.5476 48.6328 18.3627 48.5588ZM20.9145 49.1876C20.6556 49.0026 20.6186 48.6698 20.9515 48.6328C21.1734 48.7807 21.0624 49.0026 20.9145 49.1876ZM22.9856 49.4834C22.9486 49.4834 22.9486 49.4464 22.9116 49.4095C22.9486 49.3355 22.9856 49.2985 23.0225 49.2245C23.0225 49.2245 23.0595 49.2245 23.0595 49.2615C23.1335 49.2985 23.1705 49.2615 23.1705 49.2245C23.1705 49.2245 23.1705 49.2245 23.2075 49.2245C23.2814 49.2615 23.2814 49.3725 23.2444 49.4464C23.1705 49.4834 23.0595 49.5574 22.9856 49.4834ZM25.9442 50.482C26.0552 50.5929 26.0921 50.7039 26.0182 50.8518C25.9072 50.7408 25.8702 50.6299 25.9442 50.482ZM29.4946 50.1861C29.3836 50.1121 29.2727 50.0752 29.1617 50.0012C29.1987 49.9272 29.2357 49.8902 29.2727 49.8163C29.3836 49.8902 29.4946 49.9272 29.6055 50.0012C29.5686 50.0752 29.5316 50.1121 29.4946 50.1861ZM30.1973 50.6669C30.1233 50.6299 30.0493 50.519 29.9754 50.334C30.1233 50.2971 30.2343 50.2971 30.3082 50.334C30.4192 50.371 30.4192 50.482 30.4192 50.5929C30.3452 50.6669 30.3082 50.7408 30.1973 50.6669ZM32.4163 49.5204C32.6382 49.2985 32.971 49.3725 33.3778 49.5944C33.4518 49.6314 33.5257 49.6683 33.5627 49.7053C33.3408 50.0752 33.1189 50.408 33.1189 50.7409C32.8231 50.334 32.971 49.8902 32.4163 49.5204ZM32.7121 52.1832C32.2313 51.8873 32.4532 51.3326 32.8231 51.1846C32.897 51.5545 33.045 51.8873 32.897 52.2941C32.8601 52.2572 32.7861 52.2202 32.7121 52.1832ZM33.3408 52.7749C33.2669 52.7379 33.1929 52.701 33.1189 52.664C33.1559 52.59 33.1929 52.553 33.2299 52.4791C33.3038 52.516 33.3778 52.553 33.4518 52.59C33.4148 52.664 33.3778 52.701 33.3408 52.7749ZM34.1914 50.5559C34.4133 50.2971 34.4503 50.0382 34.4873 49.7793C34.6722 49.7423 34.8202 49.7793 34.8941 49.8163C35.116 49.9272 35.153 50.2231 35.153 50.519C34.9681 50.8518 34.5983 50.7778 34.1914 50.5559ZM37.372 52.553C37.298 52.516 37.261 52.4791 37.1871 52.4051C37.5569 52.1092 37.7788 51.4435 38.2226 51.3696C38.2596 51.3696 38.2596 51.4065 38.2966 51.4065C38.6294 51.5915 38.2966 51.8873 38.5185 52.1092C37.9637 51.8873 37.9267 52.8859 37.372 52.553ZM38.9993 51.2586C39.2212 51.3696 39.4061 51.5175 39.628 51.6284C39.554 51.7394 39.48 51.8503 39.591 51.9613C39.517 52.0353 39.4431 52.0353 39.3321 51.9983C39.1102 51.8134 38.9253 51.4435 38.9993 51.2586ZM39.1102 52.701C39.1102 52.701 39.0732 52.701 39.0732 52.664C39.0732 52.664 39.0362 52.664 39.0362 52.627C38.9993 52.59 38.9623 52.59 38.9253 52.59C38.9993 52.4791 39.0732 52.3681 38.9623 52.2572C39.0362 52.2202 39.0732 52.2202 39.1472 52.2202C39.2211 52.2572 39.2211 52.3681 39.2581 52.4791C39.2951 52.59 39.3321 52.701 39.4061 52.7379C39.3321 52.8119 39.2211 52.7749 39.1102 52.701ZM40.3676 52.2572C40.2567 52.1832 40.1457 52.0353 40.2937 51.8873C40.3306 51.8873 40.3676 51.9243 40.4046 51.9243C40.5525 51.9983 40.5895 52.1092 40.6635 52.2202C40.6265 52.3311 40.4786 52.3311 40.3676 52.2572ZM40.6265 53.8104C41.0703 54.1433 40.7005 54.1433 40.5895 54.5871C40.5156 54.3652 40.1457 53.9214 40.6265 53.8104ZM41.4032 52.8119C41.3662 52.8119 41.3662 52.7749 41.3662 52.701C41.4032 52.664 41.4771 52.664 41.5141 52.701C41.5511 52.7379 41.5881 52.7749 41.5881 52.8489C41.5141 52.8489 41.4401 52.8489 41.4032 52.8119ZM44.2509 53.2927C44.1769 53.2557 44.1029 53.1817 44.0659 53.1078C44.1769 52.9598 44.3248 53.0338 44.5467 53.1448C44.5837 53.1817 44.6577 53.2187 44.6947 53.2557C44.6207 53.4406 44.4358 53.4036 44.2509 53.2927ZM47.0246 56.1034C46.9506 56.1034 46.8767 56.1404 46.8767 56.1404C46.8767 56.1404 46.9136 56.1404 47.0246 56.1034C47.1355 56.1034 47.1725 56.0664 47.1725 56.0664C47.1725 56.0664 47.0986 56.1034 47.0246 56.1034ZM47.3944 55.8075C47.3944 55.8075 47.3574 55.7706 47.3574 55.7336C47.3574 55.6966 47.3205 55.6596 47.2835 55.6596C47.3205 55.6226 47.3944 55.6226 47.4314 55.6596C47.4684 55.6966 47.5054 55.7336 47.5054 55.8075C47.4314 55.8075 47.4314 55.8445 47.3944 55.8075ZM48.0971 54.9939C48.208 54.9199 48.282 54.9199 48.319 54.9569C48.393 54.9939 48.4669 55.1418 48.5409 55.2898C48.6149 55.4377 48.6888 55.5856 48.8368 55.6596C48.8368 55.6596 48.8368 55.6596 48.8737 55.6596C48.7258 55.7705 48.6149 55.7336 48.5039 55.6966C48.2081 55.5117 48.0601 55.1418 48.0971 54.9939ZM48.1711 57.2499C48.1341 57.2499 48.0971 57.2129 48.0601 57.2129C47.9122 57.1389 47.8752 57.028 47.8012 56.917C47.9492 56.8431 48.0971 56.7321 48.356 56.88C48.356 56.88 48.393 56.88 48.393 56.917C48.319 57.028 48.245 57.1389 48.1711 57.2499ZM48.7628 56.991C48.7628 56.991 48.7258 56.991 48.7628 56.991C48.4669 56.8061 48.5779 56.5472 48.7628 56.5102C48.9107 56.6581 48.9107 56.8061 48.7628 56.991ZM50.9818 54.2542C50.8708 54.1803 50.7969 54.1063 50.9078 53.9954C50.9448 53.9584 51.0188 53.9584 51.0927 53.9954C51.1667 54.0323 51.2407 54.1063 51.2407 54.1803C51.2037 54.3282 51.0558 54.3282 50.9818 54.2542ZM50.9448 56.1404C51.3886 56.4362 51.4996 56.7691 51.3146 57.1759C51.0558 56.88 50.9078 56.5102 50.9448 56.1404ZM52.9049 57.6197C52.609 57.3608 52.9049 57.3238 53.0528 57.1389C53.1638 57.3238 53.1268 57.5827 52.9049 57.6197ZM54.1623 55.6966C54.0884 55.6596 54.0144 55.6226 53.9404 55.5856C53.9774 55.5117 54.0144 55.4747 54.0514 55.4007C54.1254 55.4377 54.1993 55.4747 54.2733 55.5117C54.2363 55.5487 54.1993 55.6226 54.1623 55.6966ZM55.4567 56.5472C55.3458 56.4732 55.2348 56.4363 55.1239 56.3623C55.1609 56.2883 55.1979 56.2513 55.2348 56.1774C55.3458 56.2513 55.4567 56.2883 55.5677 56.3623C55.5307 56.4363 55.4937 56.5102 55.4567 56.5472ZM56.3074 57.3978C56.1224 57.2869 56.0115 57.065 56.2334 56.88C56.4183 56.991 56.6032 57.065 56.7512 57.1759C56.7512 57.4718 56.4923 57.5088 56.3074 57.3978ZM58.5633 57.7676C58.1195 57.3238 58.3784 56.7321 57.8606 56.3253C58.0456 56.2144 58.3044 56.2513 58.6373 56.3993C58.6373 56.3993 58.6373 56.3993 58.6743 56.3993C58.6743 56.8061 58.6373 57.1759 59.0071 57.5088C58.8592 57.6197 58.7113 57.6567 58.5633 57.7676ZM60.1536 59.7647C60.0796 59.7647 60.0057 59.8017 60.0057 59.7647C60.0057 59.7647 60.0057 59.7277 60.1166 59.6908C60.1906 59.6908 60.2276 59.6908 60.2646 59.6908C60.2646 59.7277 60.2276 59.7277 60.1536 59.7647ZM61.1891 57.8786C61.0782 57.5457 61.411 57.3608 61.6329 57.3238C61.7809 57.5457 61.8548 57.7676 61.9658 57.9895C61.8178 58.2484 61.485 57.9895 61.1891 57.8786ZM60.8193 59.9866C60.7453 59.9496 60.6714 59.8757 60.6344 59.8017C60.7084 59.6908 60.8193 59.6908 60.9302 59.7647C61.0042 59.8017 61.0782 59.8757 61.1152 59.9496C61.0412 60.0236 60.9302 60.0236 60.8193 59.9866ZM63.2232 60.6893C63.1492 60.6523 63.0753 60.6153 63.0013 60.5784C63.0383 60.5044 63.0753 60.4674 63.1123 60.3934C63.1862 60.4304 63.2602 60.4674 63.3342 60.5044C63.2972 60.5784 63.2602 60.6153 63.2232 60.6893ZM66.2558 61.5029C65.9969 60.8742 65.2573 60.3565 65.3312 59.6908C65.7381 59.9496 65.6641 60.2455 65.812 60.5414C65.849 60.5784 65.886 60.5784 65.886 60.6153C66.1079 60.7263 66.1819 60.4674 66.3668 60.5414C66.8106 60.9112 66.5517 61.1331 66.2558 61.5029ZM67.1804 61.6879C66.9585 61.5769 66.8106 61.355 66.9955 61.2071C67.0325 61.2441 67.1064 61.2441 67.1434 61.281C67.1804 61.318 67.2544 61.318 67.2913 61.355C67.4763 61.466 67.6242 61.5769 67.6612 61.6879C67.5872 61.8358 67.3653 61.7988 67.1804 61.6879ZM68.5118 59.284C68.5488 59.247 68.5858 59.247 68.5858 59.247C68.5858 59.247 68.6227 59.284 68.6227 59.3209C68.6227 59.3579 68.6597 59.3949 68.6967 59.3949C68.6597 59.4319 68.5858 59.4319 68.5488 59.3949C68.5118 59.3949 68.4748 59.3579 68.5118 59.284ZM69.3624 61.429C69.2884 61.392 69.2884 61.318 69.4364 61.1331C69.7322 61.318 69.4734 61.466 69.3624 61.429ZM70.5828 61.0961C70.4719 61.0222 70.3609 60.9852 70.25 60.9112C70.287 60.8372 70.324 60.8003 70.3609 60.7263C70.4719 60.8003 70.5828 60.8372 70.6938 60.9112C70.6568 60.9482 70.6198 61.0222 70.5828 61.0961ZM71.3225 61.7248C71.2485 61.6879 71.1746 61.6509 71.1006 61.6139C71.1376 61.5399 71.1746 61.5029 71.2116 61.429C71.2855 61.466 71.3595 61.5029 71.4335 61.5399C71.3965 61.6139 71.3595 61.6879 71.3225 61.7248ZM72.2841 60.9852C72.2471 60.9852 72.2471 60.9482 72.2471 60.8742C72.2841 60.8372 72.358 60.8372 72.395 60.8742C72.432 60.9112 72.469 60.9482 72.469 61.0222C72.395 60.9852 72.3211 60.9852 72.2841 60.9852ZM74.577 61.1701C74.3181 61.0222 74.4291 60.8003 74.54 60.5784C74.54 60.5784 74.54 60.5784 74.577 60.5784C74.8359 60.7263 74.725 60.9482 74.577 61.1701ZM75.0578 62.8343C75.5756 62.2796 75.2427 61.8728 75.6495 61.318C75.8344 61.6879 75.7975 62.0947 75.9824 62.4275C75.6495 62.5754 75.4276 62.8713 75.0578 62.8343ZM76.2043 63.5C76.1303 63.463 76.0563 63.4261 75.9824 63.3891C76.0563 63.2781 76.1303 63.1672 76.1673 63.0562C76.2413 63.0932 76.3152 63.1302 76.3892 63.1672C76.3522 63.2781 76.2782 63.3891 76.2043 63.5ZM76.6851 61.466C76.759 61.355 76.87 61.355 76.9809 61.429C77.0919 61.5029 77.2028 61.6509 77.0549 61.7988C77.0179 61.7988 76.9809 61.7618 76.9439 61.7618C76.796 61.6509 76.796 61.5399 76.6851 61.466ZM76.2043 63.7589C76.2782 63.7589 76.3152 63.7589 76.3892 63.7959C76.5371 63.9068 76.6481 64.1287 76.6111 64.3137C76.4632 64.1287 76.0194 63.9808 76.2043 63.7589ZM78.3493 63.463C78.4603 63.537 78.5712 63.574 78.6822 63.648C78.6822 63.8699 78.6821 64.0548 78.6082 64.2767C78.3123 64.0548 78.2753 63.7589 78.3493 63.463ZM79.6067 64.9054C79.5697 64.9054 79.5328 64.8684 79.4958 64.8684C79.3478 64.7944 79.3109 64.6835 79.2369 64.5725C79.3848 64.4986 79.5328 64.3876 79.7916 64.5356C79.7916 64.5356 79.8286 64.5356 79.8286 64.5725C79.7547 64.6835 79.6807 64.7944 79.6067 64.9054ZM80.7902 62.8713C80.6792 62.7973 80.8272 62.6494 80.6792 62.5755C80.7532 62.5385 80.7902 62.5385 80.8642 62.5385C80.9751 62.6494 81.0121 62.9083 80.7902 62.8713ZM86.4486 66.9764C86.4116 66.9395 86.3377 66.9395 86.3007 66.9025C85.7459 66.5696 86.0048 66.1258 85.7459 65.756C85.8569 65.6451 85.9678 65.6451 86.1527 65.756C86.1897 65.793 86.2267 65.793 86.2637 65.83C86.3746 66.0519 85.9678 66.3477 86.2637 66.5326C86.4486 66.6436 86.4856 66.2738 86.6705 66.3107C86.9664 66.6436 86.7815 66.8655 86.4486 66.9764ZM86.8184 64.6095C87.2992 64.9054 87.2992 65.5341 87.0403 65.682C86.5965 65.3862 86.8184 64.9794 86.8184 64.6095ZM91.1085 68.6037C91.0345 68.5297 91.0715 68.4558 90.9605 68.3818C91.0345 68.3078 91.1085 68.3448 91.1824 68.2709C91.2564 68.3448 91.2194 68.4188 91.3304 68.4928C91.2564 68.5667 91.1455 68.5297 91.1085 68.6037ZM92.8837 65.5711C93.2165 65.756 92.9576 66.0149 92.8837 66.2738C92.8467 66.2738 92.8097 66.2368 92.8097 66.2368C92.5138 66.0519 92.7357 65.793 92.8837 65.5711ZM91.9221 67.938C91.9591 67.864 91.9961 67.8271 92.0331 67.7531C92.07 67.7531 92.07 67.7901 92.107 67.7901C92.255 67.864 92.144 68.012 92.107 68.1599C91.9961 68.049 92.0331 67.975 91.9221 67.938ZM94.5479 67.5682C94.5479 67.5682 94.5109 67.5682 94.5479 67.5682C94.5849 67.4942 94.6219 67.4572 94.6589 67.3833C94.6958 67.3833 94.6958 67.4202 94.7328 67.4202C94.8808 67.4942 94.7698 67.6421 94.7328 67.7901C94.6219 67.7161 94.6219 67.6052 94.5479 67.5682ZM96.1012 68.012C96.0642 68.012 96.0642 67.975 96.0272 67.975C95.7314 67.7901 95.9163 67.5312 95.7683 67.3463C95.8423 67.3093 95.9533 67.3463 96.0272 67.3833C96.2491 67.4942 96.3601 67.827 96.1012 68.012ZM97.2477 67.975C97.5066 67.827 97.8024 67.7161 98.0243 67.3833C98.0613 67.3833 98.0983 67.4202 98.1353 67.4202C98.3572 67.5312 98.0983 67.6421 97.9873 67.6791C98.0243 68.2708 98.1353 68.5297 97.5805 69.0845C97.4696 68.7146 97.5805 68.3078 97.2477 67.975ZM97.3586 69.4173C97.2847 69.3803 97.2847 69.3064 97.4326 69.1215C97.7285 69.3434 97.4696 69.4543 97.3586 69.4173ZM98.9119 68.4558C98.5051 68.1969 98.653 67.827 98.801 67.4572C98.838 67.4572 98.838 67.4942 98.8749 67.4942C99.3187 67.7531 99.2078 68.3448 98.9119 68.4558ZM100.65 69.1215C100.613 69.1215 100.576 69.1215 100.539 69.0845C100.354 68.9735 100.428 68.5297 100.428 68.5297C100.354 68.4927 100.206 68.6037 100.243 68.6407C100.169 68.3078 100.243 68.3078 100.28 67.827C100.391 67.7531 100.428 67.7161 100.502 67.7531C100.576 67.7901 100.613 67.901 100.761 67.975C100.872 67.975 100.983 67.864 101.131 67.938C101.131 67.938 101.168 67.938 101.168 67.975C100.761 68.4188 101.205 68.9365 100.65 69.1215ZM99.4667 69.4913C99.5776 69.3434 99.7625 69.4173 99.9474 69.5283C99.9844 69.5653 100.021 69.5653 100.058 69.6022C100.095 69.6392 100.132 69.6392 100.169 69.6762C99.9105 70.083 100.354 70.3789 100.095 70.7857C99.6886 70.3789 99.6516 69.9351 99.4667 69.4913ZM100.872 71.0816C100.872 71.0816 100.835 71.0446 100.835 71.0076C100.835 70.9706 100.798 70.9336 100.761 70.9336C100.798 70.8967 100.872 70.8967 100.909 70.9336C100.946 70.9706 100.983 71.0076 100.983 71.0816C100.909 71.0816 100.909 71.0816 100.872 71.0816ZM102.943 70.4159C102.906 70.3789 102.832 70.3419 102.795 70.231C103.054 70.2679 103.165 69.9721 103.498 70.157C103.498 70.157 103.535 70.157 103.535 70.194C103.387 70.2679 103.128 70.5268 102.943 70.4159ZM103.683 71.3404C103.128 71.0076 103.387 70.7857 103.683 70.4159C104.127 70.6748 103.868 71.0446 103.794 71.4144C103.794 71.3774 103.72 71.3774 103.683 71.3404ZM105.495 71.9322C105.421 71.9322 105.384 71.8952 105.347 71.8582C105.125 71.7473 105.199 71.5623 105.051 71.4514C105.236 71.1925 105.421 70.9706 105.791 71.1555C105.828 71.1555 105.865 71.1925 105.865 71.2295C105.458 71.2295 105.606 71.5623 105.495 71.9322ZM107.677 70.8227C107.603 70.7487 107.566 70.8227 107.529 70.8597C107.455 70.8227 107.381 70.7857 107.307 70.7487C107.381 70.6748 107.307 70.6378 107.27 70.6008C107.307 70.5268 107.344 70.4898 107.381 70.4159C107.381 70.4159 107.418 70.4159 107.418 70.4529C107.492 70.4898 107.529 70.4529 107.529 70.4159C107.603 70.4529 107.677 70.4898 107.751 70.5268C107.677 70.6008 107.751 70.6378 107.788 70.6748C107.751 70.7117 107.714 70.7857 107.677 70.8227ZM110.266 71.6363L110.229 71.5993C110.303 71.4884 110.377 71.3774 110.414 71.2665C110.451 71.3035 110.488 71.3035 110.525 71.3404C110.747 71.4514 110.82 71.5993 110.673 71.7842C110.562 71.7473 110.414 71.7103 110.266 71.6363ZM111.153 70.4159C111.227 70.3789 111.264 70.3789 111.301 70.4159C111.338 70.4529 111.338 70.5268 111.301 70.5638C111.264 70.6378 111.227 70.6748 111.19 70.6378C111.19 70.6008 111.153 70.5268 111.153 70.4159ZM110.488 73.2636C110.488 73.2636 110.451 73.2636 110.488 73.2636C110.118 73.0417 110.303 72.5979 110.488 72.5609C110.673 72.7828 110.71 73.0047 110.488 73.2636ZM111.782 71.7842C111.745 71.7473 111.708 71.7103 111.708 71.6363C111.745 71.5993 111.782 71.5993 111.782 71.5993C111.782 71.5993 111.819 71.6363 111.819 71.6733C111.819 71.7103 111.856 71.7473 111.893 71.7473C111.893 71.8212 111.819 71.8212 111.782 71.7842ZM112.411 71.9322C112.707 72.1541 112.781 72.376 112.67 72.6718C112.411 72.4499 112.115 72.228 112.411 71.9322ZM113.002 72.0801C112.485 71.7842 112.078 71.3774 112.041 70.8967C112.115 70.8967 112.226 70.8967 112.3 70.9706C112.448 71.0446 112.559 71.2295 112.448 71.3774C112.633 71.3774 112.892 71.4144 113.076 71.5254C113.187 71.5993 113.298 71.7103 113.298 71.8952C113.557 71.7473 113.853 71.7842 114.075 71.9322C114.371 72.0801 114.593 72.376 114.667 72.6718C114.223 72.5979 113.557 72.376 113.002 72.0801ZM113.298 71.0446C113.335 70.9706 113.409 70.8597 113.446 70.7857C113.483 70.7857 113.52 70.7857 113.557 70.8227C113.668 70.8597 113.668 70.9706 113.594 71.0446C113.557 71.1186 113.446 71.1555 113.372 71.1185C113.372 71.1185 113.335 71.0816 113.298 71.0446ZM115.702 71.1555C115.628 71.1925 115.517 71.1925 115.406 71.1925C115.221 71.4144 115.221 71.5993 114.926 71.8952C114.778 71.8212 114.63 71.7473 114.519 71.6363C114.408 71.3774 114.704 71.4144 114.889 71.2665C114.926 71.1925 114.926 71.1555 114.926 71.0816L113.076 70.6748C112.67 70.6008 112.041 70.4529 111.634 70.3789L110.968 70.2679C110.82 70.4898 110.636 70.5638 110.451 70.6748C110.414 70.6378 110.377 70.6378 110.34 70.6008C109.97 70.3789 110.118 70.2679 109.896 70.046L109.267 69.9351C108.86 69.8611 108.232 69.7132 107.825 69.6022L107.566 69.5283C107.603 69.6022 107.603 69.6762 107.603 69.7502C107.381 70.0091 107.085 69.9351 106.789 69.9721C106.678 70.083 106.641 70.4898 106.419 70.3419C106.383 70.3419 106.346 70.3049 106.346 70.2679C106.493 69.8611 106.604 69.5283 106.752 69.2324L105.606 68.8996C105.199 68.7886 104.57 68.6037 104.201 68.4928L101.908 67.901C101.501 67.7901 100.872 67.6051 100.465 67.4942L98.2092 66.8285C97.8764 66.7176 97.3956 66.6066 97.0258 66.4957C96.9888 66.6436 96.9518 66.7545 96.9148 66.9025C96.7669 66.9025 96.6559 66.8655 96.582 66.7915C96.3971 66.6806 96.3231 66.4957 96.2491 66.2738L94.4739 65.83C94.0671 65.719 93.4384 65.5711 93.0316 65.4601L90.7386 64.8314C90.6277 64.7944 90.4798 64.7575 90.2948 64.7205C90.2948 64.9054 90.2579 65.0533 90.3688 65.2382C90.3318 65.2382 90.2579 65.2382 90.2209 65.2012C90.073 65.1273 89.962 64.8684 89.962 64.6465C89.7031 64.5725 89.4812 64.5356 89.2963 64.4616L87.0033 63.8699C86.5965 63.7589 85.9678 63.574 85.598 63.4261L83.379 62.5755C83.0092 62.4275 82.3435 62.2426 81.9736 62.2056L79.6067 61.8358C79.1999 61.7618 78.5712 61.5769 78.2014 61.429L75.9824 60.4304C75.7235 60.3195 75.3167 60.1715 74.9469 60.1346C74.9469 60.2085 74.9469 60.2825 74.9838 60.3565H74.9469C74.8359 60.2825 74.725 60.2085 74.651 60.1346C74.614 60.1346 74.577 60.1346 74.577 60.1346L73.3566 60.0236C73.3566 60.0236 73.3566 60.0236 73.3566 59.9866L73.0977 59.9496C73.1717 59.9866 73.2456 60.0236 73.2826 60.0606C73.0607 60.2455 73.2826 60.3565 73.1347 60.5414C73.0237 60.5784 72.8758 60.5044 72.7279 60.4304C72.5799 60.3565 72.432 60.2085 72.395 60.1346C72.432 60.0606 72.506 59.9866 72.5429 59.8757L72.1361 59.8387C71.7293 59.8017 71.1006 59.6538 70.6938 59.5428L70.4349 59.4689C70.324 59.7277 70.5089 60.0606 69.9911 59.9127C70.176 59.7277 70.139 59.5428 70.139 59.3949L68.4378 58.8402C68.068 58.7292 67.4023 58.5443 66.9955 58.4703L64.6655 58.0265C64.2587 57.9526 63.63 57.8046 63.2232 57.6567L61.9288 57.2869C61.9288 57.3238 61.8918 57.3238 61.8918 57.3608C61.8178 57.3238 61.7439 57.2869 61.6699 57.2499L60.9302 57.028C60.5234 56.917 59.9317 56.6951 59.5249 56.5472L57.3059 55.6226C56.9361 55.4747 56.3074 55.2528 55.9005 55.1418L53.6076 54.5131C53.2008 54.4022 52.5721 54.2542 52.1652 54.1803L51.7954 54.1063C51.8324 54.1433 51.8694 54.1433 51.9064 54.1803C51.6475 54.4392 51.7954 54.6241 51.8324 54.809C52.0173 54.883 52.2022 54.809 52.3132 54.883C52.3502 54.9199 52.3871 54.9569 52.4241 55.0309C52.2392 55.2158 51.9803 55.1418 51.6475 54.9569C51.5735 54.9199 51.4995 54.846 51.4256 54.809C51.5365 54.5501 51.3146 54.3282 51.5735 54.0693L50.427 53.8474C50.2051 53.9954 50.0572 53.9954 49.8723 53.8844C49.7983 53.8474 49.7244 53.7735 49.6134 53.6995C49.2066 53.6255 48.7258 53.5516 48.393 53.4776L46.026 53.1078C45.6192 53.0338 44.9905 52.8489 44.6207 52.664L42.4387 51.6284C42.0689 51.4435 41.4401 51.2216 41.0703 51.1107L38.7774 50.519C38.3705 50.408 37.7418 50.2601 37.335 50.1861L35.0051 49.7793C34.5983 49.7053 33.9695 49.5574 33.5627 49.4464L31.2698 48.8547C30.863 48.7438 30.2343 48.5958 29.8274 48.5219L27.4975 48.0411C27.1647 47.9671 26.7209 47.8562 26.314 47.7082C26.314 47.8192 26.2031 47.9671 26.2031 48.0781C26.2771 48.4849 26.462 49.0396 26.0552 49.2985C26.0182 48.8177 25.6483 48.4109 25.3895 48.0041C25.5744 47.8192 25.9072 47.9671 26.0552 47.6712H26.0182L24.132 46.9686C24.4649 47.3014 24.6868 47.6343 24.4649 47.9671C24.3539 47.8562 24.243 47.7452 24.0951 47.6712C23.9101 47.5603 23.7252 47.5603 23.6143 47.7452C23.4663 47.3384 23.1705 46.9316 22.8006 46.5618C22.6527 46.5248 22.5048 46.4878 22.3938 46.4508L20.0639 45.933C19.6571 45.8591 19.0284 45.7111 18.6216 45.6002L16.3286 45.0454C15.9218 44.9345 15.2931 44.7496 14.9232 44.6016L12.7043 43.751C12.3344 43.6031 11.6687 43.4552 11.2619 43.4182L8.85801 43.1223C8.52516 43.0853 7.97041 42.9374 7.60058 42.7895C7.60058 42.8265 7.5636 42.8265 7.5636 42.8634C7.48963 43.0853 8.04438 43.1963 7.7855 43.4552C7.67455 43.4552 7.5636 43.4182 7.45265 43.3442C7.1198 43.1593 6.8979 42.7525 6.8979 42.4566L5.52953 41.8279C5.49254 41.8279 5.49254 41.7909 5.45556 41.7909C5.12271 41.606 4.9378 41.1622 5.04875 40.7924L5.64048 38.7583C5.75142 38.3515 5.89936 37.7228 5.97332 37.316L6.38014 34.986C6.41712 34.8381 6.4541 34.6532 6.49109 34.4683C6.4541 34.4313 6.38014 34.3943 6.34315 34.3573C6.38014 34.2834 6.41712 34.2464 6.4541 34.1724C6.49109 34.2094 6.52807 34.2094 6.56505 34.2464C6.60204 33.9875 6.63902 33.7286 6.676 33.5437L6.82393 32.767C6.56505 32.9889 6.26919 33.0629 5.89936 32.952C6.12126 32.6931 6.08427 32.4342 5.89936 32.2493C6.04729 32.1383 6.41712 32.2123 6.676 32.3602C6.74997 32.3972 6.82394 32.4712 6.86092 32.5082L7.08282 31.1028C7.15678 30.733 7.30472 30.1412 7.45265 29.7714C7.37868 29.6974 7.30472 29.6235 7.23075 29.5495C7.26773 29.4755 7.3417 29.3646 7.37868 29.2906C7.45265 29.2906 7.52661 29.3276 7.60058 29.3646C7.60058 29.3646 7.60058 29.3646 7.63756 29.3646L7.7855 28.9948C7.71153 29.0318 7.60058 29.0318 7.45265 28.9578C7.48963 28.7729 7.67455 28.8468 7.82248 28.9578L8.45119 27.5154C8.59912 27.1456 8.78404 26.5169 8.85801 26.1101L9.07991 24.8157C8.93197 24.8527 8.74706 24.8157 8.59912 24.7417C8.59912 24.7417 8.56214 24.7417 8.56214 24.7047C8.63611 24.5938 8.71007 24.4828 8.74706 24.3719C8.78404 24.4089 8.82102 24.4089 8.85801 24.4458C8.96896 24.5198 9.04292 24.5568 9.11689 24.4828L9.22784 23.7801C9.3018 23.3733 9.44974 22.7446 9.63465 22.3748L10.5222 20.1558C10.6702 19.786 10.8551 19.1573 10.9291 18.7504L11.2989 16.3835C11.3729 15.9767 11.5208 15.348 11.6687 14.9782L12.2974 13.3509C12.2605 13.2769 12.1865 13.203 12.0755 13.129C12.1125 12.8331 12.3714 12.9811 12.4454 12.7592C12.4454 12.7962 12.4824 12.8701 12.4824 12.9441L12.5563 12.7962C12.7043 12.4263 12.8892 11.7606 12.9631 11.3908L13.4069 9.06087C13.4809 8.65405 13.6658 8.02534 13.7768 7.61852L14.4425 5.51049C14.5534 5.14065 14.9972 4.91876 15.367 5.02971L17.4381 5.58445C17.734 5.65842 18.1408 5.80635 18.5106 5.88032L18.5476 5.84333C18.5846 5.88032 18.6216 5.9173 18.6216 5.9173C18.6955 5.95428 18.7695 5.95428 18.8435 5.99127L21.1364 6.54601C21.1734 6.54601 21.2104 6.583 21.2843 6.583C21.0255 6.47205 20.7666 6.3611 20.5077 6.28713C20.2118 6.17618 19.879 6.06523 19.5831 5.88032C19.3982 5.76937 19.2133 5.62144 19.0284 5.43652C19.2133 4.99272 19.4722 5.06669 19.768 5.21462C19.842 5.2516 19.879 5.28859 19.9529 5.32557C20.0269 5.36255 20.0639 5.39954 20.1379 5.43652C20.3228 5.54747 20.5447 5.62144 20.7296 5.58445C20.6926 5.80635 21.2474 5.9173 20.9515 6.17618C21.3953 6.28713 21.6912 6.06523 21.987 5.84333C22.098 6.1392 22.024 6.43506 22.061 6.73093C22.2459 6.76791 22.3938 6.80489 22.5418 6.84188L24.8717 7.32266C25.2785 7.39663 25.9072 7.58154 26.314 7.69249L28.607 8.35819C29.0138 8.46914 29.6425 8.65405 30.0493 8.72802L30.5671 8.83897C30.6041 8.80198 30.6411 8.80198 30.715 8.765C30.752 8.80198 30.789 8.83897 30.789 8.87595L32.3423 9.24578C32.5272 9.28276 32.7491 9.35673 33.008 9.39371C33.008 9.35673 33.045 9.31975 33.045 9.31975C33.1189 9.35673 33.1929 9.39371 33.2669 9.4307C33.2669 9.4307 33.2669 9.4307 33.2669 9.46768C33.4518 9.50466 33.6367 9.54165 33.7846 9.57863L36.0776 10.1334C36.4844 10.2443 37.1131 10.3923 37.5199 10.5032L39.48 11.021C39.4431 11.021 39.4061 10.984 39.3691 10.984C39.2581 10.91 39.1842 10.8361 39.1472 10.7251C39.2211 10.6142 39.2951 10.5032 39.3321 10.3923C39.6649 10.6511 40.2197 10.873 40.1087 11.2429C40.4786 11.3538 40.9224 11.5018 41.2182 11.6127L43.4372 12.5373C43.8071 12.6852 44.4358 12.8701 44.8426 12.9441L47.1725 13.3509C47.2835 13.3879 47.4314 13.3879 47.5793 13.4249C47.4684 13.203 47.6903 12.9071 47.8752 12.8701C47.8752 12.8701 47.9122 12.8701 47.9122 12.9071C48.208 13.092 48.1711 13.4249 47.9862 13.5728C48.2081 13.6468 48.43 13.7207 48.6149 13.7577L50.8708 14.5714C51.2407 14.7193 51.9064 14.8302 52.3132 14.8672L54.0144 14.9782C54.0884 14.9782 54.1254 14.9782 54.1623 14.9782L54.7171 15.0151C54.865 15.0151 55.0869 15.0521 55.2718 15.0891C55.3088 14.8302 55.1979 14.6083 55.4567 14.5344C56.1964 14.9782 56.3074 15.237 57.158 15.7548V15.7918L58.3414 16.3096C58.4894 16.3835 58.6743 16.4575 58.8962 16.4945C58.9332 16.4205 59.0071 16.3465 59.1181 16.3096H59.1551C59.34 16.4205 59.4139 16.5315 59.5249 16.6794C59.6358 16.7164 59.7098 16.7164 59.7838 16.7534L62.1137 17.1972C62.5205 17.2711 63.1492 17.4191 63.556 17.53L65.1093 17.9368C65.1093 17.8259 65.1093 17.7519 65.2573 17.604C65.4422 17.6409 65.5901 17.7149 65.7011 17.7519C65.886 17.8628 65.9969 18.0108 66.0339 18.1587C66.2558 18.2327 66.5517 18.3066 66.8106 18.3806C66.5887 18.2327 66.6996 18.0108 66.8475 17.8259C67.0325 18.0108 66.9955 18.1957 66.9215 18.4176C67.0695 18.4546 67.1804 18.4916 67.2913 18.5285L69.5473 19.1942C69.6583 19.2312 69.7692 19.2682 69.9171 19.3052C69.9541 19.2682 69.9541 19.2312 69.9911 19.1942C70.0281 19.1942 70.0651 19.1942 70.1021 19.2312C70.176 19.2682 70.176 19.3422 70.176 19.3792C70.4719 19.4531 70.7678 19.5271 70.9897 19.5641L73.3196 20.0818C73.7264 20.1558 74.3551 20.3407 74.725 20.4886L76.9809 21.2653C77.3508 21.4132 78.0164 21.5612 78.3863 21.6721L80.7162 22.1899C81.123 22.2638 81.7517 22.4488 82.1586 22.5597L84.4515 23.2254C84.8583 23.3364 85.487 23.4843 85.8939 23.5952L88.2238 24.076C88.6306 24.15 89.2593 24.3719 89.6292 24.5198L91.8481 25.4444C92.218 25.5923 92.8467 25.7772 93.2535 25.8142L95.6204 26.1471C96.0272 26.221 96.6559 26.369 97.0628 26.4799L99.3187 27.2196C99.6886 27.3305 100.354 27.5524 100.724 27.6634L102.98 28.3291C103.276 28.403 103.72 28.551 104.09 28.6619L104.164 28.44C104.274 28.1072 104.57 28.0702 105.051 28.2551C105.088 28.2551 105.162 28.2921 105.162 28.2921L105.347 28.3291V28.477L105.384 28.9578H105.199H105.162L106.05 29.2167C106.013 29.1797 106.013 29.1427 106.013 29.1057C106.05 29.0687 106.087 29.0687 106.087 29.0687C106.087 29.0687 106.124 29.1057 106.124 29.1427C106.124 29.1797 106.161 29.2167 106.198 29.2167L106.161 29.2537L106.641 29.4016C107.048 29.5125 107.677 29.6605 108.084 29.7714L110.414 30.2522C110.82 30.3262 111.449 30.4741 111.856 30.5481L112.3 30.622C112.3 30.5481 112.337 30.4741 112.411 30.4001C112.374 30.4001 112.337 30.3631 112.3 30.3631C112.263 30.3631 112.226 30.3262 112.189 30.3262L112.004 30.2892L111.893 30.1412C111.671 29.7344 111.856 29.3276 112.078 28.9948C112.004 28.9208 111.893 28.8468 111.893 28.6989C111.856 28.551 111.93 28.403 112.115 28.2921L112.3 28.1811L112.522 28.2921C112.596 28.3291 112.707 28.3661 112.818 28.3661C112.965 28.403 113.113 28.403 113.261 28.477C113.298 28.44 113.335 28.403 113.372 28.3291L113.557 28.1072L113.853 28.2921C114.149 28.514 114.223 28.7729 114.26 28.9578L114.297 29.0318C114.593 29.0318 114.852 29.1057 115.037 29.2167C115.074 29.2167 115.295 29.3276 115.295 29.3276L115.369 29.4386C115.554 29.8084 115.776 29.9933 116.109 30.2892C116.294 30.4371 116.479 30.622 116.701 30.8439L116.886 31.0288L116.775 31.2138C116.738 31.2507 116.738 31.2507 116.775 31.3617C116.775 31.4357 116.812 31.5096 116.775 31.5836L117.958 31.9904C118.328 32.1014 118.957 32.3232 119.364 32.4712L121.62 33.2848C121.989 33.4327 122.655 33.5807 123.062 33.6546L125.429 34.0615C125.503 34.0615 125.577 34.0984 125.651 34.1354C125.91 34.2834 126.021 34.5792 125.947 34.8751L125.688 35.7627C125.762 35.6887 125.873 35.6887 126.021 35.7627L126.058 35.7997C125.91 35.7997 125.836 36.0585 125.651 35.9476C125.651 35.9476 125.614 35.9476 125.614 35.9106L125.244 37.168C125.133 37.5749 124.948 38.2036 124.837 38.6104L124.467 40.0157C124.541 39.9048 124.689 39.9418 124.763 39.7569C124.874 39.8308 124.985 39.8678 125.096 39.9418C124.985 40.2007 124.837 40.2746 124.578 40.1267C124.541 40.0897 124.504 40.0897 124.467 40.0527L124.245 40.9033C124.134 41.3102 123.986 41.9389 123.913 42.3457L123.691 43.4922C123.691 43.4922 123.691 43.5291 123.654 43.5291L123.432 44.6756C123.395 44.8975 123.321 45.1934 123.21 45.4892C123.358 45.6742 123.543 45.8221 123.58 46.007C123.21 46.3029 123.691 46.5987 123.321 46.6727C123.247 46.4878 123.099 46.3029 122.951 46.118L121.989 48.263C121.841 48.6328 121.62 49.2615 121.546 49.6683L121.102 51.9983C121.028 52.4051 120.843 53.0338 120.732 53.4406L120.362 54.5501C121.139 55.0309 121.102 55.6966 121.324 56.2883C121.62 56.2513 121.804 55.9555 121.989 55.6226C121.989 55.6226 121.989 55.6226 122.026 55.6226C122.359 55.8075 122.174 56.1034 122.433 56.3253C121.952 56.5842 122.026 56.6951 121.915 57.2129C121.065 56.5102 120.177 55.6596 120.362 54.5871L119.992 55.6226C119.992 55.6596 119.955 55.7336 119.955 55.7706C119.807 56.1404 119.659 56.7691 119.549 57.1759C119.585 57.1759 119.622 57.2129 119.622 57.2129C119.659 57.2499 119.696 57.2869 119.77 57.3238C119.844 57.5457 119.622 57.9156 119.401 57.9526C119.401 57.9526 119.364 57.9526 119.364 57.9156L119.216 58.5443C119.512 58.7292 119.659 58.9141 119.696 59.136C119.77 59.3949 119.622 59.5798 119.512 59.6908C119.475 59.7277 119.438 59.7647 119.438 59.8017L119.733 60.3565L119.068 60.2085C119.031 60.2085 118.994 60.1715 118.92 60.1715C118.883 60.1715 118.846 60.1346 118.846 60.0976C118.772 60.3934 118.698 60.7263 118.661 60.9482L118.55 61.392C118.661 61.392 118.735 61.392 118.809 61.355C119.068 61.6509 118.624 61.9837 118.476 62.2056C118.439 62.2056 118.402 62.1686 118.365 62.1686L118.106 63.2411C118.032 63.574 117.921 64.0918 117.81 64.4986C117.921 64.5725 118.069 64.5725 118.291 64.6835C118.254 64.9054 117.958 64.8684 117.773 64.7575L117.33 67.0134C117.256 67.4202 117.071 68.049 116.96 68.4558L116.22 70.6008C116.146 70.8227 115.998 70.9706 115.813 71.0816C115.85 71.0816 115.85 71.1185 115.887 71.1185C116.183 71.3035 115.961 71.5254 115.813 71.7842C115.628 71.6363 115.517 71.3035 115.702 71.1555ZM111.819 30.4371C111.856 30.4001 111.893 30.3631 111.967 30.4001C112.004 30.4371 112.041 30.4741 112.078 30.5481C111.967 30.585 111.893 30.585 111.856 30.5481C111.819 30.5481 111.782 30.4741 111.819 30.4371ZM120.214 59.8757C120.214 59.8757 120.177 59.8757 120.177 59.8387C119.918 59.6908 120.177 59.4319 120.14 59.247C120.288 59.4319 120.399 59.6168 120.214 59.8757ZM119.807 59.0621C119.548 58.9141 119.475 58.6922 119.585 58.4703C119.844 58.6552 119.918 58.8402 119.807 59.0621ZM119.992 57.2869C119.918 57.2499 119.844 57.1759 119.807 57.1019C119.881 56.991 119.992 56.991 120.103 57.065C120.177 57.1019 120.251 57.1759 120.288 57.2499C120.214 57.3608 120.103 57.3608 119.992 57.2869ZM120.14 57.7307C120.399 57.8786 120.658 58.0635 120.51 58.2854C120.288 58.1375 119.992 57.9895 120.14 57.7307ZM119.253 60.5044C119.216 60.5784 119.179 60.6153 119.142 60.6893C119.068 60.6523 118.994 60.6153 118.92 60.5784C118.957 60.5044 118.994 60.4674 119.031 60.3934C119.142 60.4304 119.216 60.4674 119.253 60.5044ZM115.924 73.5964C115.85 73.5594 115.776 73.5225 115.739 73.4855C115.406 73.3006 115.369 73.0417 115.111 72.8568C115.184 72.6349 115.332 72.5239 115.48 72.4869C115.702 72.6349 115.591 72.8198 115.443 73.0417C115.628 73.0047 115.813 72.8568 116.072 73.0047C116.109 73.0417 116.183 73.0787 116.22 73.1156C116.072 73.3006 115.998 73.4485 115.924 73.5964ZM118.439 69.0105C118.587 68.7516 118.846 68.7886 119.068 68.6777C119.364 68.9365 118.994 69.3803 118.587 69.1584C118.55 69.0845 118.476 69.0475 118.439 69.0105ZM117.44 72.1541C117.108 71.9692 117.256 71.6363 117.477 71.5993C117.736 71.7473 117.588 71.9692 117.44 72.1541ZM119.475 69.1215C119.549 69.1584 119.622 69.1954 119.696 69.2324C119.659 69.3064 119.622 69.3434 119.585 69.4173C119.512 69.3803 119.438 69.3434 119.364 69.3064C119.401 69.2694 119.438 69.1954 119.475 69.1215ZM116.701 74.41C116.812 74.521 116.849 74.632 116.775 74.7799C116.664 74.7059 116.627 74.558 116.701 74.41ZM120.066 68.7886C119.844 68.6777 119.955 68.4928 120.103 68.3078C120.103 68.3078 120.14 68.3078 120.14 68.3448C120.362 68.4927 120.251 68.6777 120.214 68.8626C120.14 68.8256 120.103 68.8256 120.066 68.7886ZM119.918 69.6022C119.955 69.5653 120.029 69.5653 120.103 69.6022C120.251 69.7132 120.473 69.9351 120.51 70.046C120.399 70.194 120.325 70.194 120.214 70.12C120.029 70.046 119.881 69.7132 119.918 69.6022ZM118.106 74.6689C118.069 74.6689 118.069 74.632 118.032 74.595C118.069 74.521 118.106 74.484 118.143 74.41C118.143 74.41 118.18 74.41 118.18 74.447C118.254 74.484 118.291 74.447 118.291 74.41C118.291 74.41 118.291 74.41 118.328 74.41C118.402 74.447 118.402 74.558 118.365 74.6319C118.291 74.6689 118.18 74.7059 118.106 74.6689Z" fill="white"/>
<path d="M0.0739685 0.184917V0.147931L0.110954 0.0369837C0.0739708 0.0369837 0.0369809 1.12864e-06 -2.25727e-06 1.12864e-06C0.0369809 0.0369843 0.0739685 0.11095 0.0739685 0.184917Z" transform="translate(104.867 24.5586)" fill="white"/>
<path d="M2.51485 0.443796C2.51485 0.406813 2.47787 0.332849 2.47787 0.295866C2.4039 0.258883 2.36692 0.258881 2.25598 0.258881C2.14503 0.258881 1.99709 0.258882 1.84916 0.184916L1.81217 0.221898L1.66424 0.406814L1.40536 0.295866C1.33139 0.258883 1.25742 0.221899 1.22044 0.184916C1.10949 0.110949 1.03553 0.0739663 0.961566 0L0.924581 0.0369826C0.665699 0.369831 0.295867 0.332849 2.25727e-06 0.295866C0.110952 0.369832 0.258884 0.443798 0.369834 0.517764C0.33285 0.554747 0.332846 0.591729 0.295863 0.591729L1.70123 0.850613C1.96011 0.887596 2.36692 0.998544 2.69977 1.10949C2.58882 0.887595 2.55183 0.665695 2.51485 0.443796Z" transform="translate(112.52 30.1758)" fill="white"/>
<path d="M0.147931 0.0153189C0.0739651 -0.0216642 0.0369843 0.0153212 1.12864e-06 0.0523043L0.221897 0.126269C0.221897 0.0523032 0.184915 0.052302 0.147931 0.0153189Z" transform="translate(83.0078 66.7773)" fill="white"/>
<path d="M15.5699 2.8477L11.1319 20.2298L7.98836 19.4161L11.5757 5.2516L6.73093 4.03116L3.14357 18.1957L-2.82159e-07 17.3821L4.43797 -2.82159e-07L15.5699 2.8477Z" transform="translate(16.2539 17.5312)" fill="white"/>
<path d="M4.36401 -5.64318e-07C5.36255 0.0369826 6.76791 0.221899 8.69104 0.702679C10.6142 1.18346 11.8716 1.99709 12.5743 3.18055C13.24 4.29004 13.4619 5.88032 13.0181 7.58154C12.5743 9.28276 11.7606 10.6142 10.6881 11.3908C9.28276 12.3893 7.58154 12.5373 5.73239 12.0935C5.32557 11.9825 4.95574 11.8716 4.69686 11.7606L3.10658 17.9738L1.12864e-06 17.1972L4.36401 -5.64318e-07ZM5.4735 8.69103C5.73238 8.83897 6.02825 8.94992 6.50903 9.06087C8.17327 9.46768 9.46768 8.69104 9.91148 6.91585C10.3183 5.32557 9.68958 4.14211 8.13629 3.73529C7.50758 3.58736 7.06378 3.55038 6.80489 3.55038L5.4735 8.69103Z" transform="translate(30.3047 21.3398)" fill="white"/>
<path d="M13.7958 10.6596C12.3534 16.355 8.72908 19.1287 4.69792 18.0932C0.592788 17.0577 -0.812574 12.5457 0.444852 7.59C1.77624 2.37538 5.40059 -0.842151 9.46874 0.193376C13.7218 1.26589 15.0162 5.8518 13.7958 10.6596ZM3.77333 8.36665C2.92272 11.7691 3.55143 14.5058 5.65947 15.0236C7.76751 15.5784 9.61667 13.3224 10.4673 9.95692C11.2439 6.85034 10.7631 3.85471 8.61812 3.29996C6.51009 2.7822 4.62395 5.00118 3.77333 8.36665Z" transform="translate(43.4727 25.2539)" fill="white"/>
<path d="M17.456 2.29295L13.8317 16.6054L15.1631 17.0492L13.129 24.4089L10.7621 23.8171L11.7236 19.3792L3.66133 17.3451L2.36692 21.7091L-1.12864e-06 21.1174L1.77519 13.6838L2.95865 13.8687C3.80926 12.7592 4.58591 11.6127 5.2516 10.3183C6.10221 8.65405 6.73093 6.8049 7.28567 4.65987L8.46914 0L17.456 2.29295ZM9.91148 6.25015C9.39371 8.24724 8.69103 10.1704 7.84042 11.8346C7.32266 12.8331 6.69395 13.7947 6.1392 14.5344L10.7251 15.7178L13.5358 4.73384L10.5402 3.95719L9.91148 6.25015Z" transform="translate(54.6797 28.332)" fill="white"/>
<path d="M5.36255 12.9071L3.25452 17.1232L-1.12864e-06 16.3096L8.65405 5.64318e-07L12.7592 1.03553L12.6112 19.5271L9.24578 18.6765L9.31975 13.9426L5.36255 12.9071ZM9.61561 10.873L9.68958 6.95283C9.68958 5.84333 9.80053 4.51194 9.83751 3.40245H9.80053C9.31975 4.40099 8.80198 5.65842 8.3212 6.583L6.54601 10.0594L9.61561 10.873Z" transform="translate(70.2109 32.3594)" fill="white"/>
<path d="M7.58154 0.813628L5.88032 7.50758L11.021 8.80198L12.7222 2.10804L15.8288 2.88468L11.3908 20.2668L8.28422 19.4901L10.1334 12.2044L4.99272 10.91L3.14357 18.1957L1.12864e-06 17.3821L4.43798 0L7.58154 0.813628Z" transform="translate(84.8555 34.9844)" fill="white"/>
<path d="M13.7958 10.6596C12.3534 16.355 8.72907 19.1287 4.69791 18.0932C0.592781 17.0577 -0.812578 12.5457 0.444848 7.59C1.77624 2.37538 5.4006 -0.842149 9.46874 0.193379C13.7218 1.26589 15.0162 5.8518 13.7958 10.6596ZM3.77333 8.36665C2.92272 11.7691 3.55143 14.5058 5.65947 15.0236C7.76751 15.5784 9.61667 13.3224 10.4673 9.95692C11.2439 6.85034 10.7631 3.85471 8.61812 3.29996C6.51008 2.74521 4.62394 4.9642 3.77333 8.36665Z" transform="translate(100.316 39.7148)" fill="white"/>
</svg>
