<svg width="28" height="11" viewBox="0 0 28 11" fill="none" xmlns="http://www.w3.org/2000/svg">
<path d="M0 8.23271C1.15862 5.55765 2.59617 3.5283 4.31264 2.14465C6.02912 0.714885 7.68123 0 9.26896 0C10.3418 0 11.3931 0.253669 12.423 0.761006C13.4529 1.22222 14.4613 1.75262 15.4483 2.3522C16.4352 2.95178 17.4222 3.50524 18.4092 4.01258C19.4391 4.47379 20.4904 4.7044 21.5632 4.7044C22.3356 4.7044 23.1295 4.54298 23.9448 4.22013C24.8031 3.85115 25.6613 3.22851 26.5195 2.3522L28 4.42767C27.013 6.64151 25.8115 8.30189 24.3954 9.40881C22.9793 10.4696 21.5418 11 20.0828 11C18.9671 11 17.8728 10.7694 16.8 10.3082C15.7701 9.80084 14.7402 9.24738 13.7103 8.6478C12.6805 8.04822 11.6506 7.51782 10.6207 7.0566C9.59081 6.54927 8.56092 6.2956 7.53103 6.2956C6.58697 6.2956 5.62146 6.57233 4.63448 7.12579C3.69042 7.67925 2.7249 8.67086 1.73793 10.1006L0 8.23271Z" fill="#005062"/>
</svg>
